<?xml version="1.0" encoding="UTF-8"?>
<svg width="69px" height="70px" viewBox="0 0 69 70" version="1.1" xmlns="http://www.w3.org/2000/svg" xmlns:xlink="http://www.w3.org/1999/xlink">
    <!-- Generator: Sketch 50.2 (55047) - http://www.bohemiancoding.com/sketch -->
    <title>1fd169b7-43b2-a169-e0c6-1185ee71ce05</title>
    <desc>Created with Sketch.</desc>
    <defs>
        <linearGradient x1="142.109758%" y1="199.134045%" x2="100%" y2="0%" id="linearGradient-1">
            <stop stop-color="#A92580" offset="0%"></stop>
            <stop stop-color="#F7BC00" offset="100%"></stop>
        </linearGradient>
        <linearGradient x1="0%" y1="0%" x2="100%" y2="0%" id="linearGradient-2">
            <stop stop-color="#A92580" offset="0%"></stop>
            <stop stop-color="#F7BC00" offset="100%"></stop>
        </linearGradient>
    </defs>
    <g id="Page-1" stroke="none" stroke-width="1" fill="none" fill-rule="evenodd">
        <g id="iconwhite" transform="translate(-116.000000, -87.000000)" fill="#FFFFFF" fill-rule="nonzero">
            <g id="1fd169b7-43b2-a169-e0c6-1185ee71ce05" transform="translate(116.000000, 87.000000)">
                <g id="Group">
                    <circle id="Oval" cx="34.6458" cy="4.6221" r="1.4896"></circle>
                    <path d="M12.7869,24.3957 L17.073,19.1702 C17.3070804,18.8851021 17.3712817,18.4967803 17.2414199,18.1515117 C17.111558,17.8062432 16.8073621,17.5564823 16.4434199,17.4963117 C16.0794776,17.4361411 15.7110804,17.574702 15.477,17.8598 L10.5966,23.8091 C10.2597374,24.2197717 10.2894121,24.8190187 10.6652,25.1944 L15.9803,30.5081 C16.1819,30.7104 16.4458,30.8112 16.7097,30.8112 C17.1276227,30.8114936 17.5045059,30.5598225 17.6643851,30.1736903 C17.8242644,29.7875581 17.7356044,29.3431274 17.4398,29.0479 L12.7869,24.3957 Z M30.8651,23.0986 L25.55,17.7842 C25.1465836,17.3809769 24.4926731,17.3811336 24.08945,17.78455 C23.6862269,18.1879664 23.6863836,18.8418769 24.0898,19.2451 L28.7427,23.8973 L24.4566,29.1228 C24.1217353,29.565712 24.1965083,30.1940385 24.625965,30.5459935 C25.0554217,30.8979486 25.6861947,30.8478423 26.0547,30.4325 L30.9337,24.4832 C31.2701357,24.0726455 31.2404702,23.4738881 30.8651,23.0986 Z" id="Shape"></path>
                    <path d="M61.9976,0 L6.6024,0 C3.1437,0 0,2.814 0,6.272 L0,45.1976 C0,48.657 3.1437,51.8 6.6024,51.8 L28.4977,51.8 C28.609,53.2 28.7154,57.5876 28.2716,59.0583 C27.4575,60.2686 18.8286,62.8138 11.3568,64.5561 C10.892,64.6653 10.5,64.9978 10.5,65.4759 L10.5,68.9703 C10.5,69.5394 11.0845,70 11.6529,70 L56.9478,70 C57.5162,70 58.1,69.5394 58.1,68.9703 L58.1,65.4759 C58.1,64.9971 57.7087,64.582 57.2425,64.4721 C49.7301,62.7319 41.0851,60.2665 40.3011,59.1346 C39.8272,57.5939 39.8475,53.2 39.9273,51.8 L61.9976,51.8 C65.4556,51.8 68.6,48.657 68.6,45.1976 L68.6,6.272 C68.6,2.814 65.4556,0 61.9976,0 Z M56,66.2921 L56,67.9 L12.6,67.9 L12.6,66.2914 C20.3,64.4448 29.4679,62.0067 30.1665,59.738 C30.7741,57.7584 30.6572,53.2 30.5599,51.8 L37.8665,51.8 C37.7937,53.2 37.7349,57.7598 38.3439,59.7401 C39.0411,62.0081 48.3,64.4448 56,66.2921 Z M66.5,45.486 C66.5,47.8142 63.9135,49.7 61.586,49.7 L6.314,49.7 C5.19626386,49.7003715 4.12420059,49.2565171 3.33384174,48.4661583 C2.54348289,47.6757994 2.09962847,46.6037361 2.1,45.486 L2.1,6.3133 C2.10038655,3.98624544 3.9869454,2.09999997 6.314,2.1 L61.586,2.1 C63.9135,2.1 66.5,3.9865 66.5,6.3133 L66.5,45.486 Z" id="Shape"></path>
                    <path d="M61.9703,8.4 L6.6297,8.4 C6.0613,8.4 5.6,8.8613 5.6,9.4297 L5.6,40.2703 C5.59981412,40.5434504 5.70824037,40.8054666 5.90138688,40.9986131 C6.0945334,41.1917596 6.35654964,41.3001859 6.6297,41.3 L61.9703,41.3 C62.2434504,41.3001859 62.5054666,41.1917596 62.6986131,40.9986131 C62.8917596,40.8054666 63.0001859,40.5434504 63,40.2703 L63,9.4297 C63.0001859,9.15654964 62.8917596,8.8945334 62.6986131,8.70138688 C62.5054666,8.50824037 62.2434504,8.39981412 61.9703,8.4 Z M7.7,10.5 L33.6,10.5 L33.6,39.2 L7.7,39.2 L7.7,10.5 Z M60.9,39.2 L35.7,39.2 L35.7,10.5 L60.9,10.5 L60.9,39.2 Z" id="Shape"></path>
                    <path d="M38.15,25.2 L58.45,25.2 C59.029899,25.2 59.5,24.729899 59.5,24.15 L59.5,12.95 C59.5,12.370101 59.029899,11.9 58.45,11.9 L38.15,11.9 C37.570101,11.9 37.1,12.370101 37.1,12.95 L37.1,24.15 C37.1,24.729899 37.570101,25.2 38.15,25.2 Z M39.2,14 L57.4,14 L57.4,23.1 L39.2,23.1 L39.2,14 Z M58.1,27.3 L38.5,27.3 C37.920101,27.3 37.45,27.770101 37.45,28.35 C37.45,28.929899 37.920101,29.4 38.5,29.4 L58.1,29.4 C58.679899,29.4 59.15,28.929899 59.15,28.35 C59.15,27.770101 58.679899,27.3 58.1,27.3 Z M58.1,31.5 L38.5,31.5 C37.920101,31.5 37.45,31.970101 37.45,32.55 C37.45,33.129899 37.920101,33.6 38.5,33.6 L58.1,33.6 C58.679899,33.6 59.15,33.129899 59.15,32.55 C59.15,31.970101 58.679899,31.5 58.1,31.5 Z M58.1,35.7 L38.5,35.7 C37.920101,35.7 37.45,36.170101 37.45,36.75 C37.45,37.329899 37.920101,37.8 38.5,37.8 L58.1,37.8 C58.679899,37.8 59.15,37.329899 59.15,36.75 C59.15,36.170101 58.679899,35.7 58.1,35.7 Z" id="Shape"></path>
                </g>
            </g>
        </g>
    </g>
</svg>