<svg data-v-5f19e91b="" xmlns="http://www.w3.org/2000/svg" width="399" height="90" viewBox="0 0 399 90"><!----> <!----> <!----> <g data-v-5f19e91b="" id="df19ba8d-690c-fdf9-dd14-8724cbd25e01" fill="white" transform="matrix(5.263158070853988,0,0,5.263158070853988,106.8842042797929,-17.789475358644275)"><path d="M4.35 16.67L4.35 16.67Q4.49 15.92 4.75 14.84L4.75 14.84L3.75 14.92L3.75 14.92Q1.54 15.12 1.18 15.12L1.18 15.12L1.18 15.12Q0.74 15.12 0.50 14.97L0.50 14.97L0.50 14.97Q0.25 14.81 0.25 14.38L0.25 14.38L0.25 14.38Q0.25 14.15 0.49 13.87L0.49 13.87L0.49 13.87Q3.56 10.64 4.70 9.47L4.70 9.47L4.70 9.47Q5.85 8.30 6.30 7.95L6.30 7.95L6.30 7.95Q6.75 7.59 7.04 7.59L7.04 7.59L7.04 7.59Q7.50 7.59 7.78 7.75L7.78 7.75L7.78 7.75Q8.06 7.91 8.06 8.20L8.06 8.20L8.06 8.20Q8.06 8.37 8.05 8.41L8.05 8.41L8.05 8.41Q7.43 10.68 6.85 13.40L6.85 13.40L7.80 13.31L7.80 13.31Q8.04 13.41 8.19 13.59L8.19 13.59L8.19 13.59Q8.34 13.78 8.34 14.00L8.34 14.00L8.34 14.00Q8.34 14.48 7.52 14.60L7.52 14.60L6.58 14.67L6.15 16.66L6.15 16.66Q6.15 17.01 5.88 17.21L5.88 17.21L5.88 17.21Q5.61 17.42 5.22 17.42L5.22 17.42L5.22 17.42Q4.86 17.42 4.62 17.27L4.62 17.27L4.62 17.27Q4.38 17.12 4.35 16.67L4.35 16.67ZM2.73 13.76L2.73 13.76Q3.37 13.66 5.04 13.52L5.04 13.52L5.04 13.52Q5.50 11.61 5.89 10.32L5.89 10.32L2.73 13.76ZM11.17 12.46L11.17 12.46Q11.49 11.83 12.06 11.38L12.06 11.38L12.06 11.38Q12.63 10.93 13.22 10.70L13.22 10.70L13.22 10.70Q13.80 10.46 14.18 10.46L14.18 10.46L14.18 10.46Q14.91 10.46 15.23 10.73L15.23 10.73L15.23 10.73Q15.55 11.00 15.55 11.59L15.55 11.59L15.55 11.59Q14.73 13.75 14.46 16.24L14.46 16.24L14.66 16.93L14.66 16.93Q14.49 17.25 14.21 17.44L14.21 17.44L14.21 17.44Q13.93 17.63 13.36 17.63L13.36 17.63L13.36 17.63Q13.02 17.63 12.87 17.40L12.87 17.40L12.87 17.40Q12.71 17.18 12.71 16.84L12.71 16.84L12.71 16.84Q12.71 15.90 12.98 14.78L12.98 14.78L12.98 14.78Q13.26 13.65 13.62 12.47L13.62 12.47L13.62 12.47Q13.76 12.03 13.76 12.01L13.76 12.01L13.76 12.01Q13.76 11.82 13.54 11.82L13.54 11.82L13.54 11.82Q13.24 11.82 12.68 12.25L12.68 12.25L12.68 12.25Q12.12 12.68 11.52 13.71L11.52 13.71L11.52 13.71Q10.92 14.74 10.51 16.41L10.51 16.41L10.51 16.41Q10.50 16.48 10.44 16.70L10.44 16.70L10.44 16.70Q10.39 16.93 10.19 17.02L10.19 17.02L10.19 17.02Q10.00 17.12 9.59 17.12L9.59 17.12L9.59 17.12Q9.10 17.12 8.83 17.02L8.83 17.02L8.83 17.02Q8.57 16.91 8.57 16.60L8.57 16.60L8.57 16.60Q10.40 9.39 10.84 7.59L10.84 7.59L10.84 7.59Q10.82 7.41 10.81 7.11L10.81 7.11L10.81 7.11Q10.81 6.80 10.81 6.64L10.81 6.64L10.81 6.64Q10.85 6.44 11.11 6.34L11.11 6.34L11.11 6.34Q11.37 6.23 11.63 6.23L11.63 6.23L11.63 6.23Q12.08 6.23 12.39 6.47L12.39 6.47L12.39 6.47Q12.70 6.71 12.73 7.07L12.73 7.07L11.17 12.46ZM21.95 17.04L21.95 17.04Q21.90 17.28 21.70 17.37L21.70 17.37L21.70 17.37Q21.50 17.46 21.18 17.46L21.18 17.46L21.18 17.46Q20.22 17.46 20.22 17.02L20.22 17.02L20.30 16.49L20.30 16.49Q19.91 16.79 19.38 17.08L19.38 17.08L19.38 17.08Q18.84 17.37 18.49 17.37L18.49 17.37L18.49 17.37Q16.42 17.37 16.42 16.02L16.42 16.02L16.42 16.02Q16.42 13.71 17.81 11.00L17.81 11.00L17.81 11.00Q17.98 10.68 18.16 10.54L18.16 10.54L18.16 10.54Q18.35 10.40 18.82 10.40L18.82 10.40L18.82 10.40Q19.31 10.40 19.55 10.54L19.55 10.54L19.55 10.54Q19.80 10.67 19.80 10.85L19.80 10.85L19.80 10.85Q19.80 10.89 19.64 11.10L19.64 11.10L19.64 11.10Q19.49 11.28 19.38 11.47L19.38 11.47L19.38 11.47Q18.06 13.66 18.06 15.75L18.06 15.75L18.06 15.75Q18.06 15.93 18.20 16.07L18.20 16.07L18.20 16.07Q18.34 16.21 18.45 16.21L18.45 16.21L18.45 16.21Q18.76 16.21 19.49 15.92L19.49 15.92L19.49 15.92Q20.23 15.62 20.62 15.32L20.62 15.32L20.90 14.18L20.90 14.18Q21.41 12.15 21.53 11.69L21.53 11.69L21.53 11.69Q21.69 11.13 21.93 10.77L21.93 10.77L21.93 10.77Q22.18 10.42 22.71 10.42L22.71 10.42L22.71 10.42Q23.45 10.42 23.45 10.86L23.45 10.86L23.45 10.86Q23.45 10.93 23.41 11.04L23.41 11.04L23.41 11.04Q23.38 11.14 23.37 11.21L23.37 11.21L22.81 13.48L22.81 13.48Q22.13 16.18 21.95 17.04L21.95 17.04ZM24.65 10.68L24.65 10.68Q24.61 10.64 24.61 10.58L24.61 10.58L24.61 10.58Q24.61 10.44 24.92 10.35L24.92 10.35L24.92 10.35Q25.23 10.26 25.77 10.26L25.77 10.26L25.77 10.26Q26.26 10.26 26.43 10.54L26.43 10.54L26.43 10.54Q26.60 10.81 26.64 11.24L26.64 11.24L26.64 11.24Q26.61 11.35 26.59 11.55L26.59 11.55L26.52 11.89L26.52 11.89Q26.92 11.41 27.72 10.96L27.72 10.96L27.72 10.96Q28.52 10.50 28.97 10.50L28.97 10.50L28.97 10.50Q29.67 10.50 29.94 10.75L29.94 10.75L29.94 10.75Q30.21 10.99 30.25 11.68L30.25 11.68L30.25 11.68Q30.77 11.19 31.44 10.84L31.44 10.84L31.44 10.84Q32.12 10.50 32.62 10.50L32.62 10.50L32.62 10.50Q33.15 10.50 33.60 10.72L33.60 10.72L33.60 10.72Q34.05 10.93 34.05 11.41L34.05 11.41L34.05 11.41Q34.05 11.54 34.03 11.61L34.03 11.61L34.03 11.61Q33.99 11.83 33.87 12.23L33.87 12.23L33.87 12.23Q33.75 12.63 33.70 12.81L33.70 12.81L33.70 12.81Q33.35 13.94 33.16 14.72L33.16 14.72L33.16 14.72Q32.97 15.50 32.93 16.24L32.93 16.24L33.12 16.93L33.12 16.93Q32.96 17.25 32.66 17.44L32.66 17.44L32.66 17.44Q32.35 17.63 31.78 17.63L31.78 17.63L31.78 17.63Q31.44 17.63 31.29 17.40L31.29 17.40L31.29 17.40Q31.14 17.18 31.14 16.84L31.14 16.84L31.14 16.84Q31.14 16.77 31.15 16.69L31.15 16.69L31.15 16.69Q31.16 16.60 31.16 16.53L31.16 16.53L31.16 16.53Q31.19 15.75 31.39 14.95L31.39 14.95L31.39 14.95Q31.60 14.14 31.92 13.13L31.92 13.13L31.92 13.13Q32.21 12.25 32.21 12.05L32.21 12.05L32.21 12.05Q32.21 11.97 32.19 11.88L32.19 11.88L32.19 11.88Q32.17 11.79 32.14 11.79L32.14 11.79L32.14 11.79Q31.82 11.79 31.09 12.10L31.09 12.10L31.09 12.10Q30.35 12.40 30.10 12.71L30.10 12.71L30.10 12.71Q29.83 13.57 29.22 16.27L29.22 16.27L29.13 16.66L29.13 16.66Q29.06 17.02 29.00 17.16L29.00 17.16L29.00 17.16Q28.94 17.30 28.76 17.37L28.76 17.37L28.76 17.37Q28.57 17.44 28.17 17.44L28.17 17.44L28.17 17.44Q27.20 17.44 27.20 17.05L27.20 17.05L27.20 17.05Q27.31 16.74 27.82 14.69L27.82 14.69L27.82 14.69Q28.13 13.41 28.52 11.87L28.52 11.87L28.52 11.87Q28.43 11.91 28.21 12.00L28.21 12.00L28.21 12.00Q27.54 12.26 27.04 12.54L27.04 12.54L27.04 12.54Q26.54 12.82 26.24 13.20L26.24 13.20L25.87 14.69L25.87 14.69Q25.79 15.02 25.72 15.31L25.72 15.31L25.72 15.31Q25.65 15.60 25.59 15.79L25.59 15.79L25.59 15.79Q25.52 16.03 25.49 16.44L25.49 16.44L25.49 16.44Q25.47 16.72 25.42 16.84L25.42 16.84L25.42 16.84Q25.37 16.97 25.18 17.05L25.18 17.05L25.18 17.05Q24.99 17.12 24.58 17.12L24.58 17.12L24.58 17.12Q24.12 17.12 23.88 17.02L23.88 17.02L23.88 17.02Q23.65 16.93 23.65 16.60L23.65 16.60L23.65 16.60Q23.65 16.45 24.00 14.97L24.00 14.97L24.00 14.97Q24.36 13.48 24.98 11.10L24.98 11.10L24.65 10.68ZM39.97 16.35L39.97 16.35Q40.00 16.72 40.07 17.01L40.07 17.01L40.07 17.01Q40.04 17.09 39.82 17.18L39.82 17.18L39.82 17.18Q39.61 17.26 39.45 17.26L39.45 17.26L39.45 17.26Q38.95 17.26 38.73 17.12L38.73 17.12L38.73 17.12Q38.51 16.97 38.51 16.67L38.51 16.67L38.51 16.67Q38.51 16.39 38.57 16.11L38.57 16.11L38.57 16.11Q38.26 16.53 37.67 16.81L37.67 16.81L37.67 16.81Q37.07 17.08 36.71 17.08L36.71 17.08L36.71 17.08Q35.77 17.08 35.15 16.53L35.15 16.53L35.15 16.53Q34.52 15.99 34.52 14.78L34.52 14.78L34.52 14.78Q34.52 13.65 35.06 12.65L35.06 12.65L35.06 12.65Q35.60 11.65 36.55 11.04L36.55 11.04L36.55 11.04Q37.51 10.43 38.67 10.43L38.67 10.43L38.67 10.43Q38.89 10.43 39.26 10.55L39.26 10.55L39.26 10.55Q39.62 10.67 39.99 10.96L39.99 10.96L39.99 10.96Q40.36 11.24 40.61 11.69L40.61 11.69L40.61 11.69Q40.73 11.69 40.88 11.80L40.88 11.80L40.88 11.80Q41.03 11.91 41.03 12.03L41.03 12.03L41.03 12.03Q41.03 12.15 40.99 12.28L40.99 12.28L39.97 16.35ZM39.34 12.43L39.34 12.43Q39.26 12.12 39.01 11.91L39.01 11.91L39.01 11.91Q38.77 11.70 38.57 11.70L38.57 11.70L38.57 11.70Q37.93 11.70 37.36 12.16L37.36 12.16L37.36 12.16Q36.79 12.61 36.44 13.29L36.44 13.29L36.44 13.29Q36.09 13.96 36.09 14.56L36.09 14.56L36.09 14.56Q36.09 15.15 36.23 15.53L36.23 15.53L36.23 15.53Q36.37 15.90 36.78 15.90L36.78 15.90L36.78 15.90Q37.13 15.90 37.58 15.69L37.58 15.69L37.58 15.69Q38.04 15.48 38.39 15.13L38.39 15.13L38.39 15.13Q38.75 14.77 38.86 14.38L38.86 14.38L39.34 12.43ZM42.53 10.68L42.53 10.68Q42.49 10.64 42.49 10.58L42.49 10.58L42.49 10.58Q42.49 10.44 42.80 10.35L42.80 10.35L42.80 10.35Q43.11 10.26 43.65 10.26L43.65 10.26L43.65 10.26Q44.16 10.26 44.39 10.52L44.39 10.52L44.39 10.52Q44.63 10.78 44.67 11.14L44.67 11.14L44.42 12.05L44.42 12.05Q44.72 11.65 45.25 11.28L45.25 11.28L45.25 11.28Q45.78 10.91 46.33 10.68L46.33 10.68L46.33 10.68Q46.87 10.46 47.22 10.46L47.22 10.46L47.22 10.46Q47.96 10.46 48.30 10.73L48.30 10.73L48.30 10.73Q48.64 11.00 48.64 11.59L48.64 11.59L48.64 11.59Q47.81 13.75 47.54 16.24L47.54 16.24L47.74 16.93L47.74 16.93Q47.57 17.25 47.27 17.44L47.27 17.44L47.27 17.44Q46.97 17.63 46.40 17.63L46.40 17.63L46.40 17.63Q46.06 17.63 45.91 17.40L45.91 17.40L45.91 17.40Q45.75 17.18 45.75 16.84L45.75 16.84L45.75 16.84Q45.75 15.90 46.02 14.78L46.02 14.78L46.02 14.78Q46.30 13.65 46.66 12.47L46.66 12.47L46.66 12.47Q46.80 12.03 46.80 12.01L46.80 12.01L46.80 12.01Q46.80 11.82 46.58 11.82L46.58 11.82L46.58 11.82Q46.27 11.82 45.65 12.25L45.65 12.25L45.65 12.25Q45.02 12.68 44.37 13.71L44.37 13.71L44.37 13.71Q43.71 14.74 43.30 16.41L43.30 16.41L43.30 16.41Q43.27 16.49 43.23 16.72L43.23 16.72L43.23 16.72Q43.19 16.94 43.01 17.03L43.01 17.03L43.01 17.03Q42.83 17.12 42.42 17.12L42.42 17.12L42.42 17.12Q41.96 17.12 41.74 17.02L41.74 17.02L41.74 17.02Q41.52 16.93 41.52 16.60L41.52 16.60L41.52 16.60Q41.57 16.41 41.65 16.13L41.65 16.13L41.65 16.13Q42.46 12.87 42.90 11.10L42.90 11.10L42.53 10.68ZM53.82 11.66L53.82 11.66Q53.65 11.58 53.40 11.58L53.40 11.58L53.40 11.58Q52.77 11.58 52.14 11.83L52.14 11.83L52.14 11.83Q51.51 12.08 51.51 12.47L51.51 12.47L51.51 12.47Q51.51 12.75 51.76 12.92L51.76 12.92L51.76 12.92Q52.01 13.09 52.56 13.30L52.56 13.30L52.56 13.30Q53.14 13.54 53.51 13.75L53.51 13.75L53.51 13.75Q53.87 13.96 54.14 14.36L54.14 14.36L54.14 14.36Q54.42 14.76 54.42 15.37L54.42 15.37L54.42 15.37Q54.42 16.38 53.58 16.92L53.58 16.92L53.58 16.92Q52.75 17.46 51.35 17.46L51.35 17.46L51.35 17.46Q50.67 17.46 50.08 17.25L50.08 17.25L50.08 17.25Q49.49 17.04 49.15 16.71L49.15 16.71L49.15 16.71Q48.80 16.38 48.78 16.06L48.78 16.06L48.78 16.06Q48.78 15.72 49.07 15.51L49.07 15.51L49.07 15.51Q49.36 15.29 49.90 15.22L49.90 15.22L49.90 15.22Q49.91 15.50 50.19 15.74L50.19 15.74L50.19 15.74Q50.47 15.99 50.85 16.14L50.85 16.14L50.85 16.14Q51.24 16.28 51.52 16.28L51.52 16.28L51.52 16.28Q52.00 16.28 52.39 16.02L52.39 16.02L52.39 16.02Q52.78 15.76 52.78 15.41L52.78 15.41L52.78 15.41Q52.78 14.77 51.53 14.39L51.53 14.39L51.53 14.39Q50.74 14.15 50.31 13.64L50.31 13.64L50.31 13.64Q49.88 13.12 49.88 12.54L49.88 12.54L49.88 12.54Q49.88 11.41 50.91 10.91L50.91 10.91L50.91 10.91Q51.94 10.42 53.54 10.42L53.54 10.42L53.54 10.42Q54.43 10.42 54.92 10.63L54.92 10.63L54.92 10.63Q55.41 10.84 55.41 11.35L55.41 11.35L55.41 11.35Q55.41 11.70 55.15 11.97L55.15 11.97L55.15 11.97Q54.89 12.24 54.42 12.24L54.42 12.24L54.42 12.24Q54.00 12.24 53.88 12.17L53.88 12.17L53.88 12.17Q53.76 12.11 53.75 11.96L53.75 11.96L53.75 11.96Q53.75 11.82 53.82 11.66L53.82 11.66Z"></path></g> <!----> <g data-v-5f19e91b="" id="28ddba98-f02c-cbc0-7972-b41913c72f41" transform="matrix(0.8999999313354544,0,0,0.8999999313354544,0.9000033645627354,0)" stroke="none" fill="white"><circle cx="49.494" cy="6.603" r="2.128"></circle><path d="M18.267 34.851l6.123-7.465a1.474 1.474 0 1 0-2.28-1.872l-6.972 8.499a1.475 1.475 0 0 0 .098 1.979l7.593 7.591c.288.289.665.433 1.042.433a1.475 1.475 0 0 0 1.043-2.519l-6.647-6.646zM44.093 32.998L36.5 25.406a1.475 1.475 0 1 0-2.086 2.087l6.647 6.646-6.123 7.465a1.477 1.477 0 0 0 2.283 1.871l6.97-8.499a1.475 1.475 0 0 0-.098-1.978z"></path><path d="M88.568 0H9.432C4.491 0 0 4.02 0 8.96v55.608C0 69.51 4.491 74 9.432 74h31.279c.159 2 .311 8.268-.323 10.369-1.163 1.729-13.49 5.365-24.164 7.854-.664.156-1.224.631-1.224 1.314v4.992c0 .813.835 1.471 1.647 1.471h64.707c.812 0 1.646-.658 1.646-1.471v-4.992c0-.684-.559-1.277-1.225-1.434-10.732-2.486-23.082-6.008-24.202-7.625-.677-2.201-.648-8.478-.534-10.478h31.529C93.508 74 98 69.51 98 64.568V8.96C98 4.02 93.508 0 88.568 0zM80 94.703V97H18v-2.298c11-2.638 24.097-6.121 25.095-9.362.868-2.828.701-9.34.562-11.34h10.438c-.104 2-.188 8.514.682 11.343.996 3.24 14.223 6.721 25.223 9.36zM95 64.98c0 3.326-3.695 6.02-7.02 6.02H9.02A6.018 6.018 0 0 1 3 64.98V9.019A6.02 6.02 0 0 1 9.02 3h78.96C91.305 3 95 5.695 95 9.019V64.98z"></path><path d="M88.529 12H9.471C8.659 12 8 12.659 8 13.471v44.058A1.47 1.47 0 0 0 9.471 59h79.058A1.47 1.47 0 0 0 90 57.529V13.471A1.47 1.47 0 0 0 88.529 12zM11 15h37v41H11V15zm76 41H51V15h36v41z"></path><path d="M54.5 36h29a1.5 1.5 0 0 0 1.5-1.5v-16a1.5 1.5 0 0 0-1.5-1.5h-29a1.5 1.5 0 0 0-1.5 1.5v16a1.5 1.5 0 0 0 1.5 1.5zM56 20h26v13H56V20zM83 39H55a1.5 1.5 0 1 0 0 3h28a1.5 1.5 0 1 0 0-3zM83 45H55a1.5 1.5 0 1 0 0 3h28a1.5 1.5 0 1 0 0-3zM83 51H55a1.5 1.5 0 0 0 0 3h28a1.5 1.5 0 0 0 0-3z"></path></g></svg>