<?xml version="1.0" encoding="UTF-8"?>
<svg width="263px" height="166px" viewBox="0 0 263 166" version="1.1" xmlns="http://www.w3.org/2000/svg" xmlns:xlink="http://www.w3.org/1999/xlink">
    <!-- Generator: Sketch 50.2 (55047) - http://www.bohemiancoding.com/sketch -->
    <title>Artboard 6</title>
    <desc>Created with Sketch.</desc>
    <defs>
        <path d="M37.363,62.357 L0.394,25.347 L3.173,23.837 L0.343,21.107 L8.373,18.507 L7.953,11.947 L9.283,5.277 L15.613,0.617 L25.213,3.947 L27.843,2.757 L40.033,15.007 L39.733,16.237 L43.403,6.437 L45.064,6.867 L70.133,31.967 C65.843,47.337 53.173,59.207 37.363,62.357" id="path-1"></path>
        <linearGradient x1="15.4407508%" y1="4.69403952%" x2="82.2445909%" y2="83.3294461%" id="linearGradient-3">
            <stop stop-color="#A62C2A" offset="0%"></stop>
            <stop stop-color="#E15F2B" offset="100%"></stop>
        </linearGradient>
        <path d="M31.987,63.303 L31.958,63.303 L5.478,36.753 L10.598,34.482 L0.348,24.893 L11.768,20.062 L13.367,18.412 L14.348,17.393 L15.048,16.683 L14.678,13.313 L13.428,11.732 L6.768,6.063 L6.428,0.732 L49.397,0.492 L51.298,0.812 L74.588,24.032 C72.828,46.022 54.428,63.303 31.987,63.303" id="path-4"></path>
        <linearGradient x1="11.7793642%" y1="-3.69043639%" x2="81.5216864%" y2="82.1494643%" id="linearGradient-6">
            <stop stop-color="#3E92AC" offset="0%"></stop>
            <stop stop-color="#A4D4DB" offset="100%"></stop>
        </linearGradient>
        <path d="M29.014,59.187 L28.684,59.187 L0.364,30.837 L52.614,0.148 L71.664,19.197 C70.254,41.517 51.704,59.187 29.014,59.187" id="path-7"></path>
        <linearGradient x1="30.0897616%" y1="17.0851471%" x2="80.8074334%" y2="80.8673927%" id="linearGradient-9">
            <stop stop-color="#C16D2E" offset="0%"></stop>
            <stop stop-color="#EBB62A" offset="100%"></stop>
        </linearGradient>
        <path d="M29.018,62.303 C27.348,62.303 25.688,62.203 24.068,62.022 L0.848,38.783 L48.287,0.522 L71.568,23.633 C69.508,45.333 51.248,62.303 29.018,62.303" id="path-10"></path>
        <linearGradient x1="31.3631222%" y1="27.4534242%" x2="78.7541007%" y2="83.9436073%" id="linearGradient-12">
            <stop stop-color="#A62C2A" offset="0%"></stop>
            <stop stop-color="#E15F2B" offset="100%"></stop>
        </linearGradient>
        <path d="M28.963,62.303 C27.184,62.303 25.423,62.192 23.703,61.982 L0.523,38.833 L57.753,0.563 L71.363,14.093 C71.583,15.883 71.703,17.703 71.703,19.553 C71.703,43.163 52.563,62.303 28.963,62.303" id="path-13"></path>
        <linearGradient x1="34.5706659%" y1="23.7123421%" x2="81.8017702%" y2="80.4157758%" id="linearGradient-15">
            <stop stop-color="#C16D2E" offset="0%"></stop>
            <stop stop-color="#EBB62A" offset="100%"></stop>
        </linearGradient>
    </defs>
    <g id="Artboard-6" stroke="none" stroke-width="1" fill="none" fill-rule="evenodd">
        <g id="Group">
            <path d="M85.703,43.447 C85.703,47.438 85.153,51.297 84.133,54.967 C79.843,70.337 67.173,82.207 51.363,85.357 C48.653,85.907 45.843,86.187 42.963,86.187 C19.354,86.187 0.213,67.047 0.213,43.447 C0.213,19.837 19.354,0.697 42.963,0.697 C66.563,0.697 85.703,19.837 85.703,43.447" id="Fill-233" fill="#E1602B"></path>
            <g id="Group-236" transform="translate(14.000000, 23.000000)">
                <mask id="mask-2" fill="white">
                    <use xlink:href="#path-1"></use>
                </mask>
                <g id="Clip-235"></g>
                <path d="M37.363,62.357 L0.394,25.347 L3.173,23.837 L0.343,21.107 L8.373,18.507 L7.953,11.947 L9.283,5.277 L15.613,0.617 L25.213,3.947 L27.843,2.757 L40.033,15.007 L39.733,16.237 L43.403,6.437 L45.064,6.867 L70.133,31.967 C65.843,47.337 53.173,59.207 37.363,62.357" id="Fill-234" fill="url(#linearGradient-3)" mask="url(#mask-2)"></path>
            </g>
            <path d="M69.448,45.183 L64.765,45.183 C64.419,45.183 64.139,45.464 64.139,45.81 C64.139,46.154 64.419,46.435 64.765,46.435 L69.448,46.435 C70.052,46.435 70.541,46.924 70.541,47.526 L70.541,61.267 C70.541,61.869 70.052,62.359 69.448,62.359 L45.959,62.359 C45.356,62.359 44.867,61.869 44.867,61.267 L44.867,34.768 C44.867,34.423 44.587,34.142 44.241,34.142 C43.897,34.142 43.616,34.423 43.616,34.768 L43.616,61.267 C43.616,62.559 44.667,63.61 45.959,63.61 L69.448,63.61 C70.741,63.61 71.792,62.559 71.792,61.267 L71.792,47.526 C71.792,46.234 70.741,45.183 69.448,45.183" id="Fill-237" fill="#274152"></path>
            <path d="M65.18,60.38 C65.814,60.38 66.328,59.866 66.328,59.23 L66.328,38.101 C66.328,37.465 65.814,36.95 65.18,36.95 L31.3,36.95 C30.665,36.95 30.149,37.465 30.149,38.101 L30.149,59.23 C30.149,59.866 30.665,60.38 31.3,60.38 L65.18,60.38" id="Fill-238" fill="#2BA8AF"></path>
            <polygon id="Fill-239" fill="#D4EAF2" points="32.935 57.68 62.572 57.68 62.572 39.649 32.935 39.649"></polygon>
            <polyline id="Fill-240" fill="#A6D6DD" points="62.571 57.681 62.571 39.649 32.935 57.681 62.571 57.681"></polyline>
            <path d="M64.427,49.63 C64.988,49.63 65.441,49.175 65.441,48.615 C65.441,48.054 64.988,47.601 64.427,47.601 C63.868,47.601 63.413,48.054 63.413,48.615 C63.413,49.175 63.868,49.63 64.427,49.63" id="Fill-241" fill="#FFFFFE"></path>
            <path d="M64.358,54.396 C64.583,54.396 64.765,54.214 64.765,53.991 L64.765,51.623 C64.765,51.399 64.583,51.217 64.358,51.217 C64.136,51.217 63.954,51.399 63.954,51.623 L63.954,53.991 C63.954,54.214 64.136,54.396 64.358,54.396" id="Fill-242" fill="#FFFFFE"></path>
            <path d="M64.358,46.113 C64.583,46.113 64.765,45.931 64.765,45.706 L64.765,43.339 C64.765,43.114 64.583,42.934 64.358,42.934 C64.136,42.934 63.954,43.114 63.954,43.339 L63.954,45.706 C63.954,45.931 64.136,46.113 64.358,46.113" id="Fill-243" fill="#FFFFFE"></path>
            <path d="M50.187,52.214 C50.06,52.55 49.685,52.719 49.347,52.592 C49.011,52.465 48.841,52.089 48.97,51.752 L49.368,50.698 C49.495,50.362 49.871,50.193 50.207,50.32 C50.544,50.447 50.714,50.823 50.585,51.159 L50.187,52.214" id="Fill-244" fill="#274152"></path>
            <path d="M50.98,51.043 C50.821,51.462 50.352,51.673 49.933,51.515 L49.622,51.397 C49.202,51.239 48.991,50.769 49.149,50.351 L57.031,29.531 C57.19,29.112 57.659,28.9 58.077,29.06 L58.389,29.177 C58.808,29.336 59.019,29.804 58.86,30.223 L50.98,51.043" id="Fill-245" fill="#C63D2B"></path>
            <path d="M50.815,49.526 C50.759,49.674 50.595,49.749 50.444,49.692 C50.296,49.636 50.222,49.47 50.278,49.323 L50.855,47.801 C50.91,47.653 51.075,47.579 51.225,47.635 C51.372,47.691 51.446,47.856 51.392,48.005 L50.815,49.526" id="Fill-246" fill="#EC9334"></path>
            <path d="M39.962,28.142 L38.571,28.978 C36.179,25 30.995,23.709 27.017,26.101 C23.037,28.494 21.747,33.677 24.14,37.656 L22.749,38.493 C19.895,33.747 21.434,27.564 26.18,24.71 C30.925,21.857 37.108,23.396 39.962,28.142" id="Fill-247" fill="#2BA8AF"></path>
            <path d="M27.852,43.524 C28.315,44.293 28.065,45.291 27.298,45.752 L25.964,46.555 C25.195,47.015 24.198,46.769 23.735,46 L19.797,39.449 C19.335,38.681 19.583,37.683 20.352,37.222 L21.686,36.419 C22.454,35.957 23.452,36.206 23.913,36.974 L27.852,43.524" id="Fill-248" fill="#274152"></path>
            <path d="M46.071,32.57 C46.532,33.337 46.286,34.335 45.517,34.796 L44.183,35.599 C43.415,36.06 42.417,35.812 41.955,35.044 L38.017,28.494 C37.554,27.725 37.803,26.728 38.569,26.266 L39.904,25.464 C40.673,25.002 41.669,25.25 42.132,26.018 L46.071,32.57" id="Fill-249" fill="#274152"></path>
            <path d="M14.53,44.179 C14.352,44.179 14.187,44.06 14.14,43.877 C14.081,43.661 14.21,43.439 14.427,43.381 L19.905,41.92 C20.122,41.863 20.343,41.992 20.401,42.208 C20.459,42.425 20.331,42.648 20.114,42.705 L14.636,44.165 L14.53,44.179" id="Fill-250" fill="#F3BA29"></path>
            <path d="M18.538,51.037 C18.435,51.037 18.332,50.998 18.253,50.919 C18.093,50.762 18.092,50.504 18.249,50.346 L22.235,46.315 C22.394,46.155 22.65,46.153 22.81,46.312 C22.97,46.469 22.971,46.726 22.814,46.885 L18.826,50.916 C18.747,50.996 18.643,51.037 18.538,51.037" id="Fill-251" fill="#F3BA29"></path>
            <path d="M14.532,48.496 C14.388,48.496 14.247,48.419 14.174,48.282 C14.067,48.084 14.142,47.839 14.339,47.732 L21.122,44.082 C21.319,43.975 21.565,44.048 21.672,44.246 C21.778,44.443 21.704,44.69 21.507,44.795 L14.724,48.447 L14.532,48.496" id="Fill-252" fill="#F3BA29"></path>
        </g>
        <g id="Group" transform="translate(88.000000, 1.000000)">
            <path d="M85.728,43.563 C85.728,44.732 85.678,45.883 85.588,47.032 C83.828,69.022 65.428,86.303 42.987,86.303 L42.958,86.303 C19.367,86.282 0.248,67.162 0.248,43.563 C0.248,19.952 19.388,0.822 42.987,0.822 C66.598,0.822 85.728,19.952 85.728,43.563" id="Fill-435" fill="#A4D4DA"></path>
            <g id="Group-438" transform="translate(11.000000, 23.000000)">
                <mask id="mask-5" fill="white">
                    <use xlink:href="#path-4"></use>
                </mask>
                <g id="Clip-437"></g>
                <path d="M31.987,63.303 L31.958,63.303 L5.478,36.753 L10.598,34.482 L0.348,24.893 L11.768,20.062 L13.367,18.412 L14.348,17.393 L15.048,16.683 L14.678,13.313 L13.428,11.732 L6.768,6.063 L6.428,0.732 L49.397,0.492 L51.298,0.812 L74.588,24.032 C72.828,46.022 54.428,63.303 31.987,63.303" id="Fill-436" fill="url(#linearGradient-6)" mask="url(#mask-5)"></path>
            </g>
            <path d="M72.166,53.532 L70.988,53.396 C71.096,52.455 71.139,49.746 70.064,48.521 C69.689,48.095 69.215,47.881 68.606,47.872 C65.724,47.82 64.183,47.429 63.457,46.559 C62.81,45.784 62.965,44.848 63.113,43.942 C63.246,43.122 63.386,42.276 62.952,41.49 C62.056,39.11 57.242,39.783 55.461,40.237 L55.167,39.089 C55.47,39.008 62.62,37.229 64.028,40.996 C64.622,42.063 64.434,43.211 64.283,44.133 C64.15,44.942 64.084,45.458 64.368,45.798 C64.826,46.345 66.258,46.644 68.628,46.686 C69.575,46.702 70.359,47.056 70.956,47.74 C72.598,49.612 72.185,53.373 72.166,53.532" id="Fill-439" fill="#2BA8AF"></path>
            <path d="M75.138,61.313 C75.138,62.621 74.075,63.686 72.765,63.686 L70.393,63.686 C69.081,63.686 68.018,62.621 68.018,61.313 L68.018,55.27 C68.018,53.957 69.081,52.896 70.393,52.896 L72.765,52.896 C74.075,52.896 75.138,53.957 75.138,55.27 L75.138,61.313" id="Fill-440" fill="#274152"></path>
            <path d="M72.465,55.883 C72.465,56.846 72.068,57.625 71.575,57.625 C71.086,57.625 70.686,56.846 70.686,55.883 C70.686,54.919 71.086,54.14 71.575,54.14 C72.068,54.14 72.465,54.919 72.465,55.883" id="Fill-441" fill="#FFFFFE"></path>
            <polyline id="Fill-442" fill="#274152" points="20.41 28.989 17.259 28.989 17.259 23.518 20.41 23.518 20.41 24.468 18.419 24.468 18.419 25.67 20.272 25.67 20.272 26.621 18.419 26.621 18.419 28.032 20.41 28.032 20.41 28.989"></polyline>
            <polygon id="Fill-443" fill="#274152" points="21.092 27.403 23.102 27.403 23.102 26.468 21.092 26.468"></polygon>
            <polyline id="Fill-444" fill="#274152" points="24.019 28.989 24.019 23.518 25.179 23.518 25.179 28.032 27.397 28.032 27.397 28.989 24.019 28.989"></polyline>
            <polyline id="Fill-445" fill="#274152" points="31.5 28.989 28.349 28.989 28.349 23.518 31.5 23.518 31.5 24.468 29.509 24.468 29.509 25.67 31.362 25.67 31.362 26.621 29.509 26.621 29.509 28.032 31.5 28.032 31.5 28.989"></polyline>
            <path d="M35.317,26.715 C34.951,25.534 34.744,24.867 34.699,24.712 C34.653,24.557 34.619,24.435 34.6,24.345 C34.517,24.665 34.28,25.455 33.893,26.715 L35.317,26.715 Z M35.992,28.989 L35.595,27.687 L33.6,27.687 L33.204,28.989 L31.953,28.989 L33.885,23.496 L35.304,23.496 L37.242,28.989 L35.992,28.989 Z" id="Fill-446" fill="#274152"></path>
            <path d="M39.09,25.946 L39.465,25.946 C39.832,25.946 40.103,25.886 40.277,25.764 C40.453,25.643 40.539,25.449 40.539,25.188 C40.539,24.928 40.45,24.743 40.271,24.634 C40.092,24.523 39.817,24.468 39.443,24.468 L39.09,24.468 L39.09,25.946 Z M39.09,26.89 L39.09,28.989 L37.931,28.989 L37.931,23.518 L39.524,23.518 C40.269,23.518 40.818,23.653 41.176,23.924 C41.531,24.194 41.711,24.606 41.711,25.156 C41.711,25.479 41.621,25.766 41.444,26.016 C41.269,26.267 41.017,26.463 40.693,26.605 C41.517,27.836 42.053,28.631 42.302,28.989 L41.015,28.989 L39.708,26.89 L39.09,26.89 Z" id="Fill-447" fill="#274152"></path>
            <path d="M47.845,28.989 L46.371,28.989 L43.99,24.85 L43.956,24.85 C44.004,25.582 44.027,26.104 44.027,26.414 L44.027,28.989 L42.99,28.989 L42.99,23.518 L44.453,23.518 L46.831,27.616 L46.856,27.616 C46.819,26.904 46.801,26.402 46.801,26.107 L46.801,23.518 L47.845,23.518 L47.845,28.989" id="Fill-448" fill="#274152"></path>
            <polygon id="Fill-449" fill="#274152" points="49.223 28.989 50.383 28.989 50.383 23.518 49.223 23.518"></polygon>
            <path d="M56.614,28.989 L55.14,28.989 L52.759,24.85 L52.726,24.85 C52.773,25.582 52.796,26.104 52.796,26.414 L52.796,28.989 L51.76,28.989 L51.76,23.518 L53.223,23.518 L55.6,27.616 L55.626,27.616 C55.59,26.904 55.57,26.402 55.57,26.107 L55.57,23.518 L56.614,23.518 L56.614,28.989" id="Fill-450" fill="#274152"></path>
            <path d="M60.069,25.917 L62.239,25.917 L62.239,28.754 C61.888,28.868 61.557,28.949 61.246,28.995 C60.935,29.043 60.619,29.064 60.293,29.064 C59.467,29.064 58.836,28.822 58.401,28.337 C57.966,27.852 57.748,27.155 57.748,26.247 C57.748,25.363 58.001,24.675 58.506,24.18 C59.012,23.687 59.712,23.439 60.607,23.439 C61.169,23.439 61.711,23.551 62.231,23.776 L61.847,24.704 C61.447,24.506 61.032,24.405 60.6,24.405 C60.099,24.405 59.696,24.573 59.396,24.91 C59.093,25.247 58.941,25.7 58.941,26.269 C58.941,26.862 59.063,27.317 59.308,27.629 C59.55,27.942 59.904,28.1 60.368,28.1 C60.611,28.1 60.855,28.074 61.105,28.024 L61.105,26.883 L60.069,26.883 L60.069,25.917" id="Fill-451" fill="#274152"></path>
            <path d="M22.404,31.933 C22.404,31.109 23.071,30.44 23.896,30.44 L59.456,30.44 C60.281,30.44 60.947,31.109 60.947,31.933 L60.947,35.041 C60.947,35.865 60.281,36.534 59.456,36.534 L23.896,36.534 C23.071,36.534 22.404,35.865 22.404,35.041 L22.404,31.933" id="Fill-452" fill="#C63D2B"></path>
            <polygon id="Fill-453" fill="#F2B02A" points="57.026 36.534 58.076 36.534 58.076 30.44 57.026 30.44"></polygon>
            <polygon id="Fill-454" fill="#F2B02A" points="55.295 36.534 56.344 36.534 56.344 30.44 55.295 30.44"></polygon>
            <polygon id="Fill-455" fill="#F2B02A" points="26.662 36.534 27.712 36.534 27.712 30.44 26.662 30.44"></polygon>
            <polygon id="Fill-456" fill="#F2B02A" points="24.93 36.534 25.979 36.534 25.979 30.44 24.93 30.44"></polygon>
            <polygon id="Fill-457" fill="#F2B02A" points="32.627 34.674 50.726 34.674 50.726 32.301 32.627 32.301"></polygon>
            <path d="M18.027,38.025 C18.027,37.201 18.695,36.534 19.52,36.534 L56.349,36.534 C57.172,36.534 57.84,37.201 57.84,38.025 L57.84,40.512 C57.84,41.336 57.172,42.005 56.349,42.005 L19.52,42.005 C18.695,42.005 18.027,41.336 18.027,40.512 L18.027,38.025" id="Fill-458" fill="#EC9334"></path>
            <polygon id="Fill-459" fill="#F2B02A" points="55.295 40.947 56.344 40.947 56.344 37.59 55.295 37.59"></polygon>
            <polygon id="Fill-460" fill="#F2B02A" points="53.309 40.947 54.359 40.947 54.359 37.59 53.309 37.59"></polygon>
            <polygon id="Fill-461" fill="#F2B02A" points="51.323 40.947 52.373 40.947 52.373 37.59 51.323 37.59"></polygon>
            <polygon id="Fill-462" fill="#F2B02A" points="24.406 40.947 25.455 40.947 25.455 37.59 24.406 37.59"></polygon>
            <polygon id="Fill-463" fill="#F2B02A" points="22.421 40.947 23.47 40.947 23.47 37.59 22.421 37.59"></polygon>
            <polygon id="Fill-464" fill="#F2B02A" points="20.436 40.947 21.483 40.947 21.483 37.59 20.436 37.59"></polygon>
            <path d="M28.187,40.947 L49.197,40.947 L49.197,37.59 L28.187,37.59 L28.187,40.947 Z M28.932,40.201 L48.451,40.201 L48.451,38.336 L28.932,38.336 L28.932,40.201 Z" id="Fill-465" fill="#F2B02A"></path>
            <path d="M10.842,43.496 C10.842,42.673 11.51,42.005 12.334,42.005 L51.251,42.005 C52.074,42.005 52.742,42.673 52.742,43.496 L52.742,46.977 C52.742,47.802 52.074,48.471 51.251,48.471 L12.334,48.471 C11.51,48.471 10.842,47.802 10.842,46.977 L10.842,43.496" id="Fill-466" fill="#274152"></path>
            <polygon id="Fill-467" fill="#C63D2B" points="42.422 46.792 51.323 46.792 51.323 43.683 42.422 43.683"></polygon>
            <polygon id="Fill-468" fill="#C63D2B" points="28.175 46.792 37.076 46.792 37.076 43.683 28.175 43.683"></polygon>
            <polygon id="Fill-469" fill="#C63D2B" points="12.583 46.792 21.483 46.792 21.483 43.683 12.583 43.683"></polygon>
            <path d="M22.404,49.96 C22.404,49.137 23.071,48.471 23.896,48.471 L61.444,48.471 C62.27,48.471 62.938,49.137 62.938,49.96 L62.938,55.309 C62.938,56.132 62.27,56.801 61.444,56.801 L23.896,56.801 C23.071,56.801 22.404,56.132 22.404,55.309 L22.404,49.96" id="Fill-470" fill="#F2B02A"></path>
            <path d="M61.446,56.801 L59.209,56.801 L59.209,48.469 L61.446,48.469 C62.267,48.469 62.938,49.141 62.938,49.96 L62.938,55.31 C62.938,56.131 62.267,56.801 61.446,56.801" id="Fill-471" fill="#C63D2B"></path>
            <path d="M23.287,56.801 L25.524,56.801 L25.524,48.469 L23.287,48.469 C22.466,48.469 21.794,49.141 21.794,49.96 L21.794,55.31 C21.794,56.131 22.466,56.801 23.287,56.801" id="Fill-472" fill="#C63D2B"></path>
            <path d="M27.188,51.608 C27.188,50.786 27.854,50.117 28.68,50.117 L56.06,50.117 C56.884,50.117 57.551,50.786 57.551,51.608 L57.551,53.659 C57.551,54.486 56.884,55.151 56.06,55.151 L28.68,55.151 C27.854,55.151 27.188,54.486 27.188,53.659 L27.188,51.608" id="Fill-473" fill="#C63D2B"></path>
            <polygon id="Fill-474" fill="#F2B02A" points="53.309 54.126 55.295 54.126 55.295 51.142 53.309 51.142"></polygon>
            <polygon id="Fill-475" fill="#F2B02A" points="29.806 54.126 31.792 54.126 31.792 51.142 29.806 51.142"></polygon>
            <path d="M16.021,58.292 C16.021,57.469 16.687,56.801 17.51,56.801 L52.867,56.801 C53.69,56.801 54.359,57.469 54.359,58.292 L54.359,58.79 C54.359,59.614 53.69,60.282 52.867,60.282 L17.51,60.282 C16.687,60.282 16.021,59.614 16.021,58.79 L16.021,58.292" id="Fill-476" fill="#2BA8AF"></path>
            <path d="M50.442,60.285 L50.442,56.801 L52.867,56.801 C53.687,56.801 54.359,57.473 54.359,58.292 L54.359,58.792 C54.359,59.612 53.687,60.285 52.867,60.285 L50.442,60.285" id="Fill-477" fill="#274152"></path>
            <path d="M19.935,60.283 L19.935,56.798 L17.51,56.798 C16.69,56.798 16.021,57.469 16.021,58.29 L16.021,58.791 C16.021,59.61 16.69,60.283 17.51,60.283 L19.935,60.283" id="Fill-478" fill="#274152"></path>
            <polygon id="Fill-479" fill="#274152" points="44.073 59.349 49.431 59.349 49.431 57.856 44.073 57.856"></polygon>
            <polygon id="Fill-480" fill="#274152" points="36.363 59.349 41.722 59.349 41.722 57.856 36.363 57.856"></polygon>
            <polygon id="Fill-481" fill="#274152" points="28.655 59.349 34.014 59.349 34.014 57.856 28.655 57.856"></polygon>
            <polygon id="Fill-482" fill="#274152" points="20.945 59.349 26.304 59.349 26.304 57.856 20.945 57.856"></polygon>
        </g>
        <g id="Group" transform="translate(43.000000, 79.000000)">
            <path d="M85.754,43.447 C85.754,44.367 85.724,45.287 85.664,46.197 C84.254,68.517 65.704,86.187 43.014,86.187 L42.684,86.187 C19.234,86.007 0.274,66.937 0.274,43.447 C0.274,19.837 19.414,0.697 43.014,0.697 C66.624,0.697 85.754,19.837 85.754,43.447" id="Fill-3" fill="#ECB62A"></path>
            <g id="Group-6" transform="translate(14.000000, 27.000000)">
                <mask id="mask-8" fill="white">
                    <use xlink:href="#path-7"></use>
                </mask>
                <g id="Clip-5"></g>
                <path d="M29.014,59.187 L28.684,59.187 L0.364,30.837 L52.614,0.148 L71.664,19.197 C70.254,41.517 51.704,59.187 29.014,59.187" id="Fill-4" fill="url(#linearGradient-9)" mask="url(#mask-8)"></path>
            </g>
            <path d="M66.819,54.62 C66.819,55.346 66.23,55.933 65.504,55.933 L20.53,55.933 C19.806,55.933 19.217,55.346 19.217,54.62 L19.217,27.64 C19.217,26.915 19.806,26.328 20.53,26.328 L65.504,26.328 C66.23,26.328 66.819,26.915 66.819,27.64 L66.819,54.62" id="Fill-7" fill="#274152"></path>
            <polygon id="Fill-8" fill="#FFFFFE" points="22.281 53.843 63.754 53.843 63.754 28.417 22.281 28.417"></polygon>
            <path d="M70.23,59.649 C69.542,60.56 68.129,60.553 67.404,60.553 L18.631,60.553 C17.906,60.553 16.922,60.692 15.806,59.649 L14.293,57.843 C13.929,57.423 13.916,56.938 15.604,56.938 L70.43,56.938 C72.105,56.938 72.105,57.437 71.743,57.843 L70.23,59.649" id="Fill-9" fill="#274152"></path>
            <path d="M61.033,50.613 C61.033,51.448 60.355,52.125 59.521,52.125 L25.96,52.125 C25.126,52.125 24.448,51.448 24.448,50.613 L24.448,31.517 C24.448,30.681 25.126,30.004 25.96,30.004 L59.521,30.004 C60.355,30.004 61.033,30.681 61.033,31.517 L61.033,50.613" id="Fill-10" fill="#A6D6DD"></path>
            <path d="M61.033,32.777 C61.033,33.612 60.355,34.29 59.521,34.29 L25.96,34.29 C25.126,34.29 24.448,33.612 24.448,32.777 L24.448,31.517 C24.448,30.681 25.126,30.004 25.96,30.004 L59.521,30.004 C60.355,30.004 61.033,30.681 61.033,31.517 L61.033,32.777" id="Fill-11" fill="#2BA8AF"></path>
            <path d="M28.229,32.059 C28.229,32.595 27.795,33.029 27.26,33.029 L25.994,33.029 C25.459,33.029 25.024,32.595 25.024,32.059 C25.024,31.523 25.459,31.089 25.994,31.089 L27.26,31.089 C27.795,31.089 28.229,31.523 28.229,32.059" id="Fill-12" fill="#F2B02A"></path>
            <path d="M31.832,32.059 C31.832,32.595 31.398,33.029 30.863,33.029 L29.597,33.029 C29.062,33.029 28.627,32.595 28.627,32.059 C28.627,31.523 29.062,31.089 29.597,31.089 L30.863,31.089 C31.398,31.089 31.832,31.523 31.832,32.059" id="Fill-13" fill="#E15B2E"></path>
            <path d="M35.545,32.059 C35.545,32.595 35.11,33.029 34.575,33.029 L33.31,33.029 C32.774,33.029 32.34,32.595 32.34,32.059 C32.34,31.523 32.774,31.089 33.31,31.089 L34.575,31.089 C35.11,31.089 35.545,31.523 35.545,32.059" id="Fill-14" fill="#D4EAF2"></path>
            <polygon id="Fill-15" fill="#D4EAF2" points="26.627 50.927 57.63 50.927 57.63 36.054 26.627 36.054"></polygon>
            <polygon id="Fill-16" fill="#274152" points="29.144 40.214 35.545 40.214 35.545 38.701 29.144 38.701"></polygon>
            <polygon id="Fill-17" fill="#274152" points="29.144 44.247 39.768 44.247 39.768 42.735 29.144 42.735"></polygon>
            <polygon id="Fill-18" fill="#274152" points="29.144 48.029 35.554 48.029 35.554 46.516 29.144 46.516"></polygon>
            <polygon id="Fill-19" fill="#274152" points="37.822 48.029 46.664 48.029 46.664 46.516 37.822 46.516"></polygon>
            <polygon id="Fill-20" fill="#274152" points="42.129 44.247 48.681 44.247 48.681 42.735 42.129 42.735"></polygon>
            <polygon id="Fill-21" fill="#274152" points="50.32 44.247 55.361 44.247 55.361 42.735 50.32 42.735"></polygon>
            <polygon id="Fill-22" fill="#274152" points="46.664 45.634 49.467 45.634 49.467 44.877 46.664 44.877"></polygon>
            <polygon id="Fill-23" fill="#274152" points="46.664 49.668 49.467 49.668 49.467 48.911 46.664 48.911"></polygon>
            <polygon id="Fill-24" fill="#274152" points="47.688 49.289 48.443 49.289 48.443 45.256 47.688 45.256"></polygon>
        </g>
        <g id="Group" transform="translate(177.000000, 0.000000)">
            <path d="M85,42.4955258 C85,43.8676001 84.9393432,45.2197892 84.8110691,46.5520932 C82.7626607,68.1274637 64.6054094,85 42.5004972,85 C40.8398942,85 39.189235,84.9005743 37.5783507,84.7206139 C16.4270423,82.2757366 0,64.2985811 0,42.4955258 C0,19.0310676 19.0332939,0 42.5004972,0 C65.9766498,0 85,19.0310676 85,42.4955258" id="Fill-58" fill="#E1602B"></path>
            <g id="Group-61" transform="translate(14.000000, 23.000000)">
                <mask id="mask-11" fill="white">
                    <use xlink:href="#path-10"></use>
                </mask>
                <g id="Clip-60"></g>
                <path d="M29.018,62.303 C27.348,62.303 25.688,62.203 24.068,62.022 L0.848,38.783 L48.287,0.522 L71.568,23.633 C69.508,45.333 51.248,62.303 29.018,62.303" id="Fill-59" fill="url(#linearGradient-12)" mask="url(#mask-11)"></path>
            </g>
            <path d="M61.9242207,23 L25.0767791,23 C24.4829009,23 24,23.474643 24,24.0605613 L24,45.8321024 C24,46.4170359 24.4829009,46.891679 25.0767791,46.891679 L39.8237541,46.891679 L39.8237541,48.6208764 L32.414274,48.6208764 C31.9303733,48.6208764 31.5384537,49.0088626 31.5384537,49.4864599 L31.5384537,50.1354013 C31.5384537,50.6120138 31.9303733,51 32.414274,51 L54.585726,51 C55.0726261,51 55.4645457,50.6120138 55.4645457,50.1354013 L55.4645457,49.4864599 C55.4645457,49.0088626 55.0726261,48.6208764 54.585726,48.6208764 L47.1772457,48.6208764 L47.1772457,46.891679 L61.9242207,46.891679 C62.5180989,46.891679 63,46.4170359 63,45.8321024 L63,24.0605613 C63,23.474643 62.5180989,23 61.9242207,23" id="Fill-62" fill="#2BA8AF"></path>
            <polygon id="Fill-63" fill="#D4EAF2" points="26 46 60 46 60 25 26 25"></polygon>
            <path d="M14.8550512,62 C14.3804631,62 14,61.6043059 14,61.1147875 L14,44.8831728 C14,44.3956941 14.3804631,44 14.8550512,44 L40.1409857,44 C40.6155737,44 41,44.3956941 41,44.8831728 L41,61.1147875 C41,61.6043059 40.6155737,62 40.1409857,62 L14.8550512,62" id="Fill-64" fill="#274152"></path>
            <polygon id="Fill-65" fill="#FFFFFE" points="17 60 39 60 39 46 17 46"></polygon>
            <path d="M16.000654,54 C15.4460432,54 15,53.5510471 15,53 C15,52.4463351 15.4460432,52 16.000654,52 C16.5500327,52 17,52.4463351 17,53 C17,53.5510471 16.5500327,54 16.000654,54" id="Fill-66" fill="#FFFFFE"></path>
            <path d="M16.305,57 C16.137,57 16,56.8864301 16,56.7461378 L16,55.2563674 C16,55.1152401 16.137,55 16.305,55 C16.475,55 16.612,55.1152401 16.612,55.2563674 L16.612,56.7461378 C16.612,56.8864301 16.475,57 16.305,57" id="Fill-67" fill="#FFFFFE"></path>
            <path d="M16.305,51 C16.137,51 16,50.8863826 16,50.7460317 L16,49.2556391 C16,49.1136174 16.137,49 16.305,49 C16.475,49 16.612,49.1136174 16.612,49.2556391 L16.612,50.7460317 C16.612,50.8863826 16.475,51 16.305,51" id="Fill-68" fill="#FFFFFE"></path>
            <path d="M30,51 C30,52.1063613 29.1053435,53 28,53 C26.8946565,53 26,52.1063613 26,51 C26,49.8956743 26.8946565,49 28,49 C29.1053435,49 30,49.8956743 30,51" id="Fill-69" fill="#F2B02A"></path>
            <path d="M32,59 L25,59 C25.3135532,55.5852674 26.7603341,53 28.4994959,53 C30.2376494,53 31.6854386,55.5852674 32,59" id="Fill-70" fill="#F2B02A"></path>
            <path d="M31.1833501,53 L30.7246147,52.5971248 C31.1611695,52.0543478 31.4031399,51.3632539 31.4031399,50.6521739 C31.4031399,48.9828191 30.1015411,47.6248247 28.5005041,47.6248247 C26.9024917,47.6248247 25.5988766,48.9828191 25.5988766,50.6521739 C25.5988766,51.2906732 25.7874118,51.9018233 26.1423016,52.4172511 L25.6553363,52.7822581 C25.225839,52.1584853 25,51.4232118 25,50.6521739 C25,48.6388499 26.5707907,47 28.5005041,47 C30.4312257,47 32,48.6388499 32,50.6521739 C32,51.5126227 31.7126602,52.3436185 31.1833501,53" id="Fill-71" fill="#2BA8AF"></path>
            <path d="M31,51.448 C30.7276044,51.665 30.4008918,51.787 30.0531009,51.775 C29.6631536,51.763 29.2894203,51.581 29,51.261 L29.1864613,51 C29.4272396,51.263 29.7377381,51.415 30.0603972,51.425 C30.3708958,51.436 30.6595055,51.319 30.8937981,51.113 L31,51.448" id="Fill-72" fill="#2BA8AF"></path>
            <path d="M28.4105567,51.0061145 C28.267761,50.9781145 28.1237017,51.0491145 28.0895824,51.1611145 L28.008707,51.4311145 C27.9707967,51.5451145 28.0605178,51.6581145 28.2033135,51.6841145 L29.5883046,51.9481145 C29.7285729,51.9751145 29.8764232,51.9061145 29.9080152,51.7931145 L29.9926816,51.5231145 C30.0268009,51.4101145 29.9383434,51.2971145 29.7955478,51.2691145 L28.4105567,51.0061145" id="Fill-73" fill="#2A5163"></path>
            <path d="M25.1426619,51.2707838 C25.05889,51.1021378 24.9174087,51 24.759173,51 L24.5208886,51.0914489 L24.2118636,51.3372922 C24.1104066,51.4204276 24.0378044,51.5463183 24.011742,51.6971496 C23.9847489,51.8467933 24.0042956,52 24.0703823,52.1306413 L24.8569068,53.7304038 C24.9406786,53.8990499 25.0830908,54 25.2394649,54 C25.3241675,54 25.4079393,53.9679335 25.4805416,53.912114 L25.787705,53.6638955 C25.8900928,53.5819477 25.9608335,53.4548694 25.9878266,53.3064133 C26.0157506,53.1555819 25.995273,53 25.9301171,52.871734 L25.1426619,51.2707838" id="Fill-74" fill="#2A5163"></path>
            <path d="M31.98856,51.6924703 C31.9615569,51.5413325 31.8907901,51.4151859 31.7883645,51.3318816 L31.4810878,51.0855388 C31.2762366,50.9189302 30.9847893,51.0046146 30.8572229,51.2652381 L30.0704083,52.8694414 C30.0042972,52.997968 29.9847432,53.1538661 30.0117464,53.3026238 C30.0368872,53.4537617 30.1104474,53.5810983 30.2100795,53.6632125 L30.5210808,53.9119354 L30.7594531,54 C30.9177471,54 31.0592807,53.8988448 31.1430834,53.729856 L31.9308292,52.1268428 C31.9941468,51.995936 32.0155631,51.8424181 31.98856,51.6924703" id="Fill-75" fill="#2A5163"></path>
            <path d="M70.1439894,44 C70.6165786,44 71,44.3956716 71,44.8851623 L71,61.1158575 C71,61.6043284 70.6165786,62 70.1439894,62 L44.8589828,62 C44.3844122,62 44,61.6043284 44,61.1158575 L44,44.8851623 C44,44.3956716 44.3844122,44 44.8589828,44 L70.1439894,44" id="Fill-76" fill="#274152"></path>
            <polygon id="Fill-77" fill="#FFFFFE" points="46 61 68 61 68 47 46 47"></polygon>
            <path d="M69.9986928,53 C70.5529412,53 71,53.4489529 71,54 C71,54.5536649 70.5529412,55 69.9986928,55 C69.4496732,55 69,54.5536649 69,54 C69,53.4489529 69.4496732,53 69.9986928,53" id="Fill-78" fill="#FFFFFE"></path>
            <path d="M70.305,49 C70.475,49 70.61,49.114405 70.61,49.2555324 L70.61,50.7444676 C70.61,50.8847599 70.475,51 70.305,51 C70.135,51 70,50.8847599 70,50.7444676 L70,49.2555324 C70,49.114405 70.135,49 70.305,49" id="Fill-79" fill="#FFFFFE"></path>
            <path d="M70.305,55 C70.475,55 70.61,55.1144528 70.61,55.2556391 L70.61,56.7451963 C70.61,56.8863826 70.475,57 70.305,57 C70.135,57 70,56.8863826 70,56.7451963 L70,55.2556391 C70,55.1144528 70.135,55 70.305,55" id="Fill-80" fill="#FFFFFE"></path>
            <path d="M60,51.000508 C60,52.1049022 59.1049022,53 57.99746,53 C56.8940818,53 56,52.1049022 56,51.000508 C56,49.8961138 56.8940818,49 57.99746,49 C59.1049022,49 60,49.8961138 60,51.000508" id="Fill-81" fill="#C63D2B"></path>
            <path d="M61,59 L54,59 C54.3120955,55.5842432 55.7618294,53 57.4974831,53 C59.2381706,53 60.6868977,55.5842432 61,59" id="Fill-82" fill="#C63D2B"></path>
            <path d="M60.1799626,53 L59.7221504,52.5977595 C60.1588328,52.0537371 60.4003162,51.3637318 60.4003162,50.6516716 C60.4003162,48.9817959 59.0993244,47.6238404 57.4974845,47.6238404 C55.8996694,47.6238404 54.5966652,48.9817959 54.5966652,50.6516716 C54.5966652,51.2912655 54.7858272,51.9004026 55.1410091,52.4171189 L54.6540175,52.7815508 C54.2253845,52.1577105 54,51.4225451 54,50.6516716 C54,48.6373184 55.5696421,47 57.4974845,47 C59.4293517,47 61,48.6373184 61,50.6516716 C61,51.5107649 60.7092137,52.3436023 60.1799626,53" id="Fill-83" fill="#2A5163"></path>
            <path d="M60,52.448 C59.7280453,52.666 59.402671,52.789 59.0546338,52.777 C58.6661271,52.764 58.29138,52.582 58,52.263 L58.1885876,52 C58.4305949,52.263 58.7405909,52.417 59.0643464,52.426 C59.3727236,52.437 59.6600567,52.32 59.8955888,52.113 L60,52.448" id="Fill-84" fill="#2A5163"></path>
            <path d="M57.412296,52.0057944 C57.2684667,51.9787944 57.1233757,52.0487944 57.0918342,52.1607944 L57.0073029,52.4307944 C56.973238,52.5447944 57.0615543,52.6587944 57.2053836,52.6847944 L58.5894257,52.9497944 C58.7319934,52.9757944 58.8758227,52.9067944 58.9098876,52.7947944 L58.9931572,52.5237944 C59.0259604,52.4107944 58.9376441,52.2967944 58.7963381,52.2687944 L57.412296,52.0057944" id="Fill-85" fill="#2BA8AF"></path>
            <path d="M55.1424896,51.2703557 C55.0588426,51.1007905 54.9175723,51 54.7614314,51 C54.6759257,51 54.5922788,51.0320158 54.5216436,51.0901186 L54.2130795,51.3367589 C54.1117738,51.4173913 54.0383504,51.5466403 54.0113975,51.6960474 C53.9844446,51.8454545 54.005821,51.998419 54.0699503,52.1300395 L54.8571607,53.7296443 C54.9408076,53.8980237 55.0839367,54 55.2400776,54 L55.4798654,53.9098814 L55.7884296,53.6632411 C55.8906647,53.5814229 55.9612998,53.4545455 55.9882527,53.3039526 C56.0152056,53.1545455 55.995688,52.9992095 55.9306293,52.8687747 L55.1424896,51.2703557" id="Fill-86" fill="#2BA8AF"></path>
            <path d="M60.988603,51.6922485 C60.9607217,51.5425951 60.8900893,51.4131329 60.7887875,51.3323676 L60.4802354,51.0853206 C60.2748437,50.9190389 59.984879,51.0045552 59.8575548,51.2658549 L59.0694457,52.8669095 C59.0062482,52.9975593 58.9839433,53.1531514 59.0118245,53.3028049 C59.0387763,53.4536461 59.1094087,53.579545 59.2116399,53.6626858 L59.5201921,53.9097328 C59.5926832,53.9679314 59.6744681,54 59.7590412,54 C59.9170347,54 60.059229,53.8978556 60.1428726,53.7291985 L60.9300524,52.1269562 C60.9941792,51.9951186 61.0155548,51.841902 60.988603,51.6922485" id="Fill-87" fill="#2BA8AF"></path>
            <path d="M46,31.0005145 C46,32.6571772 44.6563786,34 43,34 C41.3425926,34 40,32.6571772 40,31.0005145 C40,29.3438518 41.3425926,28 43,28 C44.6563786,28 46,29.3438518 46,31.0005145" id="Fill-88" fill="#274152"></path>
            <path d="M48,44 L38,44 C38.4475294,38.876672 40.5162606,35 42.9995146,35 C45.4837394,35 47.5524706,38.876672 48,44" id="Fill-89" fill="#274152"></path>
            <path d="M46.8323789,34 L46.1762593,33.4649019 C46.8003494,32.7407232 47.1429681,31.8189553 47.1429681,30.8697707 C47.1429681,28.6442921 45.2852567,26.8338454 42.9995147,26.8338454 C40.7128021,26.8338454 38.8531496,28.6442921 38.8531496,30.8697707 C38.8531496,31.7206334 39.1220033,32.5355708 39.6325342,33.2238242 L38.9366204,33.7107067 C38.3222362,32.8778067 38,31.8964784 38,30.8697707 C38,28.1848263 40.243036,26 42.9995147,26 C45.756964,26 48,28.1848263 48,30.8697707 C48,32.0146537 47.584587,33.1255022 46.8323789,34" id="Fill-90" fill="#EC9334"></path>
            <path d="M47,33.5772106 C46.4557377,33.8579923 45.8043716,34.0153343 45.1071038,33.9988177 C44.3300546,33.9840398 43.5803279,33.7484613 43,33.338155 L43.3759563,33 C43.8579235,33.3398936 44.4775956,33.5354845 45.1256831,33.5476546 C45.7431694,33.5615633 46.3191257,33.4120449 46.789071,33.1460412 L47,33.5772106" id="Fill-91" fill="#EC9334"></path>
            <path d="M43.4123568,32.0063603 C43.2675023,31.9773989 43.124352,32.0501556 43.0911207,32.167414 L43.0076163,32.4520835 C42.9726808,32.5707546 43.0612977,32.6894257 43.204448,32.7176807 L44.5890863,32.9938737 C44.7322366,33.0221287 44.876239,32.9500784 44.9103224,32.8307009 L44.9929746,32.5481506 C45.026206,32.4294794 44.9384412,32.3108083 44.7952909,32.2818469 L43.4123568,32.0063603" id="Fill-92" fill="#C63D2B"></path>
            <path d="M40,31.1752232 L40.7304258,31.3102679 C40.8489011,31.7131696 41.1950549,32 41.6061126,32 C42.0140797,32 42.362294,31.7064732 42.4807692,31.296875 L42.4993132,31.3169643 C42.4993132,31.3102679 42.7331731,30.9698661 43.0226648,30.9631696 L43.0288462,30.9631696 C43.1936813,30.9631696 43.356456,31.078125 43.5151099,31.3035714 C43.6263736,31.7064732 43.9745879,32 44.3887363,32 C44.8111264,32 45.1572802,31.6930804 45.2716346,31.2767857 L46,31.0301339 L45.9886676,30.7109375 L45.3025412,30.9229911 C45.2654533,30.4029018 44.8739698,30 44.3887363,30 C43.9416209,30 43.571772,30.3415179 43.4811126,30.7979911 C43.3379121,30.6908482 43.1875,30.6216518 43.0288462,30.6216518 L43.0226648,30.6216518 C42.8155907,30.6283482 42.6445742,30.7243304 42.5137363,30.8270089 C42.4364698,30.3549107 42.0583791,30 41.6061126,30 C41.106456,30 40.7046703,30.4241071 40.6861264,30.9631696 L40,30.8392857 L40,31.1752232" id="Fill-93" fill="#FFFFFE"></path>
            <path d="M38.7125672,32.3588785 C38.5873773,32.1345794 38.3746488,32 38.1393295,32 C38.0122571,32 37.8889498,32.0405874 37.780703,32.1185581 L37.3166534,32.4485981 C37.162284,32.5575434 37.0578023,32.7273698 37.0173274,32.9281709 C36.9768525,33.1279039 37.0079146,33.3329773 37.1039249,33.5070761 L38.2861687,35.6411215 C38.4113586,35.8654206 38.6240872,36 38.8594064,36 C38.9864788,36 39.1097861,35.9604806 39.2199155,35.88251 L39.6811412,35.55247 C39.833628,35.4445928 39.9409336,35.2747664 39.9832911,35.0739653 C40.0228247,34.8742323 39.9917626,34.6680908 39.8948111,34.493992 L38.7125672,32.3588785" id="Fill-94" fill="#C63D2B"></path>
            <path d="M48.9828309,32.9226903 C48.9423412,32.7226705 48.8349965,32.5526002 48.6824541,32.4434985 L48.2191769,32.1129845 C47.9122088,31.8926419 47.4781219,32.0060221 47.286973,32.3536501 L46.1042981,34.4918294 C46.0063696,34.6661782 45.9771793,34.8726158 46.017669,35.0715659 C46.0581587,35.273725 46.1626785,35.4427256 46.3161626,35.5507577 L46.781323,35.8834109 C46.8896093,35.9604239 47.0129615,36 47.1400802,36 C47.373602,36 47.5882914,35.8652273 47.7135269,35.6406062 L48.8962018,33.5034964 C48.9913055,33.3291476 49.0233206,33.1237797 48.9828309,32.9226903" id="Fill-95" fill="#C63D2B"></path>
            <path d="M43,35.5007246 C43,35.7768116 42.7759246,36 42.4996374,36 C42.2226251,36 42,35.7768116 42,35.5007246 C42,35.2253623 42.2226251,35 42.4996374,35 C42.7759246,35 43,35.2253623 43,35.5007246" id="Fill-96" fill="#FFFFFE"></path>
            <polyline id="Fill-97" fill="#FFFFFE" points="42.7373272 36 42 37.0664574 43.0414747 40 44 37.0664574 43.2304147 36 42.7373272 36"></polyline>
            <path d="M58,37.8552829 C58,36.2779169 56.4335025,35 54.5005076,35 C52.5664975,35 51,36.2779169 51,37.8552829 C51,39.4316475 52.5664975,40.7095643 54.5005076,40.7095643 C54.7461929,40.7095643 54.9857868,40.6885328 55.2182741,40.6494742 C55.5969543,41.6509765 55.8720812,43 55.8720812,43 L56.1756345,40.3610416 C57.2619289,39.8763145 58,38.9359039 58,37.8552829" id="Fill-98" fill="#FFFFFE"></path>
            <path d="M33.1693913,35 C31.0532174,35 29.3377391,36.2317246 29.3377391,37.7476934 C29.3377391,38.26934 29.5453913,38.7547906 29.896,39.1689141 L28,41 L31.1106087,40.0610362 C31.7053913,40.3346345 32.4107826,40.4943222 33.1693913,40.4943222 C35.2866087,40.4943222 37,39.2647268 37,37.7476934 C37,36.2317246 35.2866087,35 33.1693913,35" id="Fill-99" fill="#FFFFFE"></path>
        </g>
        <g id="Group" transform="translate(134.000000, 79.000000)">
            <path d="M85.703,43.553 C85.703,67.163 66.563,86.303 42.963,86.303 C41.184,86.303 39.423,86.192 37.703,85.982 C16.573,83.383 0.213,65.383 0.213,43.553 C0.213,19.953 19.354,0.812 42.963,0.812 C64.713,0.812 82.673,17.072 85.363,38.093 C85.583,39.883 85.703,41.703 85.703,43.553" id="Fill-100" fill="#ECB62A"></path>
            <g id="Group-103" transform="translate(14.000000, 24.000000)">
                <mask id="mask-14" fill="white">
                    <use xlink:href="#path-13"></use>
                </mask>
                <g id="Clip-102"></g>
                <path d="M28.963,62.303 C27.184,62.303 25.423,62.192 23.703,61.982 L0.523,38.833 L57.753,0.563 L71.363,14.093 C71.583,15.883 71.703,17.703 71.703,19.553 C71.703,43.163 52.563,62.303 28.963,62.303" id="Fill-101" fill="url(#linearGradient-15)" mask="url(#mask-14)"></path>
            </g>
            <path d="M72.092,61.766 C72.092,62.445 71.539,62.998 70.856,62.998 L48.146,62.998 C47.461,62.998 46.908,62.445 46.908,61.766 L46.908,25.352 C46.908,24.668 47.461,24.115 48.146,24.115 L70.856,24.115 C71.539,24.115 72.092,24.668 72.092,25.352 L72.092,61.766" id="Fill-104" fill="#2BA8AF"></path>
            <polygon id="Fill-105" fill="#FFFFFE" points="49.809 58.961 69.192 58.961 69.192 27.107 49.809 27.107"></polygon>
            <path d="M60.535,60.957 C60.535,61.559 60.049,62.045 59.445,62.045 C58.844,62.045 58.355,61.559 58.355,60.957 C58.355,60.354 58.844,59.865 59.445,59.865 C60.049,59.865 60.535,60.354 60.535,60.957" id="Fill-106" fill="#FFFFFE"></path>
            <path d="M65.662,60.881 C65.662,61.125 65.465,61.318 65.225,61.318 L62.68,61.318 C62.44,61.318 62.244,61.125 62.244,60.881 C62.244,60.643 62.44,60.445 62.68,60.445 L65.225,60.445 C65.465,60.445 65.662,60.643 65.662,60.881" id="Fill-107" fill="#FFFFFE"></path>
            <path d="M56.756,60.881 C56.756,61.125 56.561,61.318 56.32,61.318 L53.777,61.318 C53.533,61.318 53.342,61.125 53.342,60.881 C53.342,60.643 53.533,60.445 53.777,60.445 L56.32,60.445 C56.561,60.445 56.756,60.643 56.756,60.881" id="Fill-108" fill="#FFFFFE"></path>
            <path d="M68.617,39.115 C68.617,34.926 64.512,31.531 59.445,31.531 C54.381,31.531 50.275,34.926 50.275,39.115 C50.275,43.305 54.381,46.699 59.445,46.699 C60.092,46.699 60.719,46.645 61.326,46.539 C62.32,49.201 63.045,52.783 63.045,52.783 L63.842,45.771 C66.688,44.484 68.617,41.986 68.617,39.115" id="Fill-109" fill="#F2B02A"></path>
            <path d="M15.061,62.998 C14.379,62.998 13.826,62.443 13.826,61.762 L13.826,39.053 C13.826,38.369 14.379,37.814 15.061,37.814 L51.475,37.814 C52.156,37.814 52.711,38.369 52.711,39.053 L52.711,61.762 C52.711,62.443 52.156,62.998 51.475,62.998 L15.061,62.998" id="Fill-110" fill="#274152"></path>
            <polygon id="Fill-111" fill="#FFFFFE" points="17.863 60.096 49.717 60.096 49.717 40.717 17.863 40.717"></polygon>
            <path d="M15.869,51.441 C15.266,51.441 14.779,50.955 14.779,50.352 C14.779,49.748 15.266,49.262 15.869,49.262 C16.471,49.262 16.959,49.748 16.959,50.352 C16.959,50.955 16.471,51.441 15.869,51.441" id="Fill-112" fill="#FFFFFE"></path>
            <path d="M15.941,56.568 C15.701,56.568 15.506,56.371 15.506,56.131 L15.506,53.586 C15.506,53.346 15.701,53.15 15.941,53.15 C16.184,53.15 16.377,53.346 16.377,53.586 L16.377,56.131 C16.377,56.371 16.184,56.568 15.941,56.568" id="Fill-113" fill="#FFFFFE"></path>
            <path d="M15.941,47.662 C15.701,47.662 15.506,47.469 15.506,47.225 L15.506,44.682 C15.506,44.441 15.701,44.246 15.941,44.246 C16.184,44.246 16.377,44.441 16.377,44.682 L16.377,47.225 C16.377,47.469 16.184,47.662 15.941,47.662" id="Fill-114" fill="#FFFFFE"></path>
            <path d="M35.621,43.496 C30.688,43.496 26.691,46.309 26.691,49.775 C26.691,50.967 27.172,52.074 27.99,53.023 L23.572,57.207 L30.822,55.063 C32.209,55.686 33.854,56.051 35.621,56.051 C40.555,56.051 44.553,53.24 44.553,49.775 C44.553,46.309 40.555,43.496 35.621,43.496" id="Fill-115" fill="#C63D2B"></path>
            <path d="M34.322,53.916 C34.322,53.32 34.613,53.021 35.191,53.021 C35.477,53.021 35.695,53.1 35.844,53.254 C35.994,53.412 36.068,53.631 36.068,53.916 C36.068,54.195 35.992,54.418 35.84,54.58 C35.689,54.746 35.475,54.828 35.191,54.828 C34.914,54.828 34.697,54.748 34.547,54.586 C34.398,54.428 34.322,54.205 34.322,53.916 Z M34.564,52.027 L34.564,51.648 C34.564,51.215 34.645,50.854 34.803,50.564 C34.961,50.277 35.236,49.979 35.631,49.67 C36.102,49.301 36.404,49.012 36.541,48.807 C36.678,48.602 36.744,48.357 36.744,48.072 C36.744,47.74 36.635,47.486 36.414,47.309 C36.191,47.131 35.873,47.043 35.461,47.043 C35.086,47.043 34.736,47.096 34.416,47.201 C34.098,47.309 33.785,47.438 33.482,47.588 L32.984,46.545 C33.785,46.1 34.645,45.877 35.561,45.877 C36.332,45.877 36.947,46.066 37.4,46.443 C37.856,46.824 38.082,47.346 38.082,48.014 C38.082,48.311 38.039,48.572 37.951,48.805 C37.865,49.035 37.734,49.256 37.559,49.465 C37.383,49.674 37.08,49.945 36.648,50.281 C36.283,50.568 36.037,50.809 35.912,50.998 C35.787,51.186 35.725,51.441 35.725,51.76 L35.725,52.027 L34.564,52.027 Z" id="Fill-116" fill="#FFFFFE"></path>
            <path d="M59.973,40.773 L58.949,40.773 L58.643,34.781 L60.272,34.781 L59.973,40.773 Z M58.572,42.65 C58.572,42.359 58.648,42.139 58.801,41.988 C58.955,41.838 59.172,41.762 59.455,41.762 C59.732,41.762 59.947,41.84 60.098,41.998 C60.246,42.154 60.32,42.371 60.32,42.65 C60.32,42.93 60.244,43.15 60.094,43.313 C59.943,43.475 59.729,43.557 59.455,43.557 C59.176,43.557 58.959,43.479 58.805,43.322 C58.648,43.164 58.572,42.939 58.572,42.65 Z" id="Fill-117" fill="#FFFFFE"></path>
        </g>
    </g>
</svg>