<?xml version="1.0" encoding="UTF-8"?>
<svg width="184px" height="98px" viewBox="0 0 184 98" version="1.1" xmlns="http://www.w3.org/2000/svg" xmlns:xlink="http://www.w3.org/1999/xlink">
    <!-- Generator: Sketch 50.2 (55047) - http://www.bohemiancoding.com/sketch -->
    <title>world_map</title>
    <desc>Created with Sketch.</desc>
    <defs></defs>
    <g id="Page-1" stroke="none" stroke-width="1" fill="none" fill-rule="evenodd">
        <g id="world_map" fill-rule="nonzero" stroke="#ECD018" stroke-width="0.3">
            <path d="M46.757,10.304 C46.527,10.421 46.757,10.651 46.872,10.881 C46.987,11.227 46.757,11.917 46.412,11.917 C46.067,12.032 45.603,11.686 45.373,11.456 C44.912,11.341 44.452,11.227 44.107,10.996 L43.762,10.536 C43.302,10.189 42.382,10.651 41.922,10.189 C41.342,10.651 40.768,10.074 39.847,10.189 C39.502,10.304 39.041,10.651 38.352,10.421 L37.892,10.074 L37.892,9.729 C37.776,9.384 36.736,9.154 37.316,8.693 C36.622,8.579 36.161,8.348 36.047,7.656 L36.047,7.311 L35.816,7.081 C35.816,6.851 36.622,6.275 36.852,6.275 L37.316,6.275 C38.006,6.161 38.352,5.698 38.811,5.583 C39.272,5.468 39.962,5.698 40.307,5.583 C40.537,5.583 41.112,5.354 41.342,5.238 L41.691,4.893 C42.267,4.548 43.302,4.663 43.877,4.663 C44.107,4.893 43.992,5.468 43.762,5.468 C43.762,5.698 43.762,6.044 43.877,6.275 C44.107,6.391 44.337,6.391 44.567,6.391 C44.912,6.506 45.027,6.851 45.373,6.736 L45.718,6.161 L45.487,5.814 C45.487,5.468 45.952,5.583 46.067,5.468 C45.952,5.008 45.952,4.433 46.412,4.318 C46.872,4.203 47.103,4.548 47.332,4.778 L47.678,5.123 C47.907,5.468 47.793,5.929 48.138,6.161 C48.368,5.814 48.828,5.929 48.943,6.391 C49.748,6.391 49.979,6.044 50.327,5.814 C49.748,5.123 50.902,4.433 50.902,3.856 L51.248,3.626 C51.133,3.281 51.133,2.936 51.133,2.59 C51.593,1.553 52.974,1.208 54.933,1.323 C55.278,1.323 55.738,1.438 56.198,1.438 C56.544,1.323 57.004,0.978 57.464,0.978 C57.809,0.978 58.27,0.978 58.614,0.978 L59.078,0.863 C59.309,0.863 59.538,0.978 59.769,0.978 L60.229,0.863 C60.459,0.863 60.919,0.863 61.149,0.978 L61.494,1.093 C61.839,1.208 62.3,1.208 62.529,1.208 C62.76,1.323 62.989,1.553 63.339,1.668 C63.569,1.783 63.799,2.015 64.029,2.13 C64.259,2.245 64.604,2.245 64.604,2.706 C65.869,2.82 67.25,2.936 67.6,3.856 C68.52,4.088 68.979,3.281 69.9,3.395 C70.245,3.051 70.935,2.59 71.626,2.82 C72.32,2.59 73.355,2.13 74.621,2.36 C74.966,2.476 75.31,2.59 75.656,2.706 C76.235,2.82 76.58,2.936 76.81,3.395 C77.271,3.511 77.386,3.856 77.731,4.203 C78.076,4.548 78.651,4.663 78.651,5.354 C79.111,5.583 79.802,5.583 79.802,6.275 C80.266,6.275 80.956,6.621 80.956,7.081 C80.956,7.426 80.496,7.541 80.147,7.771 L79.916,8.116 L79.456,8.348 L79.341,8.693 L78.881,9.039 L78.766,9.384 C78.421,9.844 77.961,10.189 77.846,10.881 C77.731,11.227 77.731,11.341 77.731,11.686 L77.615,12.032 C77.501,12.724 78.19,12.839 77.846,13.529 C78.19,14.105 77.846,14.912 77.961,15.602 C77.501,15.947 77.386,16.522 76.926,16.869 C76.695,17.56 76.465,18.135 76.235,18.825 C76.005,19.632 75.886,20.438 75.31,21.013 C74.966,21.245 74.506,21.475 73.931,21.82 C73.471,22.165 72.896,22.28 72.32,22.395 L71.745,22.626 C71.396,22.626 71.165,22.626 70.82,22.74 C70.59,22.74 70.245,22.97 70.13,23.085 C69.785,23.317 69.555,23.778 69.21,24.008 C68.979,24.238 68.06,24.698 67.714,24.698 C67.365,24.813 67.02,24.698 66.79,24.813 C66.445,24.928 66.1,25.39 65.984,25.735 L65.869,26.195 C65.755,26.54 65.18,26.886 64.949,27.346 L64.834,27.693 L64.489,28.153 C64.259,28.498 64.374,29.189 63.799,29.304 C63.569,29.304 63.108,29.189 62.875,29.073 C62.76,28.843 62.76,28.613 62.529,28.498 L61.954,28.498 L61.264,27.808 C61.149,27.461 61.034,26.886 61.034,26.656 L60.689,26.195 C60.574,25.85 60.574,25.39 60.459,24.813 C60.459,24.353 60.229,24.008 60.229,23.663 C60.229,22.74 60.574,22.05 61.034,21.59 C60.804,21.36 61.034,21.013 61.034,20.783 L60.574,20.208 C60.344,19.632 60.574,19.057 60.804,18.595 C60.689,18.25 60.459,17.905 60.574,17.33 C60.689,17.099 60.919,16.869 61.034,16.637 L61.034,16.177 L61.149,15.717 C61.149,15.487 61.149,15.142 61.149,14.796 C61.149,14.335 61.264,13.989 61.149,13.529 C60.919,12.954 60.344,12.839 59.769,12.377 L59.309,12.494 C59.078,12.494 58.733,12.377 58.499,12.377 L58.039,12.494 C57.694,12.494 57.119,11.917 57.349,11.456 L57.004,10.996 C56.773,10.766 56.889,10.421 56.429,10.304 C56.083,10.304 55.394,10.766 54.703,10.881 L54.238,10.881 C54.009,10.996 53.894,11.227 53.663,11.227 L53.318,11.686 L53.088,11.571 C52.858,11.686 52.743,11.917 52.513,11.917 C52.858,12.609 52.168,13.299 51.133,13.299 C51.018,13.299 50.787,13.184 50.558,13.069 C49.979,12.954 49.173,12.954 48.713,12.839 L48.253,12.494 C47.793,12.377 47.332,12.262 47.218,11.917 C47.103,11.341 47.678,10.996 47.907,10.651 C48.138,9.729 46.987,9.729 46.757,10.304 L46.872,10.421 L46.757,10.421 L46.757,10.304 Z M166.161,89.297 C166.161,89.872 165.815,90.562 165.586,90.907 L164.551,91.482 C163.86,91.482 163.975,90.562 164.09,89.987 C164.09,89.412 163.975,89.067 164.32,88.833 C164.665,88.952 164.665,89.297 165.011,89.297 C165.355,89.412 165.815,89.067 166.161,89.297 Z M182.973,88.258 C183.317,88.258 183.317,88.143 183.667,88.143 C184.012,88.602 183.317,89.067 183.088,89.412 L182.742,89.527 C182.513,89.987 182.167,90.332 181.822,90.678 C181.477,91.023 181.132,91.368 180.557,91.138 C180.326,91.138 180.326,91.368 180.326,91.482 C179.981,91.943 179.291,92.173 179.058,92.633 L178.942,93.094 C177.792,93.094 177.677,94.018 177.102,94.593 C176.871,94.823 176.411,94.938 176.182,95.168 C175.951,95.398 175.721,95.858 174.916,95.628 L174.337,95.168 C174.337,95.053 174.451,94.938 174.451,94.708 C174.451,94.362 174.222,94.133 174.451,93.787 C174.682,93.442 175.376,93.094 175.951,92.748 C176.986,92.173 178.022,91.828 178.942,91.023 C179.176,90.793 179.291,90.332 179.522,90.332 L179.981,90.562 L180.672,90.678 C180.787,90.678 181.132,90.447 181.132,90.102 C181.132,89.757 180.557,89.757 180.672,89.297 C180.672,89.067 181.132,89.067 181.247,88.833 C181.477,88.718 181.707,88.027 181.592,87.683 C181.592,87.452 181.592,86.992 181.477,86.647 C181.362,86.302 181.247,85.842 181.362,85.497 L181.362,85.382 C181.707,85.611 182.167,85.842 182.167,86.302 L182.167,86.762 L182.513,87.223 C182.742,87.683 182.513,88.143 182.973,88.258 Z M113.08,70.41 C113.54,70.41 113.54,71.101 113.655,71.561 L113.655,72.141 L113.425,72.601 C113.194,72.945 113.194,73.405 113.08,73.751 C112.734,74.556 112.39,75.246 112.044,76.056 C111.815,76.516 111.699,76.976 111.469,77.206 L110.318,77.435 C109.97,77.435 109.625,77.091 109.51,76.86 C109.395,76.746 109.51,76.516 109.395,76.285 C109.395,76.056 109.279,75.821 109.279,75.592 C109.395,74.901 110.085,74.671 110.085,74.211 C110.085,73.865 109.854,73.636 109.854,73.176 C109.97,72.945 110.2,72.485 110.549,72.37 C110.779,72.255 111.009,72.255 111.239,72.141 C111.584,72.141 111.93,71.91 112.159,71.68 C112.39,71.331 112.619,70.756 112.965,70.525 L113.08,70.41 Z M160.405,70.525 L160.405,70.756 L160.635,70.525 L160.405,70.525 Z M171.806,78.356 C171.806,78.816 171.576,79.161 171.576,79.622 C171.576,79.852 171.69,80.197 171.69,80.431 C171.69,80.776 171.346,81.006 171.23,81.352 C170.886,82.156 170.886,82.731 170.307,83.307 L169.731,83.768 C169.271,84.227 169.156,84.691 168.695,85.267 C168.466,85.497 168.351,85.727 168.235,85.957 C168.235,86.186 168.12,86.647 168.006,86.762 C167.775,87.107 167.2,86.992 166.74,87.107 C166.275,87.337 166.046,87.798 165.586,87.798 C165.24,87.798 165.125,87.337 164.78,87.337 C164.435,87.337 164.32,87.567 163.975,87.567 C163.745,87.567 163.63,87.337 163.4,87.223 C163.17,87.107 162.94,87.107 162.71,86.992 C162.479,86.762 162.25,86.417 162.25,86.072 L162.364,85.611 C162.364,85.382 162.135,85.151 162.016,85.036 C161.556,85.036 161.095,85.497 160.865,85.151 C160.981,84.691 161.9,85.151 161.785,84.691 C161.67,84.457 161.325,84.922 161.095,84.572 C161.095,84.342 161.67,84.112 161.44,83.768 C160.865,83.768 160.865,84.342 160.405,84.342 C160.06,84.112 160.29,83.768 160.175,83.537 L159.944,83.077 L159.6,82.617 C159.484,82.502 159.14,82.502 158.909,82.387 L158.449,82.156 C157.41,81.927 156.72,82.502 155.799,82.502 C155.339,82.502 155.339,82.502 154.879,82.731 L154.419,82.847 C154.189,83.077 153.959,83.307 153.728,83.422 C153.384,83.537 152.919,83.422 152.459,83.422 C151.654,83.307 150.964,83.997 150.389,84.112 C149.698,84.227 148.889,83.652 148.889,83.307 C148.889,82.962 149.238,82.847 149.354,82.617 C149.583,82.156 149.468,81.236 149.468,80.546 C149.354,80.197 149.238,79.852 149.238,79.392 C149.123,79.047 148.659,78.586 148.659,78.356 L149.123,77.896 C148.889,77.435 149.354,77.091 149.354,76.746 C149.468,76.516 149.354,76.285 149.468,76.056 C149.698,75.94 150.043,75.821 150.389,75.706 C150.849,75.477 150.964,75.361 151.654,75.361 C151.999,75.246 152.344,75.016 152.805,74.901 C153.149,74.901 153.384,74.901 153.613,74.786 C154.074,74.671 154.534,74.096 154.534,73.52 C154.764,73.061 155.454,73.176 155.914,72.83 L156.029,72.485 C156.26,72.025 157.065,71.561 157.644,71.68 C157.989,71.68 158.219,72.255 158.565,72.141 C158.909,72.141 158.794,71.91 159.024,71.68 C159.14,71.331 159.6,71.101 159.83,70.756 L159.6,70.296 C159.715,70.181 160.06,70.296 160.29,70.296 L160.865,70.181 C161.21,70.181 161.67,70.641 162.135,70.641 C162.71,70.641 163.285,70.41 163.4,70.756 C163.515,71.101 163.17,71.216 163.055,71.446 L163.285,71.795 C162.364,72.025 162.71,72.485 163.285,72.83 C163.745,73.061 164.09,73.405 164.551,73.176 C164.78,73.405 164.665,73.751 165.011,73.751 C165.355,73.865 165.586,73.405 165.701,73.176 C165.815,72.601 165.931,72.37 165.931,71.795 C165.931,71.561 166.046,71.101 166.161,70.871 C166.161,70.525 166.394,70.296 166.51,70.065 L166.625,70.065 C166.97,70.296 166.97,70.525 167.085,70.871 C167.2,71.101 167.2,71.446 167.315,71.68 C167.545,72.025 168.006,71.91 168.12,72.37 C168.235,72.601 168.12,72.945 168.12,73.176 L168.351,73.636 C168.466,73.98 168.466,74.326 168.581,74.556 C168.695,74.786 169.386,75.016 169.731,75.361 C169.846,75.592 169.846,76.056 170.076,76.285 L170.655,76.746 L170.771,77.206 C170.886,77.666 171.346,78.126 171.806,78.356 Z M163.055,64.77 L163.055,65 L163.055,64.77 Z M160.635,64.654 C160.981,64.425 162.016,64.654 162.135,65 L162.135,65.575 C162.25,65.805 162.479,65.805 162.71,66.035 C163.055,65.92 163.285,65.689 163.17,65.345 L163.63,65.345 L164.09,65.115 C164.32,65.115 164.78,65.345 165.125,65.46 C165.471,65.575 165.815,65.575 166.046,65.689 C166.74,65.92 167.545,66.15 168.006,66.38 C168.351,66.495 168.81,66.726 168.926,67.186 C169.041,67.186 169.271,67.42 169.501,67.42 C169.731,67.42 169.846,67.186 170.076,67.186 C170.536,67.07 171,67.186 171.115,66.955 L171.576,67.07 C171.921,66.955 172.15,66.61 172.381,66.38 C172.381,66.035 171.806,66.15 171.806,65.805 C172.266,65.805 172.956,66.266 172.956,66.61 L172.496,66.955 C172.266,67.186 172.036,67.649 171.576,67.649 C171,67.765 170.536,67.649 170.076,67.534 C169.846,67.649 169.616,67.88 169.616,68.109 C169.616,68.34 170.536,69.26 170.886,69.26 L171.23,69.26 C171.806,69.26 171.806,69.95 171.23,69.95 C171,69.95 170.771,69.835 170.307,69.721 C170.076,69.721 169.846,69.721 169.731,69.721 C169.041,69.375 168.926,68.34 167.891,68.455 C167.315,68.455 167.315,69.145 166.97,69.26 L165.815,69.145 C165.471,69.03 165.24,68.685 165.125,68.685 C164.896,68.685 164.205,68.915 164.09,68.57 C163.975,68.34 164.435,68.109 164.435,67.995 L164.09,67.301 C163.86,66.955 163.055,66.955 162.479,66.726 L161.9,66.38 C161.67,66.38 161.67,66.61 161.44,66.61 C161.21,66.495 160.981,66.266 160.865,66.035 L160.865,65.689 C160.75,65.345 160.405,65.23 160.175,65.115 L160.175,64.425 L160.635,64.654 Z M156.949,63.734 C156.835,64.31 156.26,64.31 155.569,64.31 C154.994,64.194 154.189,64.194 154.074,64.539 C153.959,64.77 154.074,65 154.419,65 C154.648,65 154.648,64.885 154.764,64.77 C155.109,64.77 155.569,64.77 155.799,64.654 C156.029,64.77 156.145,65.23 155.799,65.345 C155.569,65.345 155.109,65.345 154.994,65.575 C155.225,65.805 155.225,66.035 155.339,66.266 L155.799,66.61 C156.029,67.42 155.225,67.42 154.879,67.186 C154.764,67.07 154.648,66.38 154.304,66.495 C153.959,66.495 154.304,67.301 154.189,67.534 C153.959,67.534 153.498,67.301 153.498,67.186 L153.498,66.61 C153.498,66.266 153.149,66.266 153.149,66.035 L153.384,65.46 L153.384,65 L153.613,64.654 L153.728,64.31 C153.844,64.079 154.304,63.734 154.534,63.734 C154.994,63.734 155.569,63.965 156.029,63.965 C156.489,63.85 156.489,63.389 156.949,63.734 Z M153.384,61.659 C153.265,62.005 152.69,62.234 152.574,62.695 L152.805,63.159 L152.805,63.389 L153.149,63.965 L152.805,64.079 C152.229,64.77 151.884,65.575 151.654,66.38 C151.424,66.495 151.193,66.61 150.964,66.61 C150.618,66.495 150.504,66.266 150.158,66.266 C149.929,66.15 149.814,66.266 149.583,66.266 C149.354,66.266 149.238,66.15 149.004,66.035 C148.659,66.035 148.544,66.035 148.429,65.92 L148.198,65.46 C148.084,65.23 147.623,64.77 147.623,64.31 C147.509,63.85 147.738,63.504 147.969,63.389 L148.544,63.619 C148.889,63.504 149.004,63.159 149.238,62.925 L149.698,62.81 C150.043,62.695 150.158,62.234 150.504,62.005 C150.849,61.774 151.309,61.659 151.539,61.314 C151.769,61.084 151.769,60.739 152.229,60.739 C152.574,60.97 152.919,61.43 153.384,61.659 Z M155.914,59.704 C156.26,60.049 156.604,59.589 156.72,59.358 C156.489,59.129 156.029,59.474 155.914,59.704 Z M154.648,54.523 C154.879,55.099 154.994,55.789 154.534,56.134 C154.764,56.824 155.569,56.824 156.145,57.054 L156.029,57.399 C156.26,57.859 157.065,57.629 157.065,58.319 L156.949,58.664 C156.949,58.898 157.295,59.014 157.41,59.244 C157.525,59.358 157.759,60.395 157.759,60.624 C157.644,60.97 157.18,61.199 157.065,61.43 C156.029,61.659 156.375,60.279 155.454,60.624 C155.225,60.739 155.339,60.97 154.994,60.97 L154.994,60.395 L155.685,59.819 C155.569,59.589 155.339,59.589 155.225,59.358 C155.225,59.129 154.994,58.898 154.879,58.783 C154.879,58.435 154.534,58.089 154.879,57.859 C155.109,57.859 155.109,57.975 155.225,58.204 C155.454,58.204 155.569,58.435 155.799,58.55 L156.145,58.319 L155.685,58.089 C155.454,57.975 155.454,57.284 154.879,57.399 C154.648,57.514 154.648,57.975 154.419,57.975 L153.728,57.284 L153.728,56.939 C153.728,56.594 153.265,56.363 153.384,55.903 C153.384,55.789 153.498,55.674 153.498,55.328 C153.613,54.983 153.613,54.638 153.844,54.523 C154.189,54.408 154.419,54.523 154.648,54.523 Z M164.09,36.789 L163.975,37.249 L164.09,37.594 C163.975,38.055 163.4,37.939 163.17,38.287 L162.94,38.747 C162.595,38.862 162.016,38.169 161.785,38.632 C161.9,39.322 162.71,39.897 162.94,40.472 C163.055,40.705 163.17,41.165 163.055,41.394 L162.824,41.855 L162.94,42.315 L162.94,42.892 C162.94,43.352 163.4,43.697 162.824,44.042 L162.479,44.042 C162.135,44.272 161.67,44.272 161.325,44.503 C160.981,44.618 160.981,44.965 160.635,45.195 C159.944,45.08 159.484,45.31 159.14,45.655 L158.794,45.655 C158.565,46 158.68,46.806 158.334,47.152 C157.989,46.922 157.759,46.575 157.525,46.115 L157.18,45.54 C157.295,45.31 157.525,45.195 157.759,44.965 L157.874,44.618 L158.794,43.812 C159.255,43.697 159.83,43.697 160.175,43.582 C160.52,43.237 160.29,42.662 160.52,42.43 L160.981,42.662 C161.325,42.545 161.44,42.2 161.21,41.97 L161.67,41.74 C161.67,41.394 161.785,41.165 161.785,40.819 L161.44,40.357 C161.44,40.127 161.67,39.782 161.556,39.552 L161.44,39.207 L160.865,38.747 C160.981,38.401 160.981,38.169 161.095,37.939 L161.44,37.594 L161.44,37.019 C161.44,36.789 160.981,36.214 161.44,36.214 C161.67,36.097 162.135,36.559 162.25,36.674 C162.479,36.904 162.824,37.134 163.055,37.134 C163.515,37.134 163.63,36.674 164.09,36.789 Z M75.426,24.928 C75.656,24.928 75.541,24.698 75.772,24.583 C76.235,24.468 76.58,24.583 77.04,24.583 C77.501,24.468 77.846,24.123 78.19,24.468 C78.421,25.043 78.996,25.39 78.536,25.965 C78.306,26.195 77.846,26.31 77.386,26.54 C76.695,26.886 76.351,27.116 75.541,27.001 C75.31,27.001 75.31,26.77 75.081,26.77 C74.735,26.656 74.391,26.77 74.391,26.54 L74.506,26.081 C74.506,25.85 74.16,25.85 73.931,25.62 C73.931,25.39 74.275,25.505 74.275,25.273 C74.16,25.158 73.815,25.273 73.815,25.043 C73.931,24.698 74.275,24.238 74.735,24.238 C75.081,24.353 75.081,24.698 75.426,24.928 Z M37.316,18.135 C37.197,18.48 37.661,18.595 37.892,18.825 C38.121,19.057 38.352,19.287 38.696,19.287 C39.041,19.402 39.272,19.172 39.617,19.402 C39.847,19.057 40.307,18.94 40.537,18.595 C40.422,18.365 40.191,18.25 39.962,18.135 C39.502,18.595 38.811,17.905 38.581,18.25 C38.352,17.905 37.431,17.674 37.316,18.135 Z M23.15,13.184 C23.726,13.299 24.42,13.069 24.88,13.069 C25.225,13.069 25.685,13.184 26.03,13.184 L26.26,13.069 C27.181,12.954 28.331,13.069 28.68,13.414 C29.025,13.529 29.141,13.874 29.255,14.105 C29.945,14.105 30.176,14.68 30.405,15.026 L30.865,15.257 L30.98,15.602 C31.211,15.947 31.901,16.407 32.246,16.522 L32.821,16.637 C33.171,16.752 33.516,17.33 33.171,17.56 L32.477,17.79 C32.361,18.135 33.285,18.365 33.86,18.365 C34.436,18.365 34.666,18.02 34.896,18.365 L35.472,18.02 C35.126,17.905 34.436,18.02 34.321,17.56 C33.516,17.674 33.285,17.099 33.631,16.752 C33.516,16.407 33.171,16.522 32.821,16.292 C32.246,15.832 32.706,14.796 33.746,15.142 C33.746,14.564 32.592,14.68 33.056,13.989 C32.592,13.644 31.901,13.759 31.326,13.529 L30.636,12.839 C30.291,11.917 31.326,11.686 31.901,11.227 L32.246,10.766 C32.592,10.536 33.056,10.304 33.171,10.074 C33.285,9.844 33.171,9.614 33.4,9.499 C33.516,9.384 33.86,9.499 34.091,9.499 L34.666,9.384 C35.011,9.499 35.126,9.844 35.586,9.959 L36.047,10.074 C36.507,10.304 36.392,10.766 36.507,11.227 C36.507,11.571 36.736,11.802 36.736,12.032 C37.197,12.146 37.892,12.146 38.236,12.494 C38.467,12.377 38.811,12.262 39.156,12.146 L39.731,11.802 C40.191,11.802 41.112,11.802 41.112,12.146 C41.342,12.724 40.307,12.954 40.077,13.299 C39.847,13.644 39.502,14.45 39.617,14.796 C39.617,14.912 39.962,15.142 40.077,15.372 C40.191,15.602 40.191,16.177 40.191,16.522 C40.307,16.984 40.307,17.56 40.191,17.905 C40.997,17.905 41.457,17.099 41.572,16.177 C41.572,15.717 41.691,15.026 41.572,14.564 C41.572,14.335 41.227,14.219 41.227,13.989 C41.112,13.644 41.227,13.184 41.691,13.184 C42.036,13.184 41.922,13.414 42.267,13.529 C42.497,13.414 42.267,13.069 42.267,12.954 C42.382,12.262 43.302,12.146 44.223,12.262 L44.452,12.609 C44.912,12.724 45.373,12.494 45.718,12.494 C46.182,12.494 46.412,12.724 46.757,12.839 C46.987,12.954 47.218,12.954 47.332,13.069 C46.643,13.989 45.603,14.68 44.567,15.257 C44.567,16.177 44.337,16.869 44.567,17.56 C44.912,17.56 45.027,17.33 45.143,17.214 C45.143,16.752 45.143,16.407 45.143,15.947 L45.487,15.487 L45.603,15.142 L46.067,14.912 C46.527,14.564 46.872,13.989 47.562,13.874 C47.793,13.644 49.173,13.299 49.403,13.759 L49.288,14.219 C49.748,14.335 49.979,14.105 50.442,13.989 C50.787,13.989 51.477,14.219 51.823,14.335 C52.053,14.45 52.283,14.45 52.513,14.68 L52.743,15.372 L52.628,15.832 L52.858,16.177 L53.088,16.752 C53.203,16.984 53.434,16.984 53.663,17.099 C54.009,17.33 54.009,17.674 54.238,18.02 C54.473,18.25 54.818,18.25 54.933,18.48 C55.048,18.71 55.163,19.057 55.278,19.287 C55.278,19.977 55.163,20.438 55.278,21.245 C55.508,21.475 55.854,21.59 55.854,21.935 C56.198,22.165 56.773,22.395 56.773,22.855 C56.773,23.085 56.544,23.201 56.198,23.433 C55.854,23.778 55.508,23.893 55.278,24.353 L54.933,24.238 C54.933,24.928 55.163,25.505 54.933,25.85 L54.354,26.425 C54.238,26.656 54.238,27.001 53.778,27.001 C54.009,27.346 53.318,27.576 53.434,27.116 C52.513,26.886 52.053,26.195 51.133,26.081 C50.787,25.735 50.902,25.505 50.673,25.158 C50.673,24.928 50.442,24.468 50.212,24.353 C49.633,24.123 48.138,24.698 48.138,23.893 C48.138,23.663 48.598,23.085 48.943,23.201 C49.403,22.74 49.979,22.51 50.212,21.82 C49.863,21.59 49.518,21.475 49.403,21.13 C49.173,20.783 49.633,20.208 49.403,19.977 C49.288,19.632 48.943,19.747 48.598,19.632 L48.253,19.977 L47.793,20.322 C47.678,20.553 47.907,20.898 47.793,21.013 C47.793,21.36 46.987,21.82 46.643,22.05 L46.297,22.165 L46.067,22.51 C45.833,22.51 45.833,22.28 45.603,22.28 C45.373,22.626 45.952,22.855 46.182,23.201 C46.297,23.433 46.297,23.663 46.412,23.893 C46.527,24.123 47.218,24.698 46.527,24.813 L46.067,24.698 C45.833,24.698 45.487,24.928 45.258,24.698 C44.683,24.928 43.417,25.158 43.532,24.238 C43.186,24.468 42.151,24.813 41.807,24.353 L41.457,24.813 L40.997,24.813 L40.537,25.273 L40.077,25.505 C39.731,25.735 39.617,25.965 39.387,26.195 C39.041,26.425 38.811,26.656 38.696,26.77 C38.467,27.001 38.121,27.808 38.236,28.038 L38.696,28.383 C38.927,28.613 38.696,29.419 39.041,29.648 L39.387,29.648 C39.731,29.881 40.191,29.881 40.537,30.226 L40.997,30.801 L41.691,31.146 C41.922,31.261 42.036,31.491 42.267,31.606 C42.611,31.606 43.186,31.491 43.302,31.836 C43.532,32.068 42.957,32.644 43.072,32.989 C43.186,33.219 43.417,33.104 43.648,33.449 L43.302,33.679 C43.186,33.909 43.532,34.486 43.762,34.601 L44.452,34.026 L44.452,33.449 L44.567,32.759 C44.567,32.298 44.107,31.954 44.337,31.376 C44.452,30.916 44.912,30.916 45.143,30.686 C45.373,30.341 45.373,29.996 45.718,29.766 C45.373,28.843 46.067,28.153 46.297,27.461 C46.067,27.231 46.182,26.77 46.182,26.425 L46.182,26.081 C46.412,25.273 48.713,25.158 49.518,25.62 L49.863,25.85 C50.212,26.195 50.558,26.54 50.673,27.116 L51.248,27.461 C51.248,27.693 51.477,27.923 51.477,28.268 C51.477,28.613 51.248,28.843 51.362,29.073 C51.823,29.189 51.938,29.073 52.283,28.843 L52.743,28.498 C53.088,28.268 53.203,28.038 53.663,28.038 C54.473,27.923 55.163,28.613 55.278,29.073 C55.278,29.648 55.278,30.571 55.048,31.031 C55.048,31.261 54.933,31.491 54.933,31.721 C55.048,31.954 55.623,32.068 55.394,32.529 C55.738,32.759 55.969,32.989 56.314,33.334 L56.773,33.909 C57.233,34.486 57.119,35.637 56.889,36.329 C57.349,36.559 57.924,36.674 58.154,37.019 C58.384,37.48 58.384,38.517 58.039,38.747 C57.464,39.207 55.163,38.747 54.933,38.401 L54.818,38.055 C54.473,38.055 54.238,37.824 54.009,37.71 C53.778,36.904 54.473,36.444 54.818,35.867 C54.124,35.867 53.894,36.559 52.974,36.559 L52.743,36.789 C52.283,36.674 51.823,36.559 51.248,36.559 C51.823,36.789 52.168,37.364 52.513,37.939 C53.203,38.055 54.009,38.169 53.894,38.747 C53.778,39.437 53.088,39.552 52.283,39.782 C52.053,39.897 51.708,40.012 51.477,40.127 C51.248,40.127 51.018,40.127 50.787,40.127 L50.212,40.357 C49.979,40.242 49.979,40.012 49.863,40.012 C49.173,40.012 48.482,40.127 48.138,40.357 C47.907,40.935 48.023,41.394 47.793,41.74 C47.332,42.2 46.412,42.43 45.718,42.777 C45.487,42.892 44.798,43.122 44.567,43.352 L44.223,43.928 L43.877,44.388 C43.762,44.618 43.877,44.965 43.877,45.195 C43.762,45.54 43.302,45.655 42.842,45.885 C42.611,46 42.267,46.23 42.036,46.345 L41.457,46.806 L40.997,47.038 C40.422,47.268 40.191,47.613 40.191,48.418 C40.307,48.648 40.537,48.993 40.537,49.338 L40.537,49.684 L40.768,50.148 C40.768,50.607 40.537,51.183 40.191,51.183 C39.731,51.183 39.156,50.028 39.041,49.568 L39.156,49.108 C39.156,48.878 38.811,48.763 38.696,48.533 C38.467,48.878 38.236,48.648 37.776,48.533 C37.316,48.418 36.622,48.648 36.161,48.763 C35.816,48.878 35.586,49.108 34.896,49.108 C34.666,48.993 34.436,48.763 34.206,48.648 L33.746,48.648 L33.285,48.533 C32.821,48.648 32.477,48.993 32.016,49.108 L31.671,49.224 C31.326,49.338 31.096,49.684 30.98,49.799 C30.865,50.148 30.98,50.378 30.98,50.723 C30.98,50.953 30.636,51.298 30.636,51.528 C30.636,51.758 30.636,51.988 30.751,52.333 C30.751,53.139 30.636,54.059 31.441,54.289 C31.671,54.408 32.477,54.523 32.94,54.408 C33.171,54.408 33.056,54.289 33.516,54.174 C33.86,53.599 35.126,52.448 36.276,52.794 C36.507,52.794 36.967,53.483 36.852,53.944 C36.736,54.174 36.392,54.408 36.161,54.523 C36.047,54.868 35.816,54.983 35.932,55.443 C36.852,55.443 37.776,55.674 38.236,56.019 C39.041,56.709 38.121,57.975 38.581,58.898 L39.156,59.474 C39.847,59.474 40.191,59.244 40.768,59.358 C40.997,59.129 41.112,58.898 41.457,58.898 C41.807,58.898 42.151,59.014 42.382,59.129 L42.842,58.664 C43.648,58.435 44.337,57.859 45.258,57.744 C45.718,57.744 46.297,57.629 46.872,57.744 C46.987,57.744 47.103,57.975 47.332,57.975 C48.023,57.975 49.058,57.284 49.979,57.514 C50.212,57.629 50.558,57.859 50.902,57.975 C51.708,58.204 52.513,58.55 53.088,59.129 C53.549,59.589 53.663,60.279 54.238,60.739 C54.933,60.854 55.623,61.084 56.083,61.545 L56.429,62.12 C56.773,62.58 57.233,62.925 57.349,63.504 C57.809,63.85 58.154,64.079 58.614,64.425 C58.963,64.539 59.424,64.539 59.769,64.77 L60.459,65 C60.919,65.115 61.379,65 61.839,65.115 C62.989,65.23 63.569,65.689 64.259,66.266 C64.72,66.266 64.949,66.38 65.295,66.38 C65.524,66.955 66.1,66.955 65.984,67.765 C65.869,68.109 65.869,68.57 65.755,68.8 L65.409,69.26 L65.295,69.835 C65.065,70.296 64.489,70.756 64.374,71.216 C64.259,71.68 64.259,72.141 64.145,72.601 C64.029,73.061 63.799,73.405 63.684,73.751 C63.569,73.98 63.684,74.211 63.569,74.441 C63.454,74.671 62.989,75.592 62.76,75.706 L62.3,75.821 L61.839,76.056 L61.379,76.171 C61.149,76.171 60.344,76.631 60.229,76.746 C59.884,77.091 59.769,77.551 59.538,77.896 C59.309,78.356 59.078,78.701 58.849,79.161 C58.614,79.736 58.499,80.197 58.154,80.661 L57.694,81.121 L57.349,81.236 C57.119,81.352 57.004,81.581 56.889,81.811 C56.658,82.156 56.314,82.271 55.969,82.617 C55.738,82.962 55.508,83.307 55.278,83.652 L55.048,84.112 C55.048,84.342 54.818,84.457 54.703,84.691 C54.473,85.036 54.473,85.382 54.238,85.611 L53.663,86.072 C53.088,86.417 52.398,86.877 51.823,87.223 C51.593,88.258 50.902,89.067 50.558,89.987 C51.362,90.793 51.362,92.288 51.248,93.787 C51.477,94.133 51.938,94.362 52.053,94.823 L52.053,95.283 C52.168,95.513 52.513,95.743 52.513,96.088 C52.513,96.663 52.053,97.009 51.248,97.009 C51.133,97.009 51.018,97.009 50.902,97.009 C50.212,96.894 48.943,96.549 48.253,96.318 C47.562,95.974 47.103,95.513 46.412,94.938 C45.952,94.362 45.718,93.902 45.373,93.327 C45.143,92.863 44.683,92.633 44.567,91.943 C44.567,91.482 44.798,91.138 44.798,90.562 C44.798,89.643 44.683,89.067 45.373,88.487 C45.143,88.027 44.912,87.452 44.798,86.647 C44.683,86.186 44.683,85.611 44.912,85.382 C44.912,84.342 45.027,83.422 45.027,82.387 C45.143,81.467 45.487,80.661 45.487,79.967 C45.603,78.701 45.487,77.321 45.373,76.171 C45.373,75.821 45.487,75.592 45.373,75.361 C45.373,75.131 44.912,74.556 44.798,74.211 C44.452,73.636 44.337,73.061 43.762,72.83 C43.532,72.715 43.302,72.601 43.072,72.485 C42.727,72.37 42.497,72.255 42.267,72.141 L41.457,71.446 C41.342,71.101 41.342,70.641 41.112,70.296 C40.997,70.065 40.768,69.835 40.652,69.49 C40.422,69.26 40.307,68.915 40.077,68.685 C39.731,68.225 39.272,67.88 39.041,67.42 L38.927,67.07 C38.811,66.84 38.581,66.61 38.581,66.15 C38.581,65.46 39.041,65.23 39.387,64.654 C39.617,64.079 39.962,63.389 40.307,62.925 C40.537,62.695 40.882,62.58 40.997,62.234 C41.112,61.659 40.882,61.43 40.652,60.97 C40.191,60.97 40.077,60.854 39.731,60.739 L39.387,60.509 C39.041,60.395 38.927,60.164 38.696,60.164 L38.121,60.164 C37.892,60.049 37.776,59.704 37.431,59.589 C37.082,59.358 36.967,59.474 36.736,59.244 C36.736,58.783 36.392,58.55 36.161,58.204 C35.701,57.859 35.701,57.859 35.011,57.629 C34.781,57.629 34.551,57.514 34.321,57.399 C34.091,57.399 33.86,57.399 33.631,57.284 C32.94,57.169 32.477,56.134 31.786,56.134 C31.441,56.134 31.211,56.363 30.865,56.363 C30.176,56.363 28.91,55.789 28.331,55.559 C28.101,55.443 27.871,55.328 27.641,55.213 L27.065,54.983 C26.95,54.983 26.721,54.753 26.49,54.638 C26.145,54.408 25.685,54.174 25.685,53.829 L25.915,53.254 L25.8,52.679 C25.685,52.448 25.455,52.219 25.34,51.988 L24.765,51.413 L24.649,51.183 C24.42,50.953 24.07,50.838 23.955,50.607 C24.07,50.028 23.61,49.913 23.38,49.568 C22.92,48.993 22.689,48.763 22.46,47.843 C22.345,47.613 22.115,47.152 21.77,47.268 C21.539,47.268 21.539,47.728 21.654,47.958 C21.77,48.303 22.115,48.648 22.345,48.993 L22.575,49.568 L23.035,50.148 L23.035,50.493 L23.266,50.953 L23.38,51.298 L23.726,51.758 C23.84,51.873 23.955,52.219 23.61,52.219 C23.495,52.219 23.15,51.873 22.92,51.758 L22.345,51.068 L22.345,50.607 C22.345,50.378 22,50.148 21.77,50.028 C21.539,49.913 21.079,49.799 21.079,49.453 L21.425,48.993 C21.539,48.533 20.504,48.188 20.619,47.498 C20.274,47.383 20.04,47.038 19.925,46.69 C19.58,46.575 19.465,46.575 19.234,46.345 C19.005,46.23 19.005,45.885 18.774,45.655 L18.199,45.31 C17.97,44.965 17.739,44.388 17.624,43.928 C17.395,43.122 17.049,42.315 17.164,41.28 C17.279,40.705 17.624,40.242 17.739,39.782 C17.855,39.552 17.855,39.207 17.855,38.977 C17.97,38.747 18.199,38.632 18.314,38.401 C18.659,37.71 18.774,37.019 19.005,36.444 C18.545,35.407 16.934,33.794 17.97,32.414 C17.855,31.954 17.279,31.721 17.049,31.376 L16.704,31.376 C16.704,31.146 16.358,30.916 16.358,30.686 C16.129,29.996 16.474,29.304 16.819,28.843 C16.474,28.498 16.589,28.268 16.589,27.808 C16.474,27.576 16.358,27.461 16.244,27.231 L16.244,26.77 C16.244,26.54 16.014,26.195 15.783,25.965 C15.55,25.39 14.975,25.043 14.629,24.583 L14.399,24.123 C14.284,24.008 13.594,23.433 13.249,23.317 C13.019,23.201 12.674,23.201 12.328,23.317 C11.753,23.433 11.408,23.778 10.829,23.547 L10.369,23.317 C9.908,23.201 9.564,23.663 9.333,23.201 C8.644,23.433 7.953,23.663 7.607,24.123 C6.568,24.123 6.108,25.043 5.303,25.273 L4.843,25.39 L4.383,25.735 C4.038,25.965 3.69,26.081 3.23,26.195 L3,26.54 C2.195,25.965 1.388,27.001 0.352,26.77 C0.122,26.31 0.237,25.62 0.928,25.62 C1.273,24.928 2.08,24.813 2.77,24.238 C3.115,24.008 3.69,23.663 3.806,23.317 C4.038,22.74 3.806,22.05 4.038,21.475 C3.69,21.36 3.46,20.898 3.46,20.553 L3.806,19.977 C3.806,19.747 3.69,19.517 3.69,19.287 L4.152,18.825 C4.498,18.365 4.728,17.674 5.073,17.214 C5.418,16.869 5.993,16.522 6.799,16.637 L6.799,16.292 C6.338,16.292 5.878,16.177 5.878,15.832 C5.763,15.602 6.108,15.257 6.108,14.912 L5.993,14.335 C6.224,14.105 6.913,13.989 7.378,13.874 C7.723,13.759 8.183,13.529 8.758,13.759 L8.644,14.219 C9.104,14.912 9.794,14.45 9.679,13.644 L9.448,13.184 C9.448,12.954 9.564,12.839 9.564,12.494 C9.564,12.032 9.219,11.571 9.219,11.341 C9.333,10.996 9.794,10.651 10.023,10.536 C10.254,10.536 10.599,10.766 10.829,10.766 C11.059,10.766 11.408,10.651 11.523,10.536 C12.213,10.189 12.903,9.499 13.479,9.384 C13.824,9.384 14.054,9.499 14.284,9.384 C14.514,9.384 14.744,9.039 14.975,9.039 C15.204,8.923 15.55,9.154 15.783,9.154 C16.129,9.154 16.474,8.809 16.704,8.809 C17.164,8.809 17.279,9.384 17.395,9.614 C17.855,9.729 18.084,10.074 18.314,10.421 C18.545,10.536 19.12,10.536 19.465,10.766 L20.04,11.111 C20.504,11.341 21.194,11.571 21.654,11.802 L22,12.032 C22.575,12.262 23.15,12.494 23.15,13.184 Z M109.395,56.363 L109.395,56.019 C109.279,55.674 108.704,55.328 108.475,54.868 L108.129,54.289 C107.784,53.944 107.439,53.829 107.209,53.599 C107.094,53.369 107.094,53.254 106.978,52.794 L106.634,52.103 L106.059,51.644 C105.709,51.298 105.594,50.953 105.249,50.493 C105.134,50.263 104.789,49.913 104.559,49.913 C103.754,49.913 104.329,50.838 104.559,51.183 C104.789,51.413 105.134,51.758 105.249,51.988 L105.249,52.448 C105.364,52.679 105.824,52.794 105.94,53.023 C106.174,53.254 106.174,53.483 106.288,53.714 C106.288,53.944 106.288,54.174 106.403,54.408 C106.519,54.753 107.094,54.983 107.209,55.328 C107.439,55.559 107.439,56.019 107.669,56.249 C107.899,56.479 108.244,56.594 108.589,56.824 C108.935,57.054 109.164,57.399 109.625,57.629 C109.854,57.284 109.395,56.824 109.395,56.363 Z M100.184,42.662 L100.413,42.662 C100.413,42.43 100.068,42.43 100.184,42.662 Z M89.822,43.812 C89.247,43.697 89.592,42.892 89.361,42.662 C89.477,42.43 89.707,42.085 89.477,41.74 C89.247,41.624 88.897,41.624 88.437,41.624 C87.978,41.855 87.747,42.2 87.402,42.43 L87.172,42.545 C86.941,42.777 86.597,43.237 86.366,43.467 C86.137,43.697 86.022,44.158 85.791,44.503 C85.446,44.85 84.986,44.965 84.871,45.425 C85.216,45.54 85.562,45.195 85.906,45.195 C86.022,45.08 86.252,45.08 86.597,45.08 L87.172,44.965 C87.517,44.965 87.747,44.965 88.092,44.965 L88.437,44.85 C88.897,44.85 89.247,44.965 89.592,44.965 C89.822,44.85 90.052,44.733 90.282,44.733 C90.627,44.733 90.857,44.965 91.087,45.08 C90.742,45.425 91.202,45.77 91.202,46 C91.202,46.23 90.857,46.23 90.857,46.575 C91.087,46.69 91.317,47.038 91.893,47.152 C92.353,47.268 92.928,47.152 93.392,47.383 C93.622,47.498 93.737,47.958 93.967,47.958 L94.428,48.073 C94.888,48.188 95.348,48.648 95.692,48.648 C96.268,48.533 95.923,47.958 96.038,47.613 C96.153,47.268 96.843,47.152 97.189,47.152 C97.652,47.152 97.883,47.383 98.228,47.498 L98.803,47.613 C99.263,47.728 99.724,47.843 100.299,47.958 C100.644,48.073 101.104,48.188 101.334,48.073 C101.679,48.073 102.028,47.843 102.604,47.843 C103.064,47.958 103.293,48.073 103.639,47.958 C104.214,47.958 104.329,47.152 104.559,46.806 C104.674,46.46 104.789,46.23 104.789,46.115 C104.789,45.54 104.559,45.08 104.214,45.08 C103.983,45.08 103.868,45.31 103.523,45.31 C102.833,45.54 102.604,44.965 102.143,45.08 C101.798,45.08 101.679,45.425 101.334,45.425 L100.759,45.195 C100.528,45.195 100.528,45.425 100.299,45.425 C100.068,45.31 100.068,44.965 99.838,44.733 C99.608,44.503 99.263,44.388 99.148,44.042 C99.033,43.812 99.148,43.467 99.148,43.237 L98.688,43.007 L98.688,42.662 C98.343,42.545 98.228,42.892 97.998,43.007 L97.537,43.237 C97.883,43.812 98.458,44.042 98.803,44.618 C98.458,44.618 98.343,44.503 98.112,44.503 C97.652,44.618 97.883,45.08 97.652,45.31 C97.073,45.31 96.958,44.85 96.613,44.618 C96.383,44.388 96.153,44.388 96.038,44.158 L96.153,43.812 L95.578,43.352 C95.348,42.892 95.463,42.43 95.232,41.97 C94.888,41.855 94.428,41.51 94.197,41.51 C93.392,41.165 93.622,41.855 93.967,42.085 C94.197,42.2 94.773,42.2 95.003,42.315 C95.808,42.892 95.117,44.042 94.542,44.158 C94.197,44.503 94.082,45.08 93.507,45.195 C92.698,45.31 91.893,44.85 91.662,44.388 C91.548,44.042 91.662,43.582 91.433,43.237 C90.857,43.122 90.397,42.662 90.167,42.315 C90.397,42.777 90.512,43.928 89.822,43.812 Z M101.449,39.092 C101.104,39.092 100.988,39.552 100.874,39.897 L100.413,40.357 L100.413,40.705 C100.299,40.935 100.068,41.165 100.068,41.394 C100.068,41.74 100.299,42.2 100.759,42.2 C100.988,42.315 101.449,42.315 101.679,42.2 C101.913,42.2 102.143,41.97 102.373,41.855 C102.718,41.74 103.179,41.624 103.754,41.74 C104.443,41.74 105.019,42.315 105.824,42.315 C106.059,42.315 106.519,42.315 106.749,42.315 C107.554,42.2 107.439,41.394 106.978,41.165 C106.863,41.049 106.634,40.935 106.288,40.819 C106.059,40.705 105.824,40.472 105.709,40.357 L105.019,40.127 L104.559,39.897 C103.983,39.782 103.523,40.357 102.948,40.242 L102.718,39.897 C102.488,39.667 102.258,39.667 102.373,39.322 C102.143,39.322 101.913,38.977 101.449,39.092 Z M104.904,38.517 C104.674,38.862 103.523,38.862 103.639,39.322 C103.639,39.552 104.329,39.552 104.674,39.552 C105.019,39.437 105.019,38.862 105.019,38.517 L104.904,38.517 Z M110.779,39.092 C110.434,39.322 110.085,39.552 110.085,39.897 C110.085,40.127 110.434,40.242 110.549,40.472 L110.664,41.049 C110.894,41.28 111.239,41.394 111.469,41.74 C111.815,41.97 111.93,42.315 112.274,42.545 C112.044,42.892 111.469,43.928 112.044,44.272 L112.505,44.388 C112.85,44.503 113.194,44.733 113.54,44.733 C113.885,44.85 114.345,44.733 114.575,44.503 C114.575,44.272 114.345,44.042 114.46,43.697 C114.23,43.352 113.655,43.007 113.54,42.545 L113.54,42.085 L113.31,41.624 L113.194,41.165 L112.619,40.819 L112.274,40.472 C111.93,40.012 111.93,40.127 112.159,39.667 C112.39,39.437 112.505,39.207 112.85,39.207 C113.08,39.092 113.194,38.632 112.965,38.517 C111.815,38.169 111.469,38.632 110.779,39.092 Z M95.348,25.158 C94.888,25.273 95.117,25.735 95.003,26.195 C94.773,27.001 93.392,27.346 93.277,28.153 L93.277,28.958 C93.392,29.304 93.967,29.419 94.082,29.766 C94.428,30.571 93.507,30.571 93.392,30.916 C93.043,31.491 93.622,32.068 93.392,32.759 C93.622,32.873 94.082,32.989 94.657,32.989 L94.888,32.529 L95.232,32.068 C95.348,31.836 95.232,31.606 95.232,31.376 C95.348,31.146 95.463,30.801 95.692,30.571 L96.268,30.341 C96.613,30.226 96.958,30.111 97.304,29.881 L97.304,29.648 C96.843,29.419 96.728,29.881 96.268,29.766 C96.038,29.766 95.232,29.419 95.232,29.073 C95.117,28.958 95.232,28.729 95.232,28.498 C95.117,28.038 94.773,27.346 94.888,27.116 L95.348,26.886 C95.692,26.656 95.808,26.425 96.038,26.081 C96.268,25.85 96.498,25.505 96.498,25.273 C96.383,24.928 95.578,24.928 95.348,25.158 Z M131.852,10.189 C132.887,10.189 134.152,9.959 134.842,10.304 L135.303,10.651 L135.992,10.766 L136.457,10.304 L137.032,9.959 C137.492,9.729 138.412,9.844 138.758,9.959 C139.218,10.074 139.562,10.421 140.022,10.651 C140.253,10.651 140.483,10.651 140.717,10.651 C141.063,10.766 141.522,10.996 142.098,10.881 L142.673,10.651 L142.903,10.304 C143.363,9.844 144.283,9.499 144.743,9.039 C146.358,8.923 147.854,8.463 149.698,8.693 C150.043,8.693 150.389,9.039 150.849,9.039 C151.079,9.039 151.424,9.039 151.769,9.039 C152.919,8.923 154.419,8.809 155.339,9.154 C155.569,9.269 155.799,9.499 156.029,9.499 C157.18,9.729 157.644,9.154 158.334,8.809 C158.909,8.579 159.484,8.463 160.29,8.463 L160.635,8.348 C161.44,8.463 162.016,7.886 162.824,7.886 C163.17,7.886 163.515,7.886 163.86,7.886 C164.32,7.886 164.665,8.116 165.125,8.116 C165.586,8.116 166.161,8.116 166.625,8.001 L167.2,7.886 C167.775,7.771 168.466,7.771 168.81,8.001 L169.386,8.116 C169.731,8.233 170.076,8.001 170.421,8.001 C170.771,8.001 171.346,8.233 171.69,8.348 C172.15,8.579 172.496,9.154 172.496,9.959 C172.727,10.189 172.956,10.536 172.956,10.766 L172.727,11.227 L172.841,11.571 C172.727,11.802 172.266,11.686 171.921,11.802 C171.346,11.802 170.421,12.262 169.961,12.377 C170.076,12.724 170.191,13.414 169.961,13.874 L169.731,14.45 C170.191,14.564 170.421,15.026 170.771,15.372 C171.23,15.717 172.15,15.947 171.921,16.752 C171.115,16.869 170.655,16.984 170.307,17.56 C170.076,18.135 169.846,18.48 169.731,19.172 C169.616,19.632 169.501,19.977 169.616,20.438 L169.156,20.438 C168.81,20.898 167.891,20.898 167.66,21.36 L167.431,21.935 C167.66,22.165 167.431,22.28 167.431,22.51 C167.431,22.855 167.891,23.201 167.545,23.547 C167.66,23.893 168.006,24.123 168.235,24.353 C168.695,24.813 169.041,25.273 168.926,26.31 C168.926,26.54 168.695,26.886 168.695,27.231 C168.466,28.153 168.581,29.073 168.351,29.648 C168.235,29.881 167.891,29.996 167.775,30.111 C167.545,30.341 167.66,30.571 167.431,30.801 C167.431,31.146 167.315,31.606 166.97,31.606 C166.74,31.261 166.97,30.801 167.315,30.686 L166.97,30.226 L166.51,30.111 C166.046,29.766 166.161,29.304 166.046,28.843 C165.931,28.613 165.586,28.268 165.471,28.038 C164.896,27.231 164.551,26.425 164.205,25.39 C164.09,24.928 163.745,24.468 163.86,23.778 C163.975,23.317 164.435,22.855 164.435,22.395 C164.435,22.165 163.975,21.935 163.86,21.705 L163.745,21.245 C162.824,21.36 162.364,21.935 161.9,22.395 L162.25,22.855 C162.25,23.085 161.9,23.085 161.67,23.201 C161.21,23.433 160.981,23.663 160.405,23.778 L160.06,24.008 C159.484,24.123 158.68,24.008 158.104,24.008 C157.759,24.008 157.41,23.893 157.065,23.893 C156.72,23.893 156.145,24.123 156.029,24.353 L156.029,24.813 L155.799,25.273 L155.799,25.62 C155.799,26.081 155.454,26.425 155.339,26.886 L155.225,27.461 C155.109,27.693 154.994,28.038 154.879,28.153 C154.764,28.383 154.419,28.613 154.764,28.843 C155.109,28.729 155.225,28.268 155.799,28.383 C156.029,28.613 155.914,29.189 156.26,29.304 C156.489,29.304 156.489,29.073 156.72,28.958 C157.18,28.843 157.644,29.189 157.874,29.419 C158.104,29.419 158.334,29.189 158.565,29.304 C158.565,29.073 158.219,28.843 158.449,28.729 C158.794,28.613 158.909,28.843 159.024,29.073 C159.255,29.304 159.484,29.534 159.6,29.881 L160.175,30.226 L160.405,30.571 L160.981,31.031 C161.21,31.376 161.21,31.721 161.44,31.954 L161.785,32.184 C162.016,32.414 162.25,32.989 162.135,33.219 C162.135,33.449 161.67,33.449 161.44,33.794 C161.67,34.256 162.479,34.486 162.479,35.177 C162.479,35.637 161.67,35.752 161.095,35.637 C160.865,35.521 160.981,35.291 160.865,34.946 C160.75,34.716 160.29,34.486 160.175,34.026 L160.175,33.449 C160.06,32.759 159.83,32.414 159.6,31.836 C159.484,31.606 159.484,31.261 159.024,31.146 C158.794,31.491 158.909,31.836 159.024,32.068 C159.024,32.414 159.255,32.529 159.369,32.759 C159.484,33.104 159.6,33.564 159.6,33.909 L159.369,34.371 C159.255,34.831 159.255,35.521 159.024,35.982 C159.024,36.214 158.794,36.444 158.68,36.674 C158.449,37.48 158.104,38.517 157.18,38.632 C156.949,39.207 156.835,39.667 156.835,40.357 C157.18,40.589 157.18,40.819 157.295,41.28 C157.41,41.624 157.874,41.855 157.874,42.085 C157.989,42.545 157.874,43.928 157.759,44.158 C157.525,44.618 156.949,44.85 156.26,44.85 C155.914,44.85 155.685,44.618 155.339,44.733 L155.109,44.503 C154.304,44.272 153.959,43.697 153.498,43.122 C153.265,42.777 152.919,42.545 152.805,42.2 C152.69,41.97 152.69,41.74 152.344,41.624 C151.999,41.624 152.114,41.97 151.654,41.97 L151.654,41.51 C151.193,41.624 150.849,41.28 150.618,41.394 L150.273,41.855 L149.698,42.085 C149.929,42.545 150.504,42.662 150.733,43.007 C151.079,43.007 151.193,42.662 151.539,42.662 L151.999,42.777 C152.459,42.777 152.805,42.662 152.805,43.007 C152.805,43.352 152.459,43.352 152.114,43.467 C151.884,43.582 151.193,44.158 151.309,44.503 C151.309,44.85 151.654,44.85 151.999,45.08 C152.229,45.31 152.229,45.655 152.459,45.885 C152.69,46.115 153.034,46.345 153.149,46.46 C153.265,46.806 153.149,47.038 153.034,47.498 L153.498,47.843 C153.384,48.188 153.498,48.418 153.384,48.763 L153.034,49.108 L152.919,49.568 L152.574,50.028 L152.574,50.493 L152.114,51.183 C151.769,51.528 151.193,51.988 150.733,52.219 C150.273,52.333 149.814,52.333 149.468,52.448 C149.238,52.563 149.123,52.794 148.773,52.794 C148.544,53.023 147.969,53.023 147.969,53.369 C147.854,53.599 148.198,53.714 148.198,53.944 C148.198,54.289 147.738,54.753 147.394,54.753 C147.049,54.753 146.818,54.523 146.818,54.174 C146.934,53.829 147.278,53.829 147.278,53.599 C147.394,52.794 146.128,53.023 145.783,53.369 C145.553,53.599 145.322,54.059 145.322,54.289 L145.783,55.099 C146.128,55.443 146.703,55.559 147.049,56.019 C147.278,56.249 147.738,57.169 147.738,57.629 C147.738,58.55 147.049,58.783 146.473,59.129 C145.898,59.358 145.783,59.819 145.208,59.934 L145.093,59.358 L144.514,59.014 C143.939,58.664 143.823,57.975 142.903,57.859 L142.442,57.514 C142.328,57.629 142.328,57.859 142.328,58.089 C142.098,58.783 141.638,59.358 142.442,59.589 C142.558,59.934 142.673,60.164 142.903,60.509 C143.248,61.084 144.283,61.199 144.514,61.89 C144.514,62.12 144.514,62.465 144.514,62.695 C144.629,62.925 144.862,63.159 144.978,63.274 C145.093,63.504 145.208,63.734 145.208,63.965 C144.743,64.079 144.514,63.619 144.054,63.619 C144.283,63.965 144.743,64.194 144.862,64.77 C145.093,64.885 145.093,64.425 145.322,64.539 C145.322,64.77 144.978,65.23 145.437,65.345 C145.668,65.46 145.668,65.23 145.783,65.23 C146.128,65.345 146.358,65.689 146.358,65.92 C146.358,66.035 146.128,66.15 146.013,66.38 C145.898,66.726 145.898,67.07 146.013,67.301 C146.358,67.534 146.818,67.42 147.163,67.534 C147.509,67.765 147.509,67.995 148.084,67.88 C148.314,67.88 148.429,67.765 148.659,67.649 C149.123,67.649 149.583,68.109 150.158,67.995 C150.389,68.34 150.504,68.455 151.079,68.57 C151.309,68.685 151.654,68.8 152.114,68.685 L152.69,68.57 C152.919,68.57 153.149,68.685 153.384,68.8 C153.613,68.8 153.844,68.685 154.074,68.685 C154.304,68.685 154.648,68.8 154.879,68.8 L155.454,68.57 L155.914,68.685 L156.489,68.685 L156.949,68.915 C157.295,68.915 157.525,68.685 157.759,68.8 C157.874,69.26 157.295,69.26 157.065,69.26 C156.489,69.49 156.029,70.065 155.454,70.065 C155.454,69.49 156.029,69.26 156.375,69.03 C156.145,68.915 155.799,68.915 155.569,68.915 C155.109,68.915 154.419,69.145 153.959,69.145 C153.728,69.375 154.304,69.375 154.189,69.605 C153.844,69.95 153.149,69.49 153.034,69.145 C152.805,69.03 152.459,69.145 152.229,69.145 C151.769,69.145 151.309,68.915 150.849,68.915 L150.389,68.915 L149.814,68.8 C149.354,68.685 148.889,68.8 148.544,68.8 L147.969,68.57 C147.623,68.455 147.394,68.57 147.049,68.455 C146.473,68.455 146.013,68.225 145.668,67.88 L145.668,67.534 L145.093,67.42 C144.862,67.42 144.283,66.955 144.054,66.726 C143.593,66.495 143.133,66.035 142.903,65.689 C142.788,65.46 142.673,65.115 142.442,64.77 C142.328,64.539 142.098,64.425 141.982,64.194 L141.753,63.734 C141.638,63.619 141.407,63.389 141.178,63.159 L140.603,62.58 L140.022,62.12 C139.908,62.005 139.562,61.774 139.793,61.545 C139.908,61.43 140.253,61.545 140.483,61.659 L141.063,61.659 C141.292,61.774 141.522,62.12 141.753,62.35 L142.213,62.58 C142.558,62.81 142.788,63.159 143.363,63.274 C143.479,62.81 142.903,62.695 142.788,62.35 L142.673,62.005 L142.558,61.659 L142.558,61.314 L141.867,60.509 C141.753,60.279 141.407,60.279 141.292,60.049 L141.407,59.474 L141.407,58.898 C141.407,58.55 141.522,58.089 141.407,57.629 L141.063,57.284 C140.832,56.709 140.832,55.789 140.368,55.789 C139.793,55.674 139.562,56.363 138.987,56.134 L138.758,56.019 C138.758,55.559 138.872,55.213 138.758,54.868 L138.067,54.523 C138.183,53.944 137.837,53.944 137.492,53.714 C137.147,53.369 137.147,52.794 136.802,52.679 C136.572,52.679 136.227,52.908 135.992,53.023 C135.648,53.139 134.957,53.023 134.612,53.139 C134.382,53.254 134.497,53.599 134.267,53.829 C134.037,54.059 133.807,54.174 133.577,54.289 C133.347,54.408 133.231,54.753 133.002,54.983 L132.311,55.443 L131.966,55.903 C131.617,56.134 131.157,56.249 130.927,56.479 C130.811,56.939 131.042,57.284 131.042,57.629 C131.042,58.089 130.696,58.435 130.927,59.014 C130.696,59.129 130.582,59.358 130.352,59.589 C130.236,59.819 129.776,60.279 129.546,60.279 C128.856,60.279 128.741,59.129 128.397,58.664 C128.281,58.435 128.051,58.204 127.935,58.089 C127.82,57.744 127.706,57.399 127.472,57.054 C127.356,56.709 127.012,56.479 126.897,56.134 L126.781,55.674 C126.666,55.099 126.321,54.523 126.321,54.059 C126.206,53.829 126.321,53.369 126.091,53.369 C125.746,53.369 125.631,53.714 125.286,53.714 C124.94,53.714 124.251,53.254 124.136,52.908 L124.021,52.563 C123.905,52.219 123.445,52.219 123.096,51.988 C122.751,51.644 122.636,51.183 122.291,51.183 C121.945,51.068 121.716,51.183 121.37,51.183 L120.91,51.183 C120.565,51.183 120.106,51.298 119.76,51.298 C118.951,51.298 118.261,51.068 117.34,50.953 C117.11,50.838 117.11,50.378 116.765,50.263 C116.42,50.263 116.075,50.607 115.845,50.607 C115.614,50.607 115.154,50.493 114.925,50.378 C114.69,50.263 114.575,50.028 114.345,49.913 L113.77,49.799 C113.54,49.568 113.31,48.878 112.85,48.763 C112.734,48.648 112.159,48.648 112.044,48.878 C111.815,49.453 112.965,50.028 113.194,50.378 L113.425,50.838 C113.655,50.953 113.77,50.723 113.885,50.838 C114.23,50.953 114,51.758 114.345,51.758 C114.81,51.758 115.154,51.873 115.385,51.758 C115.96,51.644 116.075,50.838 116.765,50.723 C116.995,50.838 116.88,51.183 116.88,51.413 C116.995,51.644 117.226,51.873 117.455,51.988 L118.03,51.988 C118.261,52.103 118.836,52.563 118.951,52.794 C118.951,53.369 118.03,53.714 117.915,54.059 L117.915,54.523 C117.915,54.638 117.685,54.638 117.455,54.753 L117.11,55.099 L116.765,55.213 L116.42,55.674 C116.075,55.789 115.614,55.789 115.27,55.903 C115.039,56.019 114.925,56.363 114.575,56.479 C114.345,56.709 113.77,56.709 113.425,56.939 L112.85,57.169 L112.505,57.284 L111.93,57.514 C111.699,57.629 111.469,57.514 111.239,57.514 C111.124,57.629 111.009,57.744 110.664,57.859 C110.434,57.975 109.97,57.975 109.854,58.204 C109.854,58.435 110.318,59.014 110.664,59.014 C110.779,59.014 111.009,58.783 111.239,58.783 L111.699,58.783 L112.159,58.664 C112.619,58.55 112.965,58.55 113.31,58.55 C113.655,58.435 114,58.204 114.23,58.319 C114.575,58.783 114.345,59.358 114.23,59.819 L113.655,60.395 C113.31,61.199 112.85,62.005 112.274,62.58 C111.815,62.925 111.469,63.159 111.009,63.389 C110.549,63.734 110.2,64.079 109.854,64.31 C109.51,64.654 109.164,65.115 108.819,65.345 L108.244,65.689 L108.014,66.266 C107.669,66.84 107.094,67.186 107.669,67.765 C107.669,68.109 107.669,68.685 107.784,69.145 C107.899,69.26 108.244,69.375 108.244,69.605 L108.244,70.181 C108.244,70.525 108.129,70.871 108.244,71.216 L108.244,71.795 C108.129,72.601 107.324,72.83 106.634,73.176 C106.288,73.291 105.94,73.52 105.594,73.865 C105.364,74.096 104.789,74.326 104.789,74.556 C104.674,74.901 105.019,75.361 105.019,75.592 C105.134,75.94 105.019,76.631 104.789,76.746 C104.559,77.091 103.639,76.976 103.408,77.435 L103.408,77.896 C103.408,78.241 103.293,78.701 103.064,78.932 L102.373,79.507 C102.143,79.736 101.913,80.197 101.679,80.431 C101.219,81.006 100.528,81.581 99.838,81.811 L99.263,81.927 C99.033,82.041 98.688,82.156 98.458,82.156 C98.228,82.156 97.768,82.041 97.418,82.041 L96.843,82.271 L96.383,82.271 L95.808,82.387 C95.578,82.387 95.117,82.271 95.003,82.041 L94.773,81.352 L94.888,80.892 L94.657,80.197 C94.428,79.852 94.428,79.507 94.197,79.276 C93.853,78.701 93.277,78.356 93.158,77.435 C93.158,76.86 93.158,76.285 92.928,75.706 C92.928,75.477 92.698,75.246 92.468,75.016 C92.353,74.671 92.237,74.326 92.123,74.096 C92.008,73.865 91.662,73.636 91.548,73.405 C91.433,72.715 91.777,72.141 91.893,71.68 L92.008,71.216 C92.123,70.756 92.812,70.525 92.928,70.065 C92.928,69.605 92.468,69.26 92.468,68.915 C92.468,68.57 92.468,68.34 92.353,67.995 C92.237,67.765 92.123,67.534 92.008,67.301 L91.777,66.726 C91.433,66.15 90.742,65.92 90.397,65.46 L90.167,64.77 L90.397,64.31 L90.397,63.619 C90.512,63.274 90.973,62.925 90.512,62.465 L89.936,62.58 L90.052,62.234 C89.707,61.89 89.017,62.35 88.437,62.12 C87.978,62.005 87.978,61.199 87.287,61.084 C86.137,60.97 85.331,61.774 84.292,61.89 C83.947,61.89 83.602,61.774 83.257,61.774 C82.911,61.659 82.566,61.659 82.106,61.774 C81.761,61.774 81.531,62.12 81.071,62.12 C80.266,62.12 79.571,61.199 78.881,60.854 C78.536,60.739 78.19,60.739 78.076,60.509 C77.846,60.279 77.846,59.819 77.615,59.589 C77.501,59.358 77.271,59.244 76.926,59.014 C76.695,58.783 76.58,58.55 76.351,58.435 C76.12,58.204 75.772,58.089 75.656,57.859 L75.772,57.284 C75.656,57.169 75.426,56.939 75.426,56.824 C75.426,56.479 75.772,56.363 75.772,56.134 L76.005,55.559 L76.12,55.099 L76.005,54.408 L76.005,54.059 C75.886,53.714 75.541,53.599 75.772,53.023 C75.886,52.794 76.12,52.333 76.465,51.873 L76.926,51.413 C77.04,51.183 77.04,50.953 77.271,50.723 L77.731,50.493 L78.19,49.913 C78.536,49.684 78.881,49.684 79.227,49.453 C79.456,49.338 79.802,48.993 79.802,48.763 L79.802,48.188 L80.031,47.728 L80.147,47.268 C80.381,47.038 80.956,46.922 81.301,46.575 C81.071,46.115 81.071,45.54 80.726,45.08 C80.496,44.733 80.031,44.503 79.916,44.158 C79.802,43.582 80.031,43.122 80.496,42.777 C80.496,42.2 80.381,41.74 80.266,41.165 C80.841,40.589 82.336,40.705 83.257,40.357 C83.486,40.012 83.832,39.552 83.602,39.092 C83.257,38.287 81.761,38.517 81.761,37.249 C81.761,37.019 81.991,36.674 81.991,36.444 C82.106,36.097 82.106,35.867 82.106,35.637 L82.336,35.291 C82.451,34.831 82.336,34.486 82.451,33.909 L82.106,34.371 C81.991,34.716 82.222,35.177 81.761,35.521 L81.301,35.521 C81.071,35.637 80.726,35.982 80.266,35.867 L79.802,35.521 C79.686,35.177 80.147,35.177 80.147,34.831 C80.266,34.486 79.802,34.486 80.031,34.026 L80.61,33.794 C80.841,33.449 81.185,33.104 81.876,33.219 L81.647,32.759 C81.531,32.414 81.647,32.068 81.416,31.721 C81.647,31.261 81.876,30.686 82.566,30.571 C83.257,30.456 84.062,30.686 84.292,31.031 C84.526,31.606 84.177,32.184 84.407,32.873 C84.407,33.104 84.641,33.449 84.756,33.679 C84.986,34.256 85.331,34.371 85.446,34.831 C85.791,34.831 85.906,34.946 86.022,35.061 C86.597,34.831 87.172,34.601 87.632,34.371 C87.747,33.794 88.092,33.449 88.553,32.989 C88.553,32.184 89.132,31.836 89.936,31.606 C90.052,31.376 89.936,31.261 89.936,31.031 C89.247,30.801 89.247,31.491 88.437,31.491 C88.207,31.491 87.632,31.146 87.517,30.916 L87.517,30.456 L87.057,29.881 L87.057,29.419 C86.941,28.958 86.597,28.729 86.941,28.153 L87.172,27.808 C87.402,27.461 87.517,27.116 87.862,26.886 C88.092,26.77 88.437,26.77 88.667,26.54 C88.897,25.965 89.247,25.62 89.592,24.928 C89.936,24.353 90.512,23.893 90.512,23.201 C90.627,22.626 90.512,22.05 90.973,21.59 L91.662,21.13 C91.893,20.898 92.008,20.667 92.237,20.438 L92.698,20.208 C93.392,19.747 93.967,19.172 95.348,19.287 C95.808,19.402 96.383,19.632 96.958,19.747 C97.537,19.862 98.112,20.092 98.573,20.208 C98.918,20.322 99.493,20.667 99.608,20.783 C99.724,21.013 99.724,21.13 99.724,21.36 C100.299,21.475 100.759,21.36 101.219,21.475 C101.679,21.705 102.028,22.05 102.373,22.165 L102.833,22.28 C103.179,22.395 103.868,22.97 103.983,23.317 C103.983,23.663 103.754,24.008 103.523,24.123 C103.064,24.583 102.143,24.353 101.334,24.238 C101.449,25.043 102.373,25.043 102.833,25.39 C103.064,25.273 103.293,25.158 103.523,25.043 L103.408,24.698 C103.754,24.008 105.249,23.663 105.019,22.395 C104.904,22.28 104.674,22.165 104.559,21.935 C104.674,21.475 104.904,21.013 105.249,20.898 C105.479,20.783 105.824,20.783 106.059,20.667 C106.288,20.667 106.634,20.553 106.749,20.553 C107.554,20.438 108.359,20.898 108.819,21.013 C109.164,20.898 109.279,20.667 109.625,20.553 L109.854,19.977 C109.97,19.747 110.434,19.747 110.664,19.632 L111.009,19.287 C111.354,19.287 111.699,19.747 112.044,19.747 L112.619,19.632 C113.08,19.402 113.54,18.825 113.655,18.135 C113.885,17.214 113.425,16.407 114.115,15.602 L114.345,15.487 L114.575,15.257 L115.154,15.026 C115.614,14.912 116.075,15.026 116.42,15.026 C116.88,14.912 117.455,14.564 118.03,14.45 L118.376,14.45 C118.721,14.45 118.606,14.219 118.951,13.989 C118.836,13.644 119.069,13.644 119.185,13.299 L119.415,12.954 L119.875,12.724 L120.335,12.146 L120.795,11.802 C121.025,11.571 121.141,11.227 121.601,11.111 C121.945,10.304 122.751,9.959 123.211,9.384 C123.445,9.154 123.676,8.923 123.79,8.693 L123.905,8.116 C123.905,7.886 124.251,7.771 124.365,7.656 C124.251,6.851 125.401,6.736 125.861,7.196 C126.666,7.081 127.012,7.656 127.82,7.771 C127.935,7.656 128.166,7.541 128.397,7.541 C128.626,7.541 128.971,7.771 129.316,7.771 C129.776,7.886 130.236,7.771 130.582,7.886 C131.042,8.001 131.732,8.693 131.852,9.154 C131.852,9.499 131.732,9.844 131.852,10.189 Z" id="Fill-15"></path>
        </g>
    </g>
</svg>