<?xml version="1.0" encoding="UTF-8"?>
<svg width="184px" height="97px" viewBox="0 0 184 97" version="1.1" xmlns="http://www.w3.org/2000/svg" xmlns:xlink="http://www.w3.org/1999/xlink">
    <!-- Generator: Sketch 50.2 (55047) - http://www.bohemiancoding.com/sketch -->
    <title>Fill 15</title>
    <desc>Created with Sketch.</desc>
    <defs></defs>
    <g id="Page-1" stroke="none" stroke-width="1" fill="none" fill-rule="evenodd">
        <g id="O3GMNX1" transform="translate(-195.000000, -152.000000)" fill="#4F7953">
            <path d="M241.757,162.304 C241.527,162.421 241.757,162.651 241.872,162.881 C241.987,163.227 241.757,163.917 241.412,163.917 C241.067,164.032 240.603,163.686 240.373,163.456 C239.912,163.341 239.452,163.227 239.107,162.996 L238.762,162.536 C238.302,162.189 237.382,162.651 236.922,162.189 C236.342,162.651 235.768,162.074 234.847,162.189 C234.502,162.304 234.041,162.651 233.352,162.421 L232.892,162.074 L232.892,161.729 C232.776,161.384 231.736,161.154 232.316,160.693 C231.622,160.579 231.161,160.348 231.047,159.656 L231.047,159.311 L230.816,159.081 C230.816,158.851 231.622,158.275 231.852,158.275 L232.316,158.275 C233.006,158.161 233.352,157.698 233.811,157.583 C234.272,157.468 234.962,157.698 235.307,157.583 C235.537,157.583 236.112,157.354 236.342,157.238 L236.691,156.893 C237.267,156.548 238.302,156.663 238.877,156.663 C239.107,156.893 238.992,157.468 238.762,157.468 C238.762,157.698 238.762,158.044 238.877,158.275 C239.107,158.391 239.337,158.391 239.567,158.391 C239.912,158.506 240.027,158.851 240.373,158.736 L240.718,158.161 L240.487,157.814 C240.487,157.468 240.952,157.583 241.067,157.468 C240.952,157.008 240.952,156.433 241.412,156.318 C241.872,156.203 242.103,156.548 242.332,156.778 L242.678,157.123 C242.907,157.468 242.793,157.929 243.138,158.161 C243.368,157.814 243.828,157.929 243.943,158.391 C244.748,158.391 244.979,158.044 245.327,157.814 C244.748,157.123 245.902,156.433 245.902,155.856 L246.248,155.626 C246.133,155.281 246.133,154.936 246.133,154.59 C246.593,153.553 247.974,153.208 249.933,153.323 C250.278,153.323 250.738,153.438 251.198,153.438 C251.544,153.323 252.004,152.978 252.464,152.978 C252.809,152.978 253.27,152.978 253.614,152.978 L254.078,152.863 C254.309,152.863 254.538,152.978 254.769,152.978 L255.229,152.863 C255.459,152.863 255.919,152.863 256.149,152.978 L256.494,153.093 C256.839,153.208 257.3,153.208 257.529,153.208 C257.76,153.323 257.989,153.553 258.339,153.668 C258.569,153.783 258.799,154.015 259.029,154.13 C259.259,154.245 259.604,154.245 259.604,154.706 C260.869,154.82 262.25,154.936 262.6,155.856 C263.52,156.088 263.979,155.281 264.9,155.395 C265.245,155.051 265.935,154.59 266.626,154.82 C267.32,154.59 268.355,154.13 269.621,154.36 C269.966,154.476 270.31,154.59 270.656,154.706 C271.235,154.82 271.58,154.936 271.81,155.395 C272.271,155.511 272.386,155.856 272.731,156.203 C273.076,156.548 273.651,156.663 273.651,157.354 C274.111,157.583 274.802,157.583 274.802,158.275 C275.266,158.275 275.956,158.621 275.956,159.081 C275.956,159.426 275.496,159.541 275.147,159.771 L274.916,160.116 L274.456,160.348 L274.341,160.693 L273.881,161.039 L273.766,161.384 C273.421,161.844 272.961,162.189 272.846,162.881 C272.731,163.227 272.731,163.341 272.731,163.686 L272.615,164.032 C272.501,164.724 273.19,164.839 272.846,165.529 C273.19,166.105 272.846,166.912 272.961,167.602 C272.501,167.947 272.386,168.522 271.926,168.869 C271.695,169.56 271.465,170.135 271.235,170.825 C271.005,171.632 270.886,172.438 270.31,173.013 C269.966,173.245 269.506,173.475 268.931,173.82 C268.471,174.165 267.896,174.28 267.32,174.395 L266.745,174.626 C266.396,174.626 266.165,174.626 265.82,174.74 C265.59,174.74 265.245,174.97 265.13,175.085 C264.785,175.317 264.555,175.778 264.21,176.008 C263.979,176.238 263.06,176.698 262.714,176.698 C262.365,176.813 262.02,176.698 261.79,176.813 C261.445,176.928 261.1,177.39 260.984,177.735 L260.869,178.195 C260.755,178.54 260.18,178.886 259.949,179.346 L259.834,179.693 L259.489,180.153 C259.259,180.498 259.374,181.189 258.799,181.304 C258.569,181.304 258.108,181.189 257.875,181.073 C257.76,180.843 257.76,180.613 257.529,180.498 L256.954,180.498 L256.264,179.808 C256.149,179.461 256.034,178.886 256.034,178.656 L255.689,178.195 C255.574,177.85 255.574,177.39 255.459,176.813 C255.459,176.353 255.229,176.008 255.229,175.663 C255.229,174.74 255.574,174.05 256.034,173.59 C255.804,173.36 256.034,173.013 256.034,172.783 L255.574,172.208 C255.344,171.632 255.574,171.057 255.804,170.595 C255.689,170.25 255.459,169.905 255.574,169.33 C255.689,169.099 255.919,168.869 256.034,168.637 L256.034,168.177 L256.149,167.717 C256.149,167.487 256.149,167.142 256.149,166.796 C256.149,166.335 256.264,165.989 256.149,165.529 C255.919,164.954 255.344,164.839 254.769,164.377 L254.309,164.494 C254.078,164.494 253.733,164.377 253.499,164.377 L253.039,164.494 C252.694,164.494 252.119,163.917 252.349,163.456 L252.004,162.996 C251.773,162.766 251.889,162.421 251.429,162.304 C251.083,162.304 250.394,162.766 249.703,162.881 L249.238,162.881 C249.009,162.996 248.894,163.227 248.663,163.227 L248.318,163.686 L248.088,163.571 C247.858,163.686 247.743,163.917 247.513,163.917 C247.858,164.609 247.168,165.299 246.133,165.299 C246.018,165.299 245.787,165.184 245.558,165.069 C244.979,164.954 244.173,164.954 243.713,164.839 L243.253,164.494 C242.793,164.377 242.332,164.262 242.218,163.917 C242.103,163.341 242.678,162.996 242.907,162.651 C243.138,161.729 241.987,161.729 241.757,162.304 L241.872,162.421 L241.757,162.421 L241.757,162.304 Z M361.161,241.297 C361.161,241.872 360.815,242.562 360.586,242.907 L359.551,243.482 C358.86,243.482 358.975,242.562 359.09,241.987 C359.09,241.412 358.975,241.067 359.32,240.833 C359.665,240.952 359.665,241.297 360.011,241.297 C360.355,241.412 360.815,241.067 361.161,241.297 Z M377.973,240.258 C378.317,240.258 378.317,240.143 378.667,240.143 C379.012,240.602 378.317,241.067 378.088,241.412 L377.742,241.527 C377.513,241.987 377.167,242.332 376.822,242.678 C376.477,243.023 376.132,243.368 375.557,243.138 C375.326,243.138 375.326,243.368 375.326,243.482 C374.981,243.943 374.291,244.173 374.058,244.633 L373.942,245.094 C372.792,245.094 372.677,246.018 372.102,246.593 C371.871,246.823 371.411,246.938 371.182,247.168 C370.951,247.398 370.721,247.858 369.916,247.628 L369.337,247.168 C369.337,247.053 369.451,246.938 369.451,246.708 C369.451,246.362 369.222,246.133 369.451,245.787 C369.682,245.442 370.376,245.094 370.951,244.748 C371.986,244.173 373.022,243.828 373.942,243.023 C374.176,242.793 374.291,242.332 374.522,242.332 L374.981,242.562 L375.672,242.678 C375.787,242.678 376.132,242.447 376.132,242.102 C376.132,241.757 375.557,241.757 375.672,241.297 C375.672,241.067 376.132,241.067 376.247,240.833 C376.477,240.718 376.707,240.027 376.592,239.683 C376.592,239.452 376.592,238.992 376.477,238.647 C376.362,238.302 376.247,237.842 376.362,237.497 L376.362,237.382 C376.707,237.611 377.167,237.842 377.167,238.302 L377.167,238.762 L377.513,239.223 C377.742,239.683 377.513,240.143 377.973,240.258 Z M308.08,222.41 C308.54,222.41 308.54,223.101 308.655,223.561 L308.655,224.141 L308.425,224.601 C308.194,224.945 308.194,225.405 308.08,225.751 C307.734,226.556 307.39,227.246 307.044,228.056 C306.815,228.516 306.699,228.976 306.469,229.206 L305.318,229.435 C304.97,229.435 304.625,229.091 304.51,228.86 C304.395,228.746 304.51,228.516 304.395,228.285 C304.395,228.056 304.279,227.821 304.279,227.592 C304.395,226.901 305.085,226.671 305.085,226.211 C305.085,225.865 304.854,225.636 304.854,225.176 C304.97,224.945 305.2,224.485 305.549,224.37 C305.779,224.255 306.009,224.255 306.239,224.141 C306.584,224.141 306.93,223.91 307.159,223.68 C307.39,223.331 307.619,222.756 307.965,222.525 L308.08,222.41 Z M355.405,222.525 L355.405,222.756 L355.635,222.525 L355.405,222.525 Z M366.806,230.356 C366.806,230.816 366.576,231.161 366.576,231.622 C366.576,231.852 366.69,232.197 366.69,232.431 C366.69,232.776 366.346,233.006 366.23,233.352 C365.886,234.156 365.886,234.731 365.307,235.307 L364.731,235.768 C364.271,236.227 364.156,236.691 363.695,237.267 C363.466,237.497 363.351,237.727 363.235,237.957 C363.235,238.186 363.12,238.647 363.006,238.762 C362.775,239.107 362.2,238.992 361.74,239.107 C361.275,239.337 361.046,239.798 360.586,239.798 C360.24,239.798 360.125,239.337 359.78,239.337 C359.435,239.337 359.32,239.567 358.975,239.567 C358.745,239.567 358.63,239.337 358.4,239.223 C358.17,239.107 357.94,239.107 357.71,238.992 C357.479,238.762 357.25,238.417 357.25,238.072 L357.364,237.611 C357.364,237.382 357.135,237.151 357.016,237.036 C356.556,237.036 356.095,237.497 355.865,237.151 C355.981,236.691 356.9,237.151 356.785,236.691 C356.67,236.457 356.325,236.922 356.095,236.572 C356.095,236.342 356.67,236.112 356.44,235.768 C355.865,235.768 355.865,236.342 355.405,236.342 C355.06,236.112 355.29,235.768 355.175,235.537 L354.944,235.077 L354.6,234.617 C354.484,234.502 354.14,234.502 353.909,234.387 L353.449,234.156 C352.41,233.927 351.72,234.502 350.799,234.502 C350.339,234.502 350.339,234.502 349.879,234.731 L349.419,234.847 C349.189,235.077 348.959,235.307 348.728,235.422 C348.384,235.537 347.919,235.422 347.459,235.422 C346.654,235.307 345.964,235.997 345.389,236.112 C344.698,236.227 343.889,235.652 343.889,235.307 C343.889,234.962 344.238,234.847 344.354,234.617 C344.583,234.156 344.468,233.236 344.468,232.546 C344.354,232.197 344.238,231.852 344.238,231.392 C344.123,231.047 343.659,230.586 343.659,230.356 L344.123,229.896 C343.889,229.435 344.354,229.091 344.354,228.746 C344.468,228.516 344.354,228.285 344.468,228.056 C344.698,227.94 345.043,227.821 345.389,227.706 C345.849,227.477 345.964,227.361 346.654,227.361 C346.999,227.246 347.344,227.016 347.805,226.901 C348.149,226.901 348.384,226.901 348.613,226.786 C349.074,226.671 349.534,226.096 349.534,225.52 C349.764,225.061 350.454,225.176 350.914,224.83 L351.029,224.485 C351.26,224.025 352.065,223.561 352.644,223.68 C352.989,223.68 353.219,224.255 353.565,224.141 C353.909,224.141 353.794,223.91 354.024,223.68 C354.14,223.331 354.6,223.101 354.83,222.756 L354.6,222.296 C354.715,222.181 355.06,222.296 355.29,222.296 L355.865,222.181 C356.21,222.181 356.67,222.641 357.135,222.641 C357.71,222.641 358.285,222.41 358.4,222.756 C358.515,223.101 358.17,223.216 358.055,223.446 L358.285,223.795 C357.364,224.025 357.71,224.485 358.285,224.83 C358.745,225.061 359.09,225.405 359.551,225.176 C359.78,225.405 359.665,225.751 360.011,225.751 C360.355,225.865 360.586,225.405 360.701,225.176 C360.815,224.601 360.931,224.37 360.931,223.795 C360.931,223.561 361.046,223.101 361.161,222.871 C361.161,222.525 361.394,222.296 361.51,222.065 L361.625,222.065 C361.97,222.296 361.97,222.525 362.085,222.871 C362.2,223.101 362.2,223.446 362.315,223.68 C362.545,224.025 363.006,223.91 363.12,224.37 C363.235,224.601 363.12,224.945 363.12,225.176 L363.351,225.636 C363.466,225.98 363.466,226.326 363.581,226.556 C363.695,226.786 364.386,227.016 364.731,227.361 C364.846,227.592 364.846,228.056 365.076,228.285 L365.655,228.746 L365.771,229.206 C365.886,229.666 366.346,230.126 366.806,230.356 Z M358.055,216.77 L358.055,217 L358.055,216.77 Z M355.635,216.654 C355.981,216.425 357.016,216.654 357.135,217 L357.135,217.575 C357.25,217.805 357.479,217.805 357.71,218.035 C358.055,217.92 358.285,217.689 358.17,217.345 L358.63,217.345 L359.09,217.115 C359.32,217.115 359.78,217.345 360.125,217.46 C360.471,217.575 360.815,217.575 361.046,217.689 C361.74,217.92 362.545,218.15 363.006,218.38 C363.351,218.495 363.81,218.726 363.926,219.186 C364.041,219.186 364.271,219.42 364.501,219.42 C364.731,219.42 364.846,219.186 365.076,219.186 C365.536,219.07 366,219.186 366.115,218.955 L366.576,219.07 C366.921,218.955 367.15,218.61 367.381,218.38 C367.381,218.035 366.806,218.15 366.806,217.805 C367.266,217.805 367.956,218.266 367.956,218.61 L367.496,218.955 C367.266,219.186 367.036,219.649 366.576,219.649 C366,219.765 365.536,219.649 365.076,219.534 C364.846,219.649 364.616,219.88 364.616,220.109 C364.616,220.34 365.536,221.26 365.886,221.26 L366.23,221.26 C366.806,221.26 366.806,221.95 366.23,221.95 C366,221.95 365.771,221.835 365.307,221.721 C365.076,221.721 364.846,221.721 364.731,221.721 C364.041,221.375 363.926,220.34 362.891,220.455 C362.315,220.455 362.315,221.145 361.97,221.26 L360.815,221.145 C360.471,221.03 360.24,220.685 360.125,220.685 C359.896,220.685 359.205,220.915 359.09,220.57 C358.975,220.34 359.435,220.109 359.435,219.995 L359.09,219.301 C358.86,218.955 358.055,218.955 357.479,218.726 L356.9,218.38 C356.67,218.38 356.67,218.61 356.44,218.61 C356.21,218.495 355.981,218.266 355.865,218.035 L355.865,217.689 C355.75,217.345 355.405,217.23 355.175,217.115 L355.175,216.425 L355.635,216.654 Z M351.949,215.734 C351.835,216.31 351.26,216.31 350.569,216.31 C349.994,216.194 349.189,216.194 349.074,216.539 C348.959,216.77 349.074,217 349.419,217 C349.648,217 349.648,216.885 349.764,216.77 C350.109,216.77 350.569,216.77 350.799,216.654 C351.029,216.77 351.145,217.23 350.799,217.345 C350.569,217.345 350.109,217.345 349.994,217.575 C350.225,217.805 350.225,218.035 350.339,218.266 L350.799,218.61 C351.029,219.42 350.225,219.42 349.879,219.186 C349.764,219.07 349.648,218.38 349.304,218.495 C348.959,218.495 349.304,219.301 349.189,219.534 C348.959,219.534 348.498,219.301 348.498,219.186 L348.498,218.61 C348.498,218.266 348.149,218.266 348.149,218.035 L348.384,217.46 L348.384,217 L348.613,216.654 L348.728,216.31 C348.844,216.079 349.304,215.734 349.534,215.734 C349.994,215.734 350.569,215.965 351.029,215.965 C351.489,215.85 351.489,215.389 351.949,215.734 Z M348.384,213.659 C348.265,214.005 347.69,214.234 347.574,214.695 L347.805,215.159 L347.805,215.389 L348.149,215.965 L347.805,216.079 C347.229,216.77 346.884,217.575 346.654,218.38 C346.424,218.495 346.193,218.61 345.964,218.61 C345.618,218.495 345.504,218.266 345.158,218.266 C344.929,218.15 344.814,218.266 344.583,218.266 C344.354,218.266 344.238,218.15 344.004,218.035 C343.659,218.035 343.544,218.035 343.429,217.92 L343.198,217.46 C343.084,217.23 342.623,216.77 342.623,216.31 C342.509,215.85 342.738,215.504 342.969,215.389 L343.544,215.619 C343.889,215.504 344.004,215.159 344.238,214.925 L344.698,214.81 C345.043,214.695 345.158,214.234 345.504,214.005 C345.849,213.774 346.309,213.659 346.539,213.314 C346.769,213.084 346.769,212.739 347.229,212.739 C347.574,212.97 347.919,213.43 348.384,213.659 Z M350.914,211.704 C351.26,212.049 351.604,211.589 351.72,211.358 C351.489,211.129 351.029,211.474 350.914,211.704 Z M349.648,206.523 C349.879,207.099 349.994,207.789 349.534,208.134 C349.764,208.824 350.569,208.824 351.145,209.054 L351.029,209.399 C351.26,209.859 352.065,209.629 352.065,210.319 L351.949,210.664 C351.949,210.898 352.295,211.014 352.41,211.244 C352.525,211.358 352.759,212.395 352.759,212.624 C352.644,212.97 352.18,213.199 352.065,213.43 C351.029,213.659 351.375,212.279 350.454,212.624 C350.225,212.739 350.339,212.97 349.994,212.97 L349.994,212.395 L350.685,211.819 C350.569,211.589 350.339,211.589 350.225,211.358 C350.225,211.129 349.994,210.898 349.879,210.783 C349.879,210.435 349.534,210.089 349.879,209.859 C350.109,209.859 350.109,209.975 350.225,210.204 C350.454,210.204 350.569,210.435 350.799,210.55 L351.145,210.319 L350.685,210.089 C350.454,209.975 350.454,209.284 349.879,209.399 C349.648,209.514 349.648,209.975 349.419,209.975 L348.728,209.284 L348.728,208.939 C348.728,208.594 348.265,208.363 348.384,207.903 C348.384,207.789 348.498,207.674 348.498,207.328 C348.613,206.983 348.613,206.638 348.844,206.523 C349.189,206.408 349.419,206.523 349.648,206.523 Z M359.09,188.789 L358.975,189.249 L359.09,189.594 C358.975,190.055 358.4,189.939 358.17,190.287 L357.94,190.747 C357.595,190.862 357.016,190.169 356.785,190.632 C356.9,191.322 357.71,191.897 357.94,192.472 C358.055,192.705 358.17,193.165 358.055,193.394 L357.824,193.855 L357.94,194.315 L357.94,194.892 C357.94,195.352 358.4,195.697 357.824,196.042 L357.479,196.042 C357.135,196.272 356.67,196.272 356.325,196.503 C355.981,196.618 355.981,196.965 355.635,197.195 C354.944,197.08 354.484,197.31 354.14,197.655 L353.794,197.655 C353.565,198 353.68,198.806 353.334,199.152 C352.989,198.922 352.759,198.575 352.525,198.115 L352.18,197.54 C352.295,197.31 352.525,197.195 352.759,196.965 L352.874,196.618 L353.794,195.812 C354.255,195.697 354.83,195.697 355.175,195.582 C355.52,195.237 355.29,194.662 355.52,194.43 L355.981,194.662 C356.325,194.545 356.44,194.2 356.21,193.97 L356.67,193.74 C356.67,193.394 356.785,193.165 356.785,192.819 L356.44,192.357 C356.44,192.127 356.67,191.782 356.556,191.552 L356.44,191.207 L355.865,190.747 C355.981,190.401 355.981,190.169 356.095,189.939 L356.44,189.594 L356.44,189.019 C356.44,188.789 355.981,188.214 356.44,188.214 C356.67,188.097 357.135,188.559 357.25,188.674 C357.479,188.904 357.824,189.134 358.055,189.134 C358.515,189.134 358.63,188.674 359.09,188.789 Z M270.426,176.928 C270.656,176.928 270.541,176.698 270.772,176.583 C271.235,176.468 271.58,176.583 272.04,176.583 C272.501,176.468 272.846,176.123 273.19,176.468 C273.421,177.043 273.996,177.39 273.536,177.965 C273.306,178.195 272.846,178.31 272.386,178.54 C271.695,178.886 271.351,179.116 270.541,179.001 C270.31,179.001 270.31,178.77 270.081,178.77 C269.735,178.656 269.391,178.77 269.391,178.54 L269.506,178.081 C269.506,177.85 269.16,177.85 268.931,177.62 C268.931,177.39 269.275,177.505 269.275,177.273 C269.16,177.158 268.815,177.273 268.815,177.043 C268.931,176.698 269.275,176.238 269.735,176.238 C270.081,176.353 270.081,176.698 270.426,176.928 Z M232.316,170.135 C232.197,170.48 232.661,170.595 232.892,170.825 C233.121,171.057 233.352,171.287 233.696,171.287 C234.041,171.402 234.272,171.172 234.617,171.402 C234.847,171.057 235.307,170.94 235.537,170.595 C235.422,170.365 235.191,170.25 234.962,170.135 C234.502,170.595 233.811,169.905 233.581,170.25 C233.352,169.905 232.431,169.674 232.316,170.135 Z M218.15,165.184 C218.726,165.299 219.42,165.069 219.88,165.069 C220.225,165.069 220.685,165.184 221.03,165.184 L221.26,165.069 C222.181,164.954 223.331,165.069 223.68,165.414 C224.025,165.529 224.141,165.874 224.255,166.105 C224.945,166.105 225.176,166.68 225.405,167.026 L225.865,167.257 L225.98,167.602 C226.211,167.947 226.901,168.407 227.246,168.522 L227.821,168.637 C228.171,168.752 228.516,169.33 228.171,169.56 L227.477,169.79 C227.361,170.135 228.285,170.365 228.86,170.365 C229.436,170.365 229.666,170.02 229.896,170.365 L230.472,170.02 C230.126,169.905 229.436,170.02 229.321,169.56 C228.516,169.674 228.285,169.099 228.631,168.752 C228.516,168.407 228.171,168.522 227.821,168.292 C227.246,167.832 227.706,166.796 228.746,167.142 C228.746,166.564 227.592,166.68 228.056,165.989 C227.592,165.644 226.901,165.759 226.326,165.529 L225.636,164.839 C225.291,163.917 226.326,163.686 226.901,163.227 L227.246,162.766 C227.592,162.536 228.056,162.304 228.171,162.074 C228.285,161.844 228.171,161.614 228.4,161.499 C228.516,161.384 228.86,161.499 229.091,161.499 L229.666,161.384 C230.011,161.499 230.126,161.844 230.586,161.959 L231.047,162.074 C231.507,162.304 231.392,162.766 231.507,163.227 C231.507,163.571 231.736,163.802 231.736,164.032 C232.197,164.146 232.892,164.146 233.236,164.494 C233.467,164.377 233.811,164.262 234.156,164.146 L234.731,163.802 C235.191,163.802 236.112,163.802 236.112,164.146 C236.342,164.724 235.307,164.954 235.077,165.299 C234.847,165.644 234.502,166.45 234.617,166.796 C234.617,166.912 234.962,167.142 235.077,167.372 C235.191,167.602 235.191,168.177 235.191,168.522 C235.307,168.984 235.307,169.56 235.191,169.905 C235.997,169.905 236.457,169.099 236.572,168.177 C236.572,167.717 236.691,167.026 236.572,166.564 C236.572,166.335 236.227,166.219 236.227,165.989 C236.112,165.644 236.227,165.184 236.691,165.184 C237.036,165.184 236.922,165.414 237.267,165.529 C237.497,165.414 237.267,165.069 237.267,164.954 C237.382,164.262 238.302,164.146 239.223,164.262 L239.452,164.609 C239.912,164.724 240.373,164.494 240.718,164.494 C241.182,164.494 241.412,164.724 241.757,164.839 C241.987,164.954 242.218,164.954 242.332,165.069 C241.643,165.989 240.603,166.68 239.567,167.257 C239.567,168.177 239.337,168.869 239.567,169.56 C239.912,169.56 240.027,169.33 240.143,169.214 C240.143,168.752 240.143,168.407 240.143,167.947 L240.487,167.487 L240.603,167.142 L241.067,166.912 C241.527,166.564 241.872,165.989 242.562,165.874 C242.793,165.644 244.173,165.299 244.403,165.759 L244.288,166.219 C244.748,166.335 244.979,166.105 245.442,165.989 C245.787,165.989 246.477,166.219 246.823,166.335 C247.053,166.45 247.283,166.45 247.513,166.68 L247.743,167.372 L247.628,167.832 L247.858,168.177 L248.088,168.752 C248.203,168.984 248.434,168.984 248.663,169.099 C249.009,169.33 249.009,169.674 249.238,170.02 C249.473,170.25 249.818,170.25 249.933,170.48 C250.048,170.71 250.163,171.057 250.278,171.287 C250.278,171.977 250.163,172.438 250.278,173.245 C250.508,173.475 250.854,173.59 250.854,173.935 C251.198,174.165 251.773,174.395 251.773,174.855 C251.773,175.085 251.544,175.201 251.198,175.433 C250.854,175.778 250.508,175.893 250.278,176.353 L249.933,176.238 C249.933,176.928 250.163,177.505 249.933,177.85 L249.354,178.425 C249.238,178.656 249.238,179.001 248.778,179.001 C249.009,179.346 248.318,179.576 248.434,179.116 C247.513,178.886 247.053,178.195 246.133,178.081 C245.787,177.735 245.902,177.505 245.673,177.158 C245.673,176.928 245.442,176.468 245.212,176.353 C244.633,176.123 243.138,176.698 243.138,175.893 C243.138,175.663 243.598,175.085 243.943,175.201 C244.403,174.74 244.979,174.51 245.212,173.82 C244.863,173.59 244.518,173.475 244.403,173.13 C244.173,172.783 244.633,172.208 244.403,171.977 C244.288,171.632 243.943,171.747 243.598,171.632 L243.253,171.977 L242.793,172.322 C242.678,172.553 242.907,172.898 242.793,173.013 C242.793,173.36 241.987,173.82 241.643,174.05 L241.297,174.165 L241.067,174.51 C240.833,174.51 240.833,174.28 240.603,174.28 C240.373,174.626 240.952,174.855 241.182,175.201 C241.297,175.433 241.297,175.663 241.412,175.893 C241.527,176.123 242.218,176.698 241.527,176.813 L241.067,176.698 C240.833,176.698 240.487,176.928 240.258,176.698 C239.683,176.928 238.417,177.158 238.532,176.238 C238.186,176.468 237.151,176.813 236.807,176.353 L236.457,176.813 L235.997,176.813 L235.537,177.273 L235.077,177.505 C234.731,177.735 234.617,177.965 234.387,178.195 C234.041,178.425 233.811,178.656 233.696,178.77 C233.467,179.001 233.121,179.808 233.236,180.038 L233.696,180.383 C233.927,180.613 233.696,181.419 234.041,181.648 L234.387,181.648 C234.731,181.881 235.191,181.881 235.537,182.226 L235.997,182.801 L236.691,183.146 C236.922,183.261 237.036,183.491 237.267,183.606 C237.611,183.606 238.186,183.491 238.302,183.836 C238.532,184.068 237.957,184.644 238.072,184.989 C238.186,185.219 238.417,185.104 238.648,185.449 L238.302,185.679 C238.186,185.909 238.532,186.486 238.762,186.601 L239.452,186.026 L239.452,185.449 L239.567,184.759 C239.567,184.298 239.107,183.954 239.337,183.376 C239.452,182.916 239.912,182.916 240.143,182.686 C240.373,182.341 240.373,181.996 240.718,181.766 C240.373,180.843 241.067,180.153 241.297,179.461 C241.067,179.231 241.182,178.77 241.182,178.425 L241.182,178.081 C241.412,177.273 243.713,177.158 244.518,177.62 L244.863,177.85 C245.212,178.195 245.558,178.54 245.673,179.116 L246.248,179.461 C246.248,179.693 246.477,179.923 246.477,180.268 C246.477,180.613 246.248,180.843 246.362,181.073 C246.823,181.189 246.938,181.073 247.283,180.843 L247.743,180.498 C248.088,180.268 248.203,180.038 248.663,180.038 C249.473,179.923 250.163,180.613 250.278,181.073 C250.278,181.648 250.278,182.571 250.048,183.031 C250.048,183.261 249.933,183.491 249.933,183.721 C250.048,183.954 250.623,184.068 250.394,184.529 C250.738,184.759 250.969,184.989 251.314,185.334 L251.773,185.909 C252.233,186.486 252.119,187.637 251.889,188.329 C252.349,188.559 252.924,188.674 253.154,189.019 C253.384,189.48 253.384,190.517 253.039,190.747 C252.464,191.207 250.163,190.747 249.933,190.401 L249.818,190.055 C249.473,190.055 249.238,189.824 249.009,189.71 C248.778,188.904 249.473,188.444 249.818,187.867 C249.124,187.867 248.894,188.559 247.974,188.559 L247.743,188.789 C247.283,188.674 246.823,188.559 246.248,188.559 C246.823,188.789 247.168,189.364 247.513,189.939 C248.203,190.055 249.009,190.169 248.894,190.747 C248.778,191.437 248.088,191.552 247.283,191.782 C247.053,191.897 246.708,192.012 246.477,192.127 C246.248,192.127 246.018,192.127 245.787,192.127 L245.212,192.357 C244.979,192.242 244.979,192.012 244.863,192.012 C244.173,192.012 243.482,192.127 243.138,192.357 C242.907,192.935 243.023,193.394 242.793,193.74 C242.332,194.2 241.412,194.43 240.718,194.777 C240.487,194.892 239.798,195.122 239.567,195.352 L239.223,195.928 L238.877,196.388 C238.762,196.618 238.877,196.965 238.877,197.195 C238.762,197.54 238.302,197.655 237.842,197.885 C237.611,198 237.267,198.23 237.036,198.345 L236.457,198.806 L235.997,199.038 C235.422,199.268 235.191,199.613 235.191,200.418 C235.307,200.648 235.537,200.993 235.537,201.338 L235.537,201.684 L235.768,202.148 C235.768,202.607 235.537,203.183 235.191,203.183 C234.731,203.183 234.156,202.028 234.041,201.568 L234.156,201.108 C234.156,200.878 233.811,200.763 233.696,200.533 C233.467,200.878 233.236,200.648 232.776,200.533 C232.316,200.418 231.622,200.648 231.161,200.763 C230.816,200.878 230.586,201.108 229.896,201.108 C229.666,200.993 229.436,200.763 229.206,200.648 L228.746,200.648 L228.285,200.533 C227.821,200.648 227.477,200.993 227.016,201.108 L226.671,201.224 C226.326,201.338 226.096,201.684 225.98,201.799 C225.865,202.148 225.98,202.378 225.98,202.723 C225.98,202.953 225.636,203.298 225.636,203.528 C225.636,203.758 225.636,203.988 225.751,204.333 C225.751,205.139 225.636,206.059 226.441,206.289 C226.671,206.408 227.477,206.523 227.94,206.408 C228.171,206.408 228.056,206.289 228.516,206.174 C228.86,205.599 230.126,204.448 231.276,204.794 C231.507,204.794 231.967,205.483 231.852,205.944 C231.736,206.174 231.392,206.408 231.161,206.523 C231.047,206.868 230.816,206.983 230.932,207.443 C231.852,207.443 232.776,207.674 233.236,208.019 C234.041,208.709 233.121,209.975 233.581,210.898 L234.156,211.474 C234.847,211.474 235.191,211.244 235.768,211.358 C235.997,211.129 236.112,210.898 236.457,210.898 C236.807,210.898 237.151,211.014 237.382,211.129 L237.842,210.664 C238.648,210.435 239.337,209.859 240.258,209.744 C240.718,209.744 241.297,209.629 241.872,209.744 C241.987,209.744 242.103,209.975 242.332,209.975 C243.023,209.975 244.058,209.284 244.979,209.514 C245.212,209.629 245.558,209.859 245.902,209.975 C246.708,210.204 247.513,210.55 248.088,211.129 C248.549,211.589 248.663,212.279 249.238,212.739 C249.933,212.854 250.623,213.084 251.083,213.545 L251.429,214.12 C251.773,214.58 252.233,214.925 252.349,215.504 C252.809,215.85 253.154,216.079 253.614,216.425 C253.963,216.539 254.424,216.539 254.769,216.77 L255.459,217 C255.919,217.115 256.379,217 256.839,217.115 C257.989,217.23 258.569,217.689 259.259,218.266 C259.72,218.266 259.949,218.38 260.295,218.38 C260.524,218.955 261.1,218.955 260.984,219.765 C260.869,220.109 260.869,220.57 260.755,220.8 L260.409,221.26 L260.295,221.835 C260.065,222.296 259.489,222.756 259.374,223.216 C259.259,223.68 259.259,224.141 259.145,224.601 C259.029,225.061 258.799,225.405 258.684,225.751 C258.569,225.98 258.684,226.211 258.569,226.441 C258.454,226.671 257.989,227.592 257.76,227.706 L257.3,227.821 L256.839,228.056 L256.379,228.171 C256.149,228.171 255.344,228.631 255.229,228.746 C254.884,229.091 254.769,229.551 254.538,229.896 C254.309,230.356 254.078,230.701 253.849,231.161 C253.614,231.736 253.499,232.197 253.154,232.661 L252.694,233.121 L252.349,233.236 C252.119,233.352 252.004,233.581 251.889,233.811 C251.658,234.156 251.314,234.271 250.969,234.617 C250.738,234.962 250.508,235.307 250.278,235.652 L250.048,236.112 C250.048,236.342 249.818,236.457 249.703,236.691 C249.473,237.036 249.473,237.382 249.238,237.611 L248.663,238.072 C248.088,238.417 247.398,238.877 246.823,239.223 C246.593,240.258 245.902,241.067 245.558,241.987 C246.362,242.793 246.362,244.288 246.248,245.787 C246.477,246.133 246.938,246.362 247.053,246.823 L247.053,247.283 C247.168,247.513 247.513,247.743 247.513,248.088 C247.513,248.663 247.053,249.009 246.248,249.009 C246.133,249.009 246.018,249.009 245.902,249.009 C245.212,248.894 243.943,248.549 243.253,248.318 C242.562,247.974 242.103,247.513 241.412,246.938 C240.952,246.362 240.718,245.902 240.373,245.327 C240.143,244.863 239.683,244.633 239.567,243.943 C239.567,243.482 239.798,243.138 239.798,242.562 C239.798,241.643 239.683,241.067 240.373,240.487 C240.143,240.027 239.912,239.452 239.798,238.647 C239.683,238.186 239.683,237.611 239.912,237.382 C239.912,236.342 240.027,235.422 240.027,234.387 C240.143,233.467 240.487,232.661 240.487,231.967 C240.603,230.701 240.487,229.321 240.373,228.171 C240.373,227.821 240.487,227.592 240.373,227.361 C240.373,227.131 239.912,226.556 239.798,226.211 C239.452,225.636 239.337,225.061 238.762,224.83 C238.532,224.715 238.302,224.601 238.072,224.485 C237.727,224.37 237.497,224.255 237.267,224.141 L236.457,223.446 C236.342,223.101 236.342,222.641 236.112,222.296 C235.997,222.065 235.768,221.835 235.652,221.49 C235.422,221.26 235.307,220.915 235.077,220.685 C234.731,220.225 234.272,219.88 234.041,219.42 L233.927,219.07 C233.811,218.84 233.581,218.61 233.581,218.15 C233.581,217.46 234.041,217.23 234.387,216.654 C234.617,216.079 234.962,215.389 235.307,214.925 C235.537,214.695 235.882,214.58 235.997,214.234 C236.112,213.659 235.882,213.43 235.652,212.97 C235.191,212.97 235.077,212.854 234.731,212.739 L234.387,212.509 C234.041,212.395 233.927,212.164 233.696,212.164 L233.121,212.164 C232.892,212.049 232.776,211.704 232.431,211.589 C232.082,211.358 231.967,211.474 231.736,211.244 C231.736,210.783 231.392,210.55 231.161,210.204 C230.701,209.859 230.701,209.859 230.011,209.629 C229.781,209.629 229.551,209.514 229.321,209.399 C229.091,209.399 228.86,209.399 228.631,209.284 C227.94,209.169 227.477,208.134 226.786,208.134 C226.441,208.134 226.211,208.363 225.865,208.363 C225.176,208.363 223.91,207.789 223.331,207.559 C223.101,207.443 222.871,207.328 222.641,207.213 L222.065,206.983 C221.95,206.983 221.721,206.753 221.49,206.638 C221.145,206.408 220.685,206.174 220.685,205.829 L220.915,205.254 L220.8,204.679 C220.685,204.448 220.455,204.219 220.34,203.988 L219.765,203.413 L219.649,203.183 C219.42,202.953 219.07,202.838 218.955,202.607 C219.07,202.028 218.61,201.913 218.38,201.568 C217.92,200.993 217.689,200.763 217.46,199.843 C217.345,199.613 217.115,199.152 216.77,199.268 C216.539,199.268 216.539,199.728 216.654,199.958 C216.77,200.303 217.115,200.648 217.345,200.993 L217.575,201.568 L218.035,202.148 L218.035,202.493 L218.266,202.953 L218.38,203.298 L218.726,203.758 C218.84,203.873 218.955,204.219 218.61,204.219 C218.495,204.219 218.15,203.873 217.92,203.758 L217.345,203.068 L217.345,202.607 C217.345,202.378 217,202.148 216.77,202.028 C216.539,201.913 216.079,201.799 216.079,201.453 L216.425,200.993 C216.539,200.533 215.504,200.188 215.619,199.498 C215.274,199.383 215.04,199.038 214.925,198.69 C214.58,198.575 214.465,198.575 214.234,198.345 C214.005,198.23 214.005,197.885 213.774,197.655 L213.199,197.31 C212.97,196.965 212.739,196.388 212.624,195.928 C212.395,195.122 212.049,194.315 212.164,193.28 C212.279,192.705 212.624,192.242 212.739,191.782 C212.855,191.552 212.855,191.207 212.855,190.977 C212.97,190.747 213.199,190.632 213.314,190.401 C213.659,189.71 213.774,189.019 214.005,188.444 C213.545,187.407 211.934,185.794 212.97,184.414 C212.855,183.954 212.279,183.721 212.049,183.376 L211.704,183.376 C211.704,183.146 211.358,182.916 211.358,182.686 C211.129,181.996 211.474,181.304 211.819,180.843 C211.474,180.498 211.589,180.268 211.589,179.808 C211.474,179.576 211.358,179.461 211.244,179.231 L211.244,178.77 C211.244,178.54 211.014,178.195 210.783,177.965 C210.55,177.39 209.975,177.043 209.629,176.583 L209.399,176.123 C209.284,176.008 208.594,175.433 208.249,175.317 C208.019,175.201 207.674,175.201 207.328,175.317 C206.753,175.433 206.408,175.778 205.829,175.547 L205.369,175.317 C204.908,175.201 204.564,175.663 204.333,175.201 C203.644,175.433 202.953,175.663 202.607,176.123 C201.568,176.123 201.108,177.043 200.303,177.273 L199.843,177.39 L199.383,177.735 C199.038,177.965 198.69,178.081 198.23,178.195 L198,178.54 C197.195,177.965 196.388,179.001 195.352,178.77 C195.122,178.31 195.237,177.62 195.928,177.62 C196.273,176.928 197.08,176.813 197.77,176.238 C198.115,176.008 198.69,175.663 198.806,175.317 C199.038,174.74 198.806,174.05 199.038,173.475 C198.69,173.36 198.46,172.898 198.46,172.553 L198.806,171.977 C198.806,171.747 198.69,171.517 198.69,171.287 L199.152,170.825 C199.498,170.365 199.728,169.674 200.073,169.214 C200.418,168.869 200.993,168.522 201.799,168.637 L201.799,168.292 C201.338,168.292 200.878,168.177 200.878,167.832 C200.763,167.602 201.108,167.257 201.108,166.912 L200.993,166.335 C201.224,166.105 201.913,165.989 202.378,165.874 C202.723,165.759 203.183,165.529 203.758,165.759 L203.644,166.219 C204.104,166.912 204.794,166.45 204.679,165.644 L204.448,165.184 C204.448,164.954 204.564,164.839 204.564,164.494 C204.564,164.032 204.219,163.571 204.219,163.341 C204.333,162.996 204.794,162.651 205.023,162.536 C205.254,162.536 205.599,162.766 205.829,162.766 C206.059,162.766 206.408,162.651 206.523,162.536 C207.213,162.189 207.903,161.499 208.479,161.384 C208.824,161.384 209.054,161.499 209.284,161.384 C209.514,161.384 209.744,161.039 209.975,161.039 C210.204,160.923 210.55,161.154 210.783,161.154 C211.129,161.154 211.474,160.809 211.704,160.809 C212.164,160.809 212.279,161.384 212.395,161.614 C212.855,161.729 213.084,162.074 213.314,162.421 C213.545,162.536 214.12,162.536 214.465,162.766 L215.04,163.111 C215.504,163.341 216.194,163.571 216.654,163.802 L217,164.032 C217.575,164.262 218.15,164.494 218.15,165.184 Z M304.395,208.363 L304.395,208.019 C304.279,207.674 303.704,207.328 303.475,206.868 L303.129,206.289 C302.784,205.944 302.439,205.829 302.209,205.599 C302.094,205.369 302.094,205.254 301.978,204.794 L301.634,204.103 L301.059,203.644 C300.709,203.298 300.594,202.953 300.249,202.493 C300.134,202.263 299.789,201.913 299.559,201.913 C298.754,201.913 299.329,202.838 299.559,203.183 C299.789,203.413 300.134,203.758 300.249,203.988 L300.249,204.448 C300.364,204.679 300.824,204.794 300.94,205.023 C301.174,205.254 301.174,205.483 301.288,205.714 C301.288,205.944 301.288,206.174 301.403,206.408 C301.519,206.753 302.094,206.983 302.209,207.328 C302.439,207.559 302.439,208.019 302.669,208.249 C302.899,208.479 303.244,208.594 303.589,208.824 C303.935,209.054 304.164,209.399 304.625,209.629 C304.854,209.284 304.395,208.824 304.395,208.363 Z M295.184,194.662 L295.413,194.662 C295.413,194.43 295.068,194.43 295.184,194.662 Z M284.822,195.812 C284.247,195.697 284.592,194.892 284.361,194.662 C284.477,194.43 284.707,194.085 284.477,193.74 C284.247,193.624 283.897,193.624 283.437,193.624 C282.978,193.855 282.747,194.2 282.402,194.43 L282.172,194.545 C281.941,194.777 281.597,195.237 281.366,195.467 C281.137,195.697 281.022,196.158 280.791,196.503 C280.446,196.85 279.986,196.965 279.871,197.425 C280.216,197.54 280.562,197.195 280.906,197.195 C281.022,197.08 281.252,197.08 281.597,197.08 L282.172,196.965 C282.517,196.965 282.747,196.965 283.092,196.965 L283.437,196.85 C283.897,196.85 284.247,196.965 284.592,196.965 C284.822,196.85 285.052,196.733 285.282,196.733 C285.627,196.733 285.857,196.965 286.087,197.08 C285.742,197.425 286.202,197.77 286.202,198 C286.202,198.23 285.857,198.23 285.857,198.575 C286.087,198.69 286.317,199.038 286.893,199.152 C287.353,199.268 287.928,199.152 288.392,199.383 C288.622,199.498 288.737,199.958 288.967,199.958 L289.428,200.073 C289.888,200.188 290.348,200.648 290.692,200.648 C291.268,200.533 290.923,199.958 291.038,199.613 C291.153,199.268 291.843,199.152 292.189,199.152 C292.652,199.152 292.883,199.383 293.228,199.498 L293.803,199.613 C294.263,199.728 294.724,199.843 295.299,199.958 C295.644,200.073 296.104,200.188 296.334,200.073 C296.679,200.073 297.028,199.843 297.604,199.843 C298.064,199.958 298.293,200.073 298.639,199.958 C299.214,199.958 299.329,199.152 299.559,198.806 C299.674,198.46 299.789,198.23 299.789,198.115 C299.789,197.54 299.559,197.08 299.214,197.08 C298.983,197.08 298.868,197.31 298.523,197.31 C297.833,197.54 297.604,196.965 297.143,197.08 C296.798,197.08 296.679,197.425 296.334,197.425 L295.759,197.195 C295.528,197.195 295.528,197.425 295.299,197.425 C295.068,197.31 295.068,196.965 294.838,196.733 C294.608,196.503 294.263,196.388 294.148,196.042 C294.033,195.812 294.148,195.467 294.148,195.237 L293.688,195.007 L293.688,194.662 C293.343,194.545 293.228,194.892 292.998,195.007 L292.537,195.237 C292.883,195.812 293.458,196.042 293.803,196.618 C293.458,196.618 293.343,196.503 293.112,196.503 C292.652,196.618 292.883,197.08 292.652,197.31 C292.073,197.31 291.958,196.85 291.613,196.618 C291.383,196.388 291.153,196.388 291.038,196.158 L291.153,195.812 L290.578,195.352 C290.348,194.892 290.463,194.43 290.232,193.97 C289.888,193.855 289.428,193.51 289.197,193.51 C288.392,193.165 288.622,193.855 288.967,194.085 C289.197,194.2 289.773,194.2 290.003,194.315 C290.808,194.892 290.117,196.042 289.542,196.158 C289.197,196.503 289.082,197.08 288.507,197.195 C287.698,197.31 286.893,196.85 286.662,196.388 C286.548,196.042 286.662,195.582 286.433,195.237 C285.857,195.122 285.397,194.662 285.167,194.315 C285.397,194.777 285.512,195.928 284.822,195.812 Z M296.449,191.092 C296.104,191.092 295.988,191.552 295.874,191.897 L295.413,192.357 L295.413,192.705 C295.299,192.935 295.068,193.165 295.068,193.394 C295.068,193.74 295.299,194.2 295.759,194.2 C295.988,194.315 296.449,194.315 296.679,194.2 C296.913,194.2 297.143,193.97 297.373,193.855 C297.718,193.74 298.179,193.624 298.754,193.74 C299.443,193.74 300.019,194.315 300.824,194.315 C301.059,194.315 301.519,194.315 301.749,194.315 C302.554,194.2 302.439,193.394 301.978,193.165 C301.863,193.049 301.634,192.935 301.288,192.819 C301.059,192.705 300.824,192.472 300.709,192.357 L300.019,192.127 L299.559,191.897 C298.983,191.782 298.523,192.357 297.948,192.242 L297.718,191.897 C297.488,191.667 297.258,191.667 297.373,191.322 C297.143,191.322 296.913,190.977 296.449,191.092 Z M299.904,190.517 C299.674,190.862 298.523,190.862 298.639,191.322 C298.639,191.552 299.329,191.552 299.674,191.552 C300.019,191.437 300.019,190.862 300.019,190.517 L299.904,190.517 Z M305.779,191.092 C305.434,191.322 305.085,191.552 305.085,191.897 C305.085,192.127 305.434,192.242 305.549,192.472 L305.664,193.049 C305.894,193.28 306.239,193.394 306.469,193.74 C306.815,193.97 306.93,194.315 307.274,194.545 C307.044,194.892 306.469,195.928 307.044,196.272 L307.505,196.388 C307.85,196.503 308.194,196.733 308.54,196.733 C308.885,196.85 309.345,196.733 309.575,196.503 C309.575,196.272 309.345,196.042 309.46,195.697 C309.23,195.352 308.655,195.007 308.54,194.545 L308.54,194.085 L308.31,193.624 L308.194,193.165 L307.619,192.819 L307.274,192.472 C306.93,192.012 306.93,192.127 307.159,191.667 C307.39,191.437 307.505,191.207 307.85,191.207 C308.08,191.092 308.194,190.632 307.965,190.517 C306.815,190.169 306.469,190.632 305.779,191.092 Z M290.348,177.158 C289.888,177.273 290.117,177.735 290.003,178.195 C289.773,179.001 288.392,179.346 288.277,180.153 L288.277,180.958 C288.392,181.304 288.967,181.419 289.082,181.766 C289.428,182.571 288.507,182.571 288.392,182.916 C288.043,183.491 288.622,184.068 288.392,184.759 C288.622,184.873 289.082,184.989 289.657,184.989 L289.888,184.529 L290.232,184.068 C290.348,183.836 290.232,183.606 290.232,183.376 C290.348,183.146 290.463,182.801 290.692,182.571 L291.268,182.341 C291.613,182.226 291.958,182.111 292.304,181.881 L292.304,181.648 C291.843,181.419 291.728,181.881 291.268,181.766 C291.038,181.766 290.232,181.419 290.232,181.073 C290.117,180.958 290.232,180.729 290.232,180.498 C290.117,180.038 289.773,179.346 289.888,179.116 L290.348,178.886 C290.692,178.656 290.808,178.425 291.038,178.081 C291.268,177.85 291.498,177.505 291.498,177.273 C291.383,176.928 290.578,176.928 290.348,177.158 Z M326.852,162.189 C327.887,162.189 329.152,161.959 329.842,162.304 L330.303,162.651 L330.992,162.766 L331.457,162.304 L332.032,161.959 C332.492,161.729 333.412,161.844 333.758,161.959 C334.218,162.074 334.562,162.421 335.022,162.651 C335.253,162.651 335.483,162.651 335.717,162.651 C336.063,162.766 336.522,162.996 337.098,162.881 L337.673,162.651 L337.903,162.304 C338.363,161.844 339.283,161.499 339.743,161.039 C341.358,160.923 342.854,160.463 344.698,160.693 C345.043,160.693 345.389,161.039 345.849,161.039 C346.079,161.039 346.424,161.039 346.769,161.039 C347.919,160.923 349.419,160.809 350.339,161.154 C350.569,161.269 350.799,161.499 351.029,161.499 C352.18,161.729 352.644,161.154 353.334,160.809 C353.909,160.579 354.484,160.463 355.29,160.463 L355.635,160.348 C356.44,160.463 357.016,159.886 357.824,159.886 C358.17,159.886 358.515,159.886 358.86,159.886 C359.32,159.886 359.665,160.116 360.125,160.116 C360.586,160.116 361.161,160.116 361.625,160.001 L362.2,159.886 C362.775,159.771 363.466,159.771 363.81,160.001 L364.386,160.116 C364.731,160.233 365.076,160.001 365.421,160.001 C365.771,160.001 366.346,160.233 366.69,160.348 C367.15,160.579 367.496,161.154 367.496,161.959 C367.727,162.189 367.956,162.536 367.956,162.766 L367.727,163.227 L367.841,163.571 C367.727,163.802 367.266,163.686 366.921,163.802 C366.346,163.802 365.421,164.262 364.961,164.377 C365.076,164.724 365.191,165.414 364.961,165.874 L364.731,166.45 C365.191,166.564 365.421,167.026 365.771,167.372 C366.23,167.717 367.15,167.947 366.921,168.752 C366.115,168.869 365.655,168.984 365.307,169.56 C365.076,170.135 364.846,170.48 364.731,171.172 C364.616,171.632 364.501,171.977 364.616,172.438 L364.156,172.438 C363.81,172.898 362.891,172.898 362.66,173.36 L362.431,173.935 C362.66,174.165 362.431,174.28 362.431,174.51 C362.431,174.855 362.891,175.201 362.545,175.547 C362.66,175.893 363.006,176.123 363.235,176.353 C363.695,176.813 364.041,177.273 363.926,178.31 C363.926,178.54 363.695,178.886 363.695,179.231 C363.466,180.153 363.581,181.073 363.351,181.648 C363.235,181.881 362.891,181.996 362.775,182.111 C362.545,182.341 362.66,182.571 362.431,182.801 C362.431,183.146 362.315,183.606 361.97,183.606 C361.74,183.261 361.97,182.801 362.315,182.686 L361.97,182.226 L361.51,182.111 C361.046,181.766 361.161,181.304 361.046,180.843 C360.931,180.613 360.586,180.268 360.471,180.038 C359.896,179.231 359.551,178.425 359.205,177.39 C359.09,176.928 358.745,176.468 358.86,175.778 C358.975,175.317 359.435,174.855 359.435,174.395 C359.435,174.165 358.975,173.935 358.86,173.705 L358.745,173.245 C357.824,173.36 357.364,173.935 356.9,174.395 L357.25,174.855 C357.25,175.085 356.9,175.085 356.67,175.201 C356.21,175.433 355.981,175.663 355.405,175.778 L355.06,176.008 C354.484,176.123 353.68,176.008 353.104,176.008 C352.759,176.008 352.41,175.893 352.065,175.893 C351.72,175.893 351.145,176.123 351.029,176.353 L351.029,176.813 L350.799,177.273 L350.799,177.62 C350.799,178.081 350.454,178.425 350.339,178.886 L350.225,179.461 C350.109,179.693 349.994,180.038 349.879,180.153 C349.764,180.383 349.419,180.613 349.764,180.843 C350.109,180.729 350.225,180.268 350.799,180.383 C351.029,180.613 350.914,181.189 351.26,181.304 C351.489,181.304 351.489,181.073 351.72,180.958 C352.18,180.843 352.644,181.189 352.874,181.419 C353.104,181.419 353.334,181.189 353.565,181.304 C353.565,181.073 353.219,180.843 353.449,180.729 C353.794,180.613 353.909,180.843 354.024,181.073 C354.255,181.304 354.484,181.534 354.6,181.881 L355.175,182.226 L355.405,182.571 L355.981,183.031 C356.21,183.376 356.21,183.721 356.44,183.954 L356.785,184.184 C357.016,184.414 357.25,184.989 357.135,185.219 C357.135,185.449 356.67,185.449 356.44,185.794 C356.67,186.256 357.479,186.486 357.479,187.177 C357.479,187.637 356.67,187.752 356.095,187.637 C355.865,187.521 355.981,187.291 355.865,186.946 C355.75,186.716 355.29,186.486 355.175,186.026 L355.175,185.449 C355.06,184.759 354.83,184.414 354.6,183.836 C354.484,183.606 354.484,183.261 354.024,183.146 C353.794,183.491 353.909,183.836 354.024,184.068 C354.024,184.414 354.255,184.529 354.369,184.759 C354.484,185.104 354.6,185.564 354.6,185.909 L354.369,186.371 C354.255,186.831 354.255,187.521 354.024,187.982 C354.024,188.214 353.794,188.444 353.68,188.674 C353.449,189.48 353.104,190.517 352.18,190.632 C351.949,191.207 351.835,191.667 351.835,192.357 C352.18,192.589 352.18,192.819 352.295,193.28 C352.41,193.624 352.874,193.855 352.874,194.085 C352.989,194.545 352.874,195.928 352.759,196.158 C352.525,196.618 351.949,196.85 351.26,196.85 C350.914,196.85 350.685,196.618 350.339,196.733 L350.109,196.503 C349.304,196.272 348.959,195.697 348.498,195.122 C348.265,194.777 347.919,194.545 347.805,194.2 C347.69,193.97 347.69,193.74 347.344,193.624 C346.999,193.624 347.114,193.97 346.654,193.97 L346.654,193.51 C346.193,193.624 345.849,193.28 345.618,193.394 L345.273,193.855 L344.698,194.085 C344.929,194.545 345.504,194.662 345.733,195.007 C346.079,195.007 346.193,194.662 346.539,194.662 L346.999,194.777 C347.459,194.777 347.805,194.662 347.805,195.007 C347.805,195.352 347.459,195.352 347.114,195.467 C346.884,195.582 346.193,196.158 346.309,196.503 C346.309,196.85 346.654,196.85 346.999,197.08 C347.229,197.31 347.229,197.655 347.459,197.885 C347.69,198.115 348.034,198.345 348.149,198.46 C348.265,198.806 348.149,199.038 348.034,199.498 L348.498,199.843 C348.384,200.188 348.498,200.418 348.384,200.763 L348.034,201.108 L347.919,201.568 L347.574,202.028 L347.574,202.493 L347.114,203.183 C346.769,203.528 346.193,203.988 345.733,204.219 C345.273,204.333 344.814,204.333 344.468,204.448 C344.238,204.563 344.123,204.794 343.773,204.794 C343.544,205.023 342.969,205.023 342.969,205.369 C342.854,205.599 343.198,205.714 343.198,205.944 C343.198,206.289 342.738,206.753 342.394,206.753 C342.049,206.753 341.818,206.523 341.818,206.174 C341.934,205.829 342.278,205.829 342.278,205.599 C342.394,204.794 341.128,205.023 340.783,205.369 C340.553,205.599 340.322,206.059 340.322,206.289 L340.783,207.099 C341.128,207.443 341.703,207.559 342.049,208.019 C342.278,208.249 342.738,209.169 342.738,209.629 C342.738,210.55 342.049,210.783 341.473,211.129 C340.898,211.358 340.783,211.819 340.208,211.934 L340.093,211.358 L339.514,211.014 C338.939,210.664 338.823,209.975 337.903,209.859 L337.442,209.514 C337.328,209.629 337.328,209.859 337.328,210.089 C337.098,210.783 336.638,211.358 337.442,211.589 C337.558,211.934 337.673,212.164 337.903,212.509 C338.248,213.084 339.283,213.199 339.514,213.89 C339.514,214.12 339.514,214.465 339.514,214.695 C339.629,214.925 339.862,215.159 339.978,215.274 C340.093,215.504 340.208,215.734 340.208,215.965 C339.743,216.079 339.514,215.619 339.054,215.619 C339.283,215.965 339.743,216.194 339.862,216.77 C340.093,216.885 340.093,216.425 340.322,216.539 C340.322,216.77 339.978,217.23 340.437,217.345 C340.668,217.46 340.668,217.23 340.783,217.23 C341.128,217.345 341.358,217.689 341.358,217.92 C341.358,218.035 341.128,218.15 341.013,218.38 C340.898,218.726 340.898,219.07 341.013,219.301 C341.358,219.534 341.818,219.42 342.163,219.534 C342.509,219.765 342.509,219.995 343.084,219.88 C343.314,219.88 343.429,219.765 343.659,219.649 C344.123,219.649 344.583,220.109 345.158,219.995 C345.389,220.34 345.504,220.455 346.079,220.57 C346.309,220.685 346.654,220.8 347.114,220.685 L347.69,220.57 C347.919,220.57 348.149,220.685 348.384,220.8 C348.613,220.8 348.844,220.685 349.074,220.685 C349.304,220.685 349.648,220.8 349.879,220.8 L350.454,220.57 L350.914,220.685 L351.489,220.685 L351.949,220.915 C352.295,220.915 352.525,220.685 352.759,220.8 C352.874,221.26 352.295,221.26 352.065,221.26 C351.489,221.49 351.029,222.065 350.454,222.065 C350.454,221.49 351.029,221.26 351.375,221.03 C351.145,220.915 350.799,220.915 350.569,220.915 C350.109,220.915 349.419,221.145 348.959,221.145 C348.728,221.375 349.304,221.375 349.189,221.605 C348.844,221.95 348.149,221.49 348.034,221.145 C347.805,221.03 347.459,221.145 347.229,221.145 C346.769,221.145 346.309,220.915 345.849,220.915 L345.389,220.915 L344.814,220.8 C344.354,220.685 343.889,220.8 343.544,220.8 L342.969,220.57 C342.623,220.455 342.394,220.57 342.049,220.455 C341.473,220.455 341.013,220.225 340.668,219.88 L340.668,219.534 L340.093,219.42 C339.862,219.42 339.283,218.955 339.054,218.726 C338.593,218.495 338.133,218.035 337.903,217.689 C337.788,217.46 337.673,217.115 337.442,216.77 C337.328,216.539 337.098,216.425 336.982,216.194 L336.753,215.734 C336.638,215.619 336.407,215.389 336.178,215.159 L335.603,214.58 L335.022,214.12 C334.908,214.005 334.562,213.774 334.793,213.545 C334.908,213.43 335.253,213.545 335.483,213.659 L336.063,213.659 C336.292,213.774 336.522,214.12 336.753,214.35 L337.213,214.58 C337.558,214.81 337.788,215.159 338.363,215.274 C338.479,214.81 337.903,214.695 337.788,214.35 L337.673,214.005 L337.558,213.659 L337.558,213.314 L336.867,212.509 C336.753,212.279 336.407,212.279 336.292,212.049 L336.407,211.474 L336.407,210.898 C336.407,210.55 336.522,210.089 336.407,209.629 L336.063,209.284 C335.832,208.709 335.832,207.789 335.368,207.789 C334.793,207.674 334.562,208.363 333.987,208.134 L333.758,208.019 C333.758,207.559 333.872,207.213 333.758,206.868 L333.067,206.523 C333.183,205.944 332.837,205.944 332.492,205.714 C332.147,205.369 332.147,204.794 331.802,204.679 C331.572,204.679 331.227,204.908 330.992,205.023 C330.648,205.139 329.957,205.023 329.612,205.139 C329.382,205.254 329.497,205.599 329.267,205.829 C329.037,206.059 328.807,206.174 328.577,206.289 C328.347,206.408 328.231,206.753 328.002,206.983 L327.311,207.443 L326.966,207.903 C326.617,208.134 326.157,208.249 325.927,208.479 C325.811,208.939 326.042,209.284 326.042,209.629 C326.042,210.089 325.696,210.435 325.927,211.014 C325.696,211.129 325.582,211.358 325.352,211.589 C325.236,211.819 324.776,212.279 324.546,212.279 C323.856,212.279 323.741,211.129 323.397,210.664 C323.281,210.435 323.051,210.204 322.935,210.089 C322.82,209.744 322.706,209.399 322.472,209.054 C322.356,208.709 322.012,208.479 321.897,208.134 L321.781,207.674 C321.666,207.099 321.321,206.523 321.321,206.059 C321.206,205.829 321.321,205.369 321.091,205.369 C320.746,205.369 320.631,205.714 320.286,205.714 C319.94,205.714 319.251,205.254 319.136,204.908 L319.021,204.563 C318.905,204.219 318.445,204.219 318.096,203.988 C317.751,203.644 317.636,203.183 317.291,203.183 C316.945,203.068 316.716,203.183 316.37,203.183 L315.91,203.183 C315.565,203.183 315.106,203.298 314.76,203.298 C313.951,203.298 313.261,203.068 312.34,202.953 C312.11,202.838 312.11,202.378 311.765,202.263 C311.42,202.263 311.075,202.607 310.845,202.607 C310.614,202.607 310.154,202.493 309.925,202.378 C309.69,202.263 309.575,202.028 309.345,201.913 L308.77,201.799 C308.54,201.568 308.31,200.878 307.85,200.763 C307.734,200.648 307.159,200.648 307.044,200.878 C306.815,201.453 307.965,202.028 308.194,202.378 L308.425,202.838 C308.655,202.953 308.77,202.723 308.885,202.838 C309.23,202.953 309,203.758 309.345,203.758 C309.81,203.758 310.154,203.873 310.385,203.758 C310.96,203.644 311.075,202.838 311.765,202.723 C311.995,202.838 311.88,203.183 311.88,203.413 C311.995,203.644 312.226,203.873 312.455,203.988 L313.03,203.988 C313.261,204.103 313.836,204.563 313.951,204.794 C313.951,205.369 313.03,205.714 312.915,206.059 L312.915,206.523 C312.915,206.638 312.685,206.638 312.455,206.753 L312.11,207.099 L311.765,207.213 L311.42,207.674 C311.075,207.789 310.614,207.789 310.27,207.903 C310.039,208.019 309.925,208.363 309.575,208.479 C309.345,208.709 308.77,208.709 308.425,208.939 L307.85,209.169 L307.505,209.284 L306.93,209.514 C306.699,209.629 306.469,209.514 306.239,209.514 C306.124,209.629 306.009,209.744 305.664,209.859 C305.434,209.975 304.97,209.975 304.854,210.204 C304.854,210.435 305.318,211.014 305.664,211.014 C305.779,211.014 306.009,210.783 306.239,210.783 L306.699,210.783 L307.159,210.664 C307.619,210.55 307.965,210.55 308.31,210.55 C308.655,210.435 309,210.204 309.23,210.319 C309.575,210.783 309.345,211.358 309.23,211.819 L308.655,212.395 C308.31,213.199 307.85,214.005 307.274,214.58 C306.815,214.925 306.469,215.159 306.009,215.389 C305.549,215.734 305.2,216.079 304.854,216.31 C304.51,216.654 304.164,217.115 303.819,217.345 L303.244,217.689 L303.014,218.266 C302.669,218.84 302.094,219.186 302.669,219.765 C302.669,220.109 302.669,220.685 302.784,221.145 C302.899,221.26 303.244,221.375 303.244,221.605 L303.244,222.181 C303.244,222.525 303.129,222.871 303.244,223.216 L303.244,223.795 C303.129,224.601 302.324,224.83 301.634,225.176 C301.288,225.291 300.94,225.52 300.594,225.865 C300.364,226.096 299.789,226.326 299.789,226.556 C299.674,226.901 300.019,227.361 300.019,227.592 C300.134,227.94 300.019,228.631 299.789,228.746 C299.559,229.091 298.639,228.976 298.408,229.435 L298.408,229.896 C298.408,230.241 298.293,230.701 298.064,230.932 L297.373,231.507 C297.143,231.736 296.913,232.197 296.679,232.431 C296.219,233.006 295.528,233.581 294.838,233.811 L294.263,233.927 C294.033,234.041 293.688,234.156 293.458,234.156 C293.228,234.156 292.768,234.041 292.418,234.041 L291.843,234.271 L291.383,234.271 L290.808,234.387 C290.578,234.387 290.117,234.271 290.003,234.041 L289.773,233.352 L289.888,232.892 L289.657,232.197 C289.428,231.852 289.428,231.507 289.197,231.276 C288.853,230.701 288.277,230.356 288.158,229.435 C288.158,228.86 288.158,228.285 287.928,227.706 C287.928,227.477 287.698,227.246 287.468,227.016 C287.353,226.671 287.237,226.326 287.123,226.096 C287.008,225.865 286.662,225.636 286.548,225.405 C286.433,224.715 286.777,224.141 286.893,223.68 L287.008,223.216 C287.123,222.756 287.812,222.525 287.928,222.065 C287.928,221.605 287.468,221.26 287.468,220.915 C287.468,220.57 287.468,220.34 287.353,219.995 C287.237,219.765 287.123,219.534 287.008,219.301 L286.777,218.726 C286.433,218.15 285.742,217.92 285.397,217.46 L285.167,216.77 L285.397,216.31 L285.397,215.619 C285.512,215.274 285.973,214.925 285.512,214.465 L284.936,214.58 L285.052,214.234 C284.707,213.89 284.017,214.35 283.437,214.12 C282.978,214.005 282.978,213.199 282.287,213.084 C281.137,212.97 280.331,213.774 279.292,213.89 C278.947,213.89 278.602,213.774 278.257,213.774 C277.911,213.659 277.566,213.659 277.106,213.774 C276.761,213.774 276.531,214.12 276.071,214.12 C275.266,214.12 274.571,213.199 273.881,212.854 C273.536,212.739 273.19,212.739 273.076,212.509 C272.846,212.279 272.846,211.819 272.615,211.589 C272.501,211.358 272.271,211.244 271.926,211.014 C271.695,210.783 271.58,210.55 271.351,210.435 C271.12,210.204 270.772,210.089 270.656,209.859 L270.772,209.284 C270.656,209.169 270.426,208.939 270.426,208.824 C270.426,208.479 270.772,208.363 270.772,208.134 L271.005,207.559 L271.12,207.099 L271.005,206.408 L271.005,206.059 C270.886,205.714 270.541,205.599 270.772,205.023 C270.886,204.794 271.12,204.333 271.465,203.873 L271.926,203.413 C272.04,203.183 272.04,202.953 272.271,202.723 L272.731,202.493 L273.19,201.913 C273.536,201.684 273.881,201.684 274.227,201.453 C274.456,201.338 274.802,200.993 274.802,200.763 L274.802,200.188 L275.031,199.728 L275.147,199.268 C275.381,199.038 275.956,198.922 276.301,198.575 C276.071,198.115 276.071,197.54 275.726,197.08 C275.496,196.733 275.031,196.503 274.916,196.158 C274.802,195.582 275.031,195.122 275.496,194.777 C275.496,194.2 275.381,193.74 275.266,193.165 C275.841,192.589 277.336,192.705 278.257,192.357 C278.486,192.012 278.832,191.552 278.602,191.092 C278.257,190.287 276.761,190.517 276.761,189.249 C276.761,189.019 276.991,188.674 276.991,188.444 C277.106,188.097 277.106,187.867 277.106,187.637 L277.336,187.291 C277.451,186.831 277.336,186.486 277.451,185.909 L277.106,186.371 C276.991,186.716 277.222,187.177 276.761,187.521 L276.301,187.521 C276.071,187.637 275.726,187.982 275.266,187.867 L274.802,187.521 C274.686,187.177 275.147,187.177 275.147,186.831 C275.266,186.486 274.802,186.486 275.031,186.026 L275.61,185.794 C275.841,185.449 276.185,185.104 276.876,185.219 L276.647,184.759 C276.531,184.414 276.647,184.068 276.416,183.721 C276.647,183.261 276.876,182.686 277.566,182.571 C278.257,182.456 279.062,182.686 279.292,183.031 C279.526,183.606 279.177,184.184 279.407,184.873 C279.407,185.104 279.641,185.449 279.756,185.679 C279.986,186.256 280.331,186.371 280.446,186.831 C280.791,186.831 280.906,186.946 281.022,187.061 C281.597,186.831 282.172,186.601 282.632,186.371 C282.747,185.794 283.092,185.449 283.553,184.989 C283.553,184.184 284.132,183.836 284.936,183.606 C285.052,183.376 284.936,183.261 284.936,183.031 C284.247,182.801 284.247,183.491 283.437,183.491 C283.207,183.491 282.632,183.146 282.517,182.916 L282.517,182.456 L282.057,181.881 L282.057,181.419 C281.941,180.958 281.597,180.729 281.941,180.153 L282.172,179.808 C282.402,179.461 282.517,179.116 282.862,178.886 C283.092,178.77 283.437,178.77 283.667,178.54 C283.897,177.965 284.247,177.62 284.592,176.928 C284.936,176.353 285.512,175.893 285.512,175.201 C285.627,174.626 285.512,174.05 285.973,173.59 L286.662,173.13 C286.893,172.898 287.008,172.667 287.237,172.438 L287.698,172.208 C288.392,171.747 288.967,171.172 290.348,171.287 C290.808,171.402 291.383,171.632 291.958,171.747 C292.537,171.862 293.112,172.092 293.573,172.208 C293.918,172.322 294.493,172.667 294.608,172.783 C294.724,173.013 294.724,173.13 294.724,173.36 C295.299,173.475 295.759,173.36 296.219,173.475 C296.679,173.705 297.028,174.05 297.373,174.165 L297.833,174.28 C298.179,174.395 298.868,174.97 298.983,175.317 C298.983,175.663 298.754,176.008 298.523,176.123 C298.064,176.583 297.143,176.353 296.334,176.238 C296.449,177.043 297.373,177.043 297.833,177.39 C298.064,177.273 298.293,177.158 298.523,177.043 L298.408,176.698 C298.754,176.008 300.249,175.663 300.019,174.395 C299.904,174.28 299.674,174.165 299.559,173.935 C299.674,173.475 299.904,173.013 300.249,172.898 C300.479,172.783 300.824,172.783 301.059,172.667 C301.288,172.667 301.634,172.553 301.749,172.553 C302.554,172.438 303.359,172.898 303.819,173.013 C304.164,172.898 304.279,172.667 304.625,172.553 L304.854,171.977 C304.97,171.747 305.434,171.747 305.664,171.632 L306.009,171.287 C306.354,171.287 306.699,171.747 307.044,171.747 L307.619,171.632 C308.08,171.402 308.54,170.825 308.655,170.135 C308.885,169.214 308.425,168.407 309.115,167.602 L309.345,167.487 L309.575,167.257 L310.154,167.026 C310.614,166.912 311.075,167.026 311.42,167.026 C311.88,166.912 312.455,166.564 313.03,166.45 L313.376,166.45 C313.721,166.45 313.606,166.219 313.951,165.989 C313.836,165.644 314.069,165.644 314.185,165.299 L314.415,164.954 L314.875,164.724 L315.335,164.146 L315.795,163.802 C316.025,163.571 316.141,163.227 316.601,163.111 C316.945,162.304 317.751,161.959 318.211,161.384 C318.445,161.154 318.676,160.923 318.79,160.693 L318.905,160.116 C318.905,159.886 319.251,159.771 319.365,159.656 C319.251,158.851 320.401,158.736 320.861,159.196 C321.666,159.081 322.012,159.656 322.82,159.771 C322.935,159.656 323.166,159.541 323.397,159.541 C323.626,159.541 323.971,159.771 324.316,159.771 C324.776,159.886 325.236,159.771 325.582,159.886 C326.042,160.001 326.732,160.693 326.852,161.154 C326.852,161.499 326.732,161.844 326.852,162.189 Z" id="Fill-15"></path>
        </g>
    </g>
</svg>